%TF.GenerationSoftware,KiCad,Pcbnew,9.0.1*%
%TF.CreationDate,2025-07-13T22:34:50-07:00*%
%TF.ProjectId,defcon33_keychhain,64656663-6f6e-4333-935f-6b6579636868,rev?*%
%TF.SameCoordinates,Original*%
%TF.FileFunction,Legend,Top*%
%TF.FilePolarity,Positive*%
%FSLAX46Y46*%
G04 Gerber Fmt 4.6, Leading zero omitted, Abs format (unit mm)*
G04 Created by KiCad (PCBNEW 9.0.1) date 2025-07-13 22:34:50*
%MOMM*%
%LPD*%
G01*
G04 APERTURE LIST*
%ADD10C,0.000000*%
G04 APERTURE END LIST*
D10*
%TO.C,G\u002A\u002A\u002A*%
G36*
X155592802Y-89163298D02*
G01*
X155733303Y-89217510D01*
X155856810Y-89306666D01*
X155950400Y-89388839D01*
X155950400Y-89284399D01*
X155950400Y-89179959D01*
X156156211Y-89179959D01*
X156362021Y-89179959D01*
X156353455Y-90089829D01*
X156344889Y-90999699D01*
X156268536Y-91152404D01*
X156181544Y-91288237D01*
X156073561Y-91382607D01*
X155935177Y-91443617D01*
X155927943Y-91445749D01*
X155816116Y-91467598D01*
X155673951Y-91480711D01*
X155521342Y-91484590D01*
X155378182Y-91478736D01*
X155264364Y-91462653D01*
X155263226Y-91462388D01*
X155085446Y-91403421D01*
X154951892Y-91319765D01*
X154861987Y-91210889D01*
X154815153Y-91076264D01*
X154810992Y-91046994D01*
X154797713Y-90929183D01*
X154909578Y-90944792D01*
X155004711Y-90957640D01*
X155114268Y-90971851D01*
X155157036Y-90977228D01*
X155241628Y-90992022D01*
X155289257Y-91014058D01*
X155313857Y-91049921D01*
X155314525Y-91051647D01*
X155359374Y-91103831D01*
X155439436Y-91139695D01*
X155541168Y-91157544D01*
X155651027Y-91155683D01*
X155755472Y-91132417D01*
X155800876Y-91112525D01*
X155859916Y-91053497D01*
X155901250Y-90952860D01*
X155922535Y-90817533D01*
X155924949Y-90746007D01*
X155923618Y-90661514D01*
X155920135Y-90601663D01*
X155915423Y-90579759D01*
X155892913Y-90595435D01*
X155845630Y-90635582D01*
X155809213Y-90668317D01*
X155707759Y-90745224D01*
X155599985Y-90789702D01*
X155470659Y-90806435D01*
X155366255Y-90804564D01*
X155201265Y-90776523D01*
X155063766Y-90709634D01*
X154944838Y-90598945D01*
X154906051Y-90549078D01*
X154828264Y-90415176D01*
X154779946Y-90264285D01*
X154758707Y-90086160D01*
X154759436Y-89920910D01*
X154762606Y-89889714D01*
X155193911Y-89889714D01*
X155194082Y-90064276D01*
X155226568Y-90214709D01*
X155289266Y-90333156D01*
X155322237Y-90369728D01*
X155381118Y-90420774D01*
X155430379Y-90455818D01*
X155441382Y-90461380D01*
X155513369Y-90471145D01*
X155606194Y-90460738D01*
X155695994Y-90434334D01*
X155744589Y-90408339D01*
X155796329Y-90356428D01*
X155850133Y-90281280D01*
X155869504Y-90247407D01*
X155900923Y-90178580D01*
X155917261Y-90112355D01*
X155921556Y-90029687D01*
X155918457Y-89940670D01*
X155893523Y-89765111D01*
X155839446Y-89630475D01*
X155756586Y-89537228D01*
X155645301Y-89485834D01*
X155559241Y-89475119D01*
X155434392Y-89495153D01*
X155331953Y-89558756D01*
X155255037Y-89662393D01*
X155206760Y-89802529D01*
X155193911Y-89889714D01*
X154762606Y-89889714D01*
X154779847Y-89720045D01*
X154823413Y-89557603D01*
X154893333Y-89425180D01*
X154989119Y-89317679D01*
X155121222Y-89219566D01*
X155258734Y-89164699D01*
X155418173Y-89146647D01*
X155428657Y-89146594D01*
X155592802Y-89163298D01*
G37*
G36*
X147563896Y-89158119D02*
G01*
X147738036Y-89199983D01*
X147870757Y-89270793D01*
X147962401Y-89370721D01*
X148006706Y-89472942D01*
X148016169Y-89533005D01*
X148024176Y-89634646D01*
X148030278Y-89768552D01*
X148034026Y-89925411D01*
X148035028Y-90060333D01*
X148036463Y-90259248D01*
X148040921Y-90414114D01*
X148048823Y-90531721D01*
X148060594Y-90618854D01*
X148073071Y-90671155D01*
X148094806Y-90746094D01*
X148108649Y-90800139D01*
X148111247Y-90815180D01*
X148087954Y-90824082D01*
X148025850Y-90830768D01*
X147937015Y-90834094D01*
X147909889Y-90834268D01*
X147708255Y-90834268D01*
X147678857Y-90745190D01*
X147651744Y-90679284D01*
X147623744Y-90660302D01*
X147585317Y-90685004D01*
X147564811Y-90706480D01*
X147498480Y-90755262D01*
X147399038Y-90800582D01*
X147284204Y-90836319D01*
X147171701Y-90856354D01*
X147124345Y-90858602D01*
X147025709Y-90849893D01*
X146928592Y-90829607D01*
X146906554Y-90822595D01*
X146773385Y-90750547D01*
X146672685Y-90639983D01*
X146632572Y-90567033D01*
X146590152Y-90424822D01*
X146596464Y-90304615D01*
X147023204Y-90304615D01*
X147029835Y-90390310D01*
X147087264Y-90475584D01*
X147091529Y-90479913D01*
X147179379Y-90539419D01*
X147281193Y-90553113D01*
X147402255Y-90521652D01*
X147408167Y-90519216D01*
X147509979Y-90457151D01*
X147572781Y-90369122D01*
X147600420Y-90248701D01*
X147602504Y-90194563D01*
X147598367Y-90111271D01*
X147587357Y-90058164D01*
X147576132Y-90045290D01*
X147540838Y-90051158D01*
X147469280Y-90066821D01*
X147374483Y-90089368D01*
X147333588Y-90099508D01*
X147211603Y-90134009D01*
X147130046Y-90167487D01*
X147078745Y-90204448D01*
X147067274Y-90217469D01*
X147023204Y-90304615D01*
X146596464Y-90304615D01*
X146597486Y-90285154D01*
X146623995Y-90203541D01*
X146664461Y-90122471D01*
X146715589Y-90055795D01*
X146784066Y-89999970D01*
X146876577Y-89951458D01*
X146999808Y-89906717D01*
X147160447Y-89862207D01*
X147354358Y-89816785D01*
X147602504Y-89761666D01*
X147602504Y-89674420D01*
X147581583Y-89580103D01*
X147518583Y-89514006D01*
X147413149Y-89475787D01*
X147392494Y-89472262D01*
X147277031Y-89471689D01*
X147172728Y-89501201D01*
X147093817Y-89555326D01*
X147064007Y-89598577D01*
X147028511Y-89646284D01*
X146991842Y-89663526D01*
X146949187Y-89659172D01*
X146878180Y-89648130D01*
X146795286Y-89633433D01*
X146716969Y-89618113D01*
X146659695Y-89605202D01*
X146640242Y-89598772D01*
X146644171Y-89573983D01*
X146663411Y-89519085D01*
X146673345Y-89494484D01*
X146751506Y-89360138D01*
X146861322Y-89259564D01*
X147005653Y-89191280D01*
X147187359Y-89153804D01*
X147347995Y-89145032D01*
X147563896Y-89158119D01*
G37*
G36*
X149220330Y-89150311D02*
G01*
X149383010Y-89177816D01*
X149518539Y-89222197D01*
X149538790Y-89231890D01*
X149603408Y-89278245D01*
X149672276Y-89347908D01*
X149734053Y-89426633D01*
X149777395Y-89500175D01*
X149791282Y-89549017D01*
X149768124Y-89566465D01*
X149706911Y-89586749D01*
X149620038Y-89605918D01*
X149604000Y-89608717D01*
X149416719Y-89640185D01*
X149326585Y-89550052D01*
X149276185Y-89502766D01*
X149232275Y-89475788D01*
X149177793Y-89463440D01*
X149095675Y-89460044D01*
X149055751Y-89459919D01*
X148952800Y-89462785D01*
X148886341Y-89473461D01*
X148842178Y-89495069D01*
X148824148Y-89510821D01*
X148781442Y-89564233D01*
X148780655Y-89607179D01*
X148812983Y-89648726D01*
X148835399Y-89666694D01*
X148869821Y-89684605D01*
X148923328Y-89704790D01*
X149003000Y-89729578D01*
X149115915Y-89761301D01*
X149269152Y-89802288D01*
X149320791Y-89815885D01*
X149518762Y-89880480D01*
X149668885Y-89958794D01*
X149772878Y-90052945D01*
X149832455Y-90165055D01*
X149849332Y-90297242D01*
X149827682Y-90442148D01*
X149775565Y-90558178D01*
X149686391Y-90667404D01*
X149573552Y-90756227D01*
X149470193Y-90805151D01*
X149350776Y-90831684D01*
X149202415Y-90846561D01*
X149045362Y-90849312D01*
X148899869Y-90839465D01*
X148800128Y-90820756D01*
X148626479Y-90750490D01*
X148489639Y-90646233D01*
X148386202Y-90505196D01*
X148365810Y-90465230D01*
X148317479Y-90363426D01*
X148377964Y-90347065D01*
X148436614Y-90335084D01*
X148523294Y-90321632D01*
X148587651Y-90313388D01*
X148736854Y-90296071D01*
X148799794Y-90393332D01*
X148881401Y-90475826D01*
X148992007Y-90528822D01*
X149117475Y-90549838D01*
X149243666Y-90536396D01*
X149350600Y-90489935D01*
X149393935Y-90437507D01*
X149410251Y-90368066D01*
X149396752Y-90303477D01*
X149377518Y-90279474D01*
X149340585Y-90262474D01*
X149266036Y-90237481D01*
X149165782Y-90208260D01*
X149083212Y-90186424D01*
X148872405Y-90128589D01*
X148707266Y-90071743D01*
X148582800Y-90011935D01*
X148494013Y-89945217D01*
X148435910Y-89867637D01*
X148403498Y-89775247D01*
X148391782Y-89664095D01*
X148391482Y-89639328D01*
X148406844Y-89502788D01*
X148457711Y-89391844D01*
X148535553Y-89303961D01*
X148605442Y-89245604D01*
X148674504Y-89206289D01*
X148759578Y-89178860D01*
X148877504Y-89156161D01*
X148886987Y-89154634D01*
X149048867Y-89141858D01*
X149220330Y-89150311D01*
G37*
G36*
X153913374Y-89167128D02*
G01*
X154088159Y-89232379D01*
X154236271Y-89340470D01*
X154283324Y-89390416D01*
X154363737Y-89514481D01*
X154426041Y-89670456D01*
X154464497Y-89840873D01*
X154474248Y-89971618D01*
X154474248Y-90121643D01*
X153927690Y-90121643D01*
X153381132Y-90121643D01*
X153396856Y-90204358D01*
X153443779Y-90344596D01*
X153522601Y-90446948D01*
X153630739Y-90509090D01*
X153757218Y-90528762D01*
X153843213Y-90519682D01*
X153908524Y-90484719D01*
X153941737Y-90454462D01*
X153988948Y-90397444D01*
X154014591Y-90347392D01*
X154016132Y-90337174D01*
X154029424Y-90306729D01*
X154073396Y-90308342D01*
X154132198Y-90319889D01*
X154216532Y-90333254D01*
X154261019Y-90339399D01*
X154360856Y-90355031D01*
X154416520Y-90374464D01*
X154434614Y-90405053D01*
X154421743Y-90454148D01*
X154401673Y-90496001D01*
X154321765Y-90610822D01*
X154211029Y-90715901D01*
X154088883Y-90793352D01*
X154069335Y-90802087D01*
X153981713Y-90826013D01*
X153862592Y-90842319D01*
X153730949Y-90849956D01*
X153605758Y-90847874D01*
X153505997Y-90835025D01*
X153499924Y-90833561D01*
X153326592Y-90765392D01*
X153182157Y-90655495D01*
X153066224Y-90503531D01*
X153025923Y-90427053D01*
X152995933Y-90357847D01*
X152976608Y-90293636D01*
X152965680Y-90219981D01*
X152960879Y-90122443D01*
X152959919Y-90007113D01*
X152961233Y-89877175D01*
X152961820Y-89867134D01*
X153405310Y-89867134D01*
X153723446Y-89867134D01*
X154041582Y-89867134D01*
X154041487Y-89784418D01*
X154022027Y-89687386D01*
X153972048Y-89592285D01*
X153903842Y-89520669D01*
X153883986Y-89508203D01*
X153793894Y-89481891D01*
X153686731Y-89480477D01*
X153588069Y-89502989D01*
X153553061Y-89520795D01*
X153483179Y-89590754D01*
X153429913Y-89687895D01*
X153405680Y-89788670D01*
X153405310Y-89800990D01*
X153405310Y-89867134D01*
X152961820Y-89867134D01*
X152965686Y-89800990D01*
X152966704Y-89783582D01*
X152978625Y-89711810D01*
X152999291Y-89647338D01*
X153026596Y-89584973D01*
X153130804Y-89411536D01*
X153260690Y-89281974D01*
X153417329Y-89195596D01*
X153601801Y-89151713D01*
X153713605Y-89145443D01*
X153913374Y-89167128D01*
G37*
G36*
X157621192Y-89154299D02*
G01*
X157764638Y-89176909D01*
X157876752Y-89217289D01*
X157960438Y-89272452D01*
X158002857Y-89309905D01*
X158035767Y-89346716D01*
X158060581Y-89389825D01*
X158078709Y-89446177D01*
X158091563Y-89522712D01*
X158100554Y-89626374D01*
X158107092Y-89764105D01*
X158112589Y-89942846D01*
X158114946Y-90032564D01*
X158120803Y-90233166D01*
X158127166Y-90389570D01*
X158134599Y-90508481D01*
X158143672Y-90596602D01*
X158154950Y-90660638D01*
X158169001Y-90707293D01*
X158172777Y-90716484D01*
X158199179Y-90779408D01*
X158214209Y-90819236D01*
X158215530Y-90824650D01*
X158192082Y-90829104D01*
X158129743Y-90832464D01*
X158040519Y-90834165D01*
X158010624Y-90834268D01*
X157805719Y-90834268D01*
X157768756Y-90745804D01*
X157731794Y-90657340D01*
X157611865Y-90733396D01*
X157435297Y-90820381D01*
X157257793Y-90857010D01*
X157076278Y-90843783D01*
X157019338Y-90829815D01*
X156877188Y-90765927D01*
X156771235Y-90667512D01*
X156704574Y-90538710D01*
X156680301Y-90383666D01*
X156680255Y-90376152D01*
X156681906Y-90357389D01*
X157107352Y-90357389D01*
X157137121Y-90436906D01*
X157198787Y-90499831D01*
X157282928Y-90539924D01*
X157380126Y-90550944D01*
X157480961Y-90526651D01*
X157497806Y-90518550D01*
X157595705Y-90451838D01*
X157657448Y-90366752D01*
X157690993Y-90250697D01*
X157697296Y-90202841D01*
X157705247Y-90124214D01*
X157703507Y-90075725D01*
X157683522Y-90053005D01*
X157636741Y-90051683D01*
X157554610Y-90067388D01*
X157469753Y-90086568D01*
X157326077Y-90123645D01*
X157225515Y-90161902D01*
X157160357Y-90205315D01*
X157122892Y-90257861D01*
X157118899Y-90267521D01*
X157107352Y-90357389D01*
X156681906Y-90357389D01*
X156691561Y-90247694D01*
X156728551Y-90141781D01*
X156795836Y-90054627D01*
X156898024Y-89982449D01*
X157039725Y-89921463D01*
X157225549Y-89867884D01*
X157327848Y-89844526D01*
X157474803Y-89812237D01*
X157578658Y-89786329D01*
X157646256Y-89763346D01*
X157684438Y-89739832D01*
X157700047Y-89712330D01*
X157699925Y-89677385D01*
X157696558Y-89658295D01*
X157661956Y-89564855D01*
X157597808Y-89506215D01*
X157495594Y-89474838D01*
X157487778Y-89473615D01*
X157355427Y-89471412D01*
X157245266Y-89504876D01*
X157166217Y-89570918D01*
X157154170Y-89589035D01*
X157124251Y-89631016D01*
X157088386Y-89653909D01*
X157035149Y-89659335D01*
X156953113Y-89648912D01*
X156860744Y-89630602D01*
X156714875Y-89599899D01*
X156775290Y-89469666D01*
X156850433Y-89345943D01*
X156948994Y-89254639D01*
X157076706Y-89192964D01*
X157239301Y-89158126D01*
X157437543Y-89147335D01*
X157621192Y-89154299D01*
G37*
G36*
X159323270Y-89151407D02*
G01*
X159490335Y-89182789D01*
X159619919Y-89233654D01*
X159723544Y-89309715D01*
X159787124Y-89381424D01*
X159847428Y-89467637D01*
X159868955Y-89526216D01*
X159848538Y-89564819D01*
X159783012Y-89591109D01*
X159693143Y-89608895D01*
X159586475Y-89626166D01*
X159519569Y-89634393D01*
X159481931Y-89632628D01*
X159463069Y-89619922D01*
X159452490Y-89595326D01*
X159449811Y-89586894D01*
X159405551Y-89527418D01*
X159320973Y-89484645D01*
X159204981Y-89462310D01*
X159146950Y-89459919D01*
X159012859Y-89470154D01*
X158924083Y-89500655D01*
X158881323Y-89551115D01*
X158877254Y-89577947D01*
X158886631Y-89621539D01*
X158919042Y-89658978D01*
X158980908Y-89693635D01*
X159078649Y-89728881D01*
X159218687Y-89768089D01*
X159259017Y-89778390D01*
X159448475Y-89829902D01*
X159594902Y-89878988D01*
X159705845Y-89928961D01*
X159788851Y-89983135D01*
X159842853Y-90034704D01*
X159913362Y-90150002D01*
X159940238Y-90277985D01*
X159926236Y-90410388D01*
X159874113Y-90538946D01*
X159786625Y-90655393D01*
X159666530Y-90751466D01*
X159590488Y-90791348D01*
X159495945Y-90819684D01*
X159368507Y-90840037D01*
X159225716Y-90851296D01*
X159085112Y-90852356D01*
X158964236Y-90842106D01*
X158921398Y-90833622D01*
X158768731Y-90776993D01*
X158631218Y-90691995D01*
X158520379Y-90587603D01*
X158447734Y-90472795D01*
X158442884Y-90460746D01*
X158425382Y-90407046D01*
X158429182Y-90373805D01*
X158462721Y-90352860D01*
X158534436Y-90336054D01*
X158580290Y-90327862D01*
X158704117Y-90308416D01*
X158785693Y-90301531D01*
X158832153Y-90307422D01*
X158850628Y-90326303D01*
X158851803Y-90336017D01*
X158873811Y-90391833D01*
X158930444Y-90451372D01*
X159007615Y-90503593D01*
X159091234Y-90537451D01*
X159114953Y-90542300D01*
X159233597Y-90546242D01*
X159341051Y-90524995D01*
X159428391Y-90483500D01*
X159486696Y-90426702D01*
X159507041Y-90359542D01*
X159501696Y-90328068D01*
X159490116Y-90303922D01*
X159467320Y-90283056D01*
X159425709Y-90262438D01*
X159357684Y-90239034D01*
X159255645Y-90209811D01*
X159111993Y-90171737D01*
X159106312Y-90170257D01*
X158898833Y-90108732D01*
X158737910Y-90043140D01*
X158619213Y-89970573D01*
X158538410Y-89888122D01*
X158491170Y-89792882D01*
X158480643Y-89750243D01*
X158472775Y-89592419D01*
X158509344Y-89454057D01*
X158586781Y-89337693D01*
X158701517Y-89245865D01*
X158849983Y-89181109D01*
X159028610Y-89145959D01*
X159233831Y-89142954D01*
X159323270Y-89151407D01*
G37*
G36*
X145235570Y-89510821D02*
G01*
X145235570Y-90452504D01*
X145809331Y-90452504D01*
X146383091Y-90452504D01*
X146375613Y-90637023D01*
X146368136Y-90821542D01*
X145572795Y-90828268D01*
X144777454Y-90834993D01*
X144777454Y-89702065D01*
X144777454Y-88569138D01*
X145006512Y-88569138D01*
X145235570Y-88569138D01*
X145235570Y-89510821D01*
G37*
G36*
X151595667Y-89148146D02*
G01*
X151683547Y-89404767D01*
X151756458Y-89617240D01*
X151815841Y-89789601D01*
X151863135Y-89925885D01*
X151899784Y-90030128D01*
X151927226Y-90106367D01*
X151946904Y-90158637D01*
X151960258Y-90190974D01*
X151968728Y-90207413D01*
X151973757Y-90211991D01*
X151975245Y-90211293D01*
X151985310Y-90185590D01*
X152009319Y-90117159D01*
X152045366Y-90011644D01*
X152091545Y-89874690D01*
X152145951Y-89711940D01*
X152206680Y-89529038D01*
X152256290Y-89378812D01*
X152527254Y-88556412D01*
X152762675Y-88549094D01*
X152866797Y-88548207D01*
X152946758Y-88552062D01*
X152991906Y-88559933D01*
X152998096Y-88565175D01*
X152989781Y-88593101D01*
X152966223Y-88663078D01*
X152929498Y-88769290D01*
X152881686Y-88905924D01*
X152824863Y-89067166D01*
X152761107Y-89247202D01*
X152692497Y-89440218D01*
X152621109Y-89640401D01*
X152549023Y-89841935D01*
X152478315Y-90039008D01*
X152411063Y-90225805D01*
X152349346Y-90396512D01*
X152295241Y-90545315D01*
X152250825Y-90666400D01*
X152218177Y-90753954D01*
X152199375Y-90802162D01*
X152196079Y-90809324D01*
X152164592Y-90821148D01*
X152096714Y-90829093D01*
X152006801Y-90833155D01*
X151909212Y-90833329D01*
X151818304Y-90829607D01*
X151748437Y-90821986D01*
X151713966Y-90810458D01*
X151713256Y-90809514D01*
X151700992Y-90779873D01*
X151673985Y-90708413D01*
X151634314Y-90600949D01*
X151584060Y-90463297D01*
X151525303Y-90301270D01*
X151460122Y-90120684D01*
X151390598Y-89927354D01*
X151318810Y-89727094D01*
X151246839Y-89525721D01*
X151176765Y-89329048D01*
X151110668Y-89142891D01*
X151050628Y-88973064D01*
X150998725Y-88825383D01*
X150957039Y-88705662D01*
X150927651Y-88619717D01*
X150912639Y-88573362D01*
X150911122Y-88567087D01*
X150934713Y-88556976D01*
X150998076Y-88549063D01*
X151090089Y-88544436D01*
X151149955Y-88543687D01*
X151388788Y-88543687D01*
X151595667Y-89148146D01*
G37*
G36*
X150396080Y-79239601D02*
G01*
X150389555Y-79264971D01*
X150350948Y-79308735D01*
X150290798Y-79361462D01*
X150219648Y-79413719D01*
X150162714Y-79448404D01*
X150091472Y-79493845D01*
X150035460Y-79538556D01*
X149985990Y-79577151D01*
X149909320Y-79628697D01*
X149829458Y-79677616D01*
X149746622Y-79726253D01*
X149677733Y-79767260D01*
X149638576Y-79791219D01*
X149577174Y-79826105D01*
X149479765Y-79876233D01*
X149357039Y-79936578D01*
X149219680Y-80002113D01*
X149078377Y-80067812D01*
X148943817Y-80128649D01*
X148826686Y-80179598D01*
X148737671Y-80215633D01*
X148730336Y-80218367D01*
X148467138Y-80306024D01*
X148165951Y-80389892D01*
X147839687Y-80466428D01*
X147780661Y-80478870D01*
X147682883Y-80497570D01*
X147586894Y-80511913D01*
X147483279Y-80522561D01*
X147362621Y-80530172D01*
X147215506Y-80535409D01*
X147032516Y-80538931D01*
X146902605Y-80540487D01*
X146726945Y-80541831D01*
X146564536Y-80542229D01*
X146423539Y-80541729D01*
X146312116Y-80540377D01*
X146238427Y-80538220D01*
X146215430Y-80536521D01*
X146153439Y-80528264D01*
X146059616Y-80515796D01*
X145952591Y-80501592D01*
X145935470Y-80499321D01*
X145797229Y-80478228D01*
X145644577Y-80450305D01*
X145485340Y-80417504D01*
X145327343Y-80381773D01*
X145178411Y-80345061D01*
X145046370Y-80309317D01*
X144939043Y-80276491D01*
X144864257Y-80248532D01*
X144829836Y-80227389D01*
X144828450Y-80223566D01*
X144849440Y-80205579D01*
X144904893Y-80171668D01*
X144983680Y-80128547D01*
X145000244Y-80119931D01*
X145143782Y-80036234D01*
X145308195Y-79924636D01*
X145480373Y-79795129D01*
X145647204Y-79657707D01*
X145795578Y-79522362D01*
X145832984Y-79485230D01*
X145912463Y-79408486D01*
X145982532Y-79348003D01*
X146033506Y-79311779D01*
X146051222Y-79305009D01*
X146093810Y-79312903D01*
X146169367Y-79333787D01*
X146262949Y-79363461D01*
X146280962Y-79369551D01*
X146740656Y-79503441D01*
X147227324Y-79601531D01*
X147729912Y-79661858D01*
X148022444Y-79678706D01*
X148464726Y-79680330D01*
X148875099Y-79652024D01*
X149264096Y-79591962D01*
X149642249Y-79498319D01*
X150020089Y-79369267D01*
X150179910Y-79304621D01*
X150272036Y-79268642D01*
X150346054Y-79245124D01*
X150389971Y-79237676D01*
X150396080Y-79239601D01*
G37*
G36*
X155924131Y-72033707D02*
G01*
X156130217Y-72040704D01*
X156297529Y-72049632D01*
X156438189Y-72061636D01*
X156564318Y-72077864D01*
X156688038Y-72099463D01*
X156748095Y-72111646D01*
X156865649Y-72137166D01*
X156964041Y-72160070D01*
X157033094Y-72177880D01*
X157062627Y-72188118D01*
X157062739Y-72188223D01*
X157053584Y-72208727D01*
X157011571Y-72240843D01*
X156950699Y-72276299D01*
X156884967Y-72306822D01*
X156834819Y-72322906D01*
X156784181Y-72339732D01*
X156764829Y-72357195D01*
X156743994Y-72379032D01*
X156691847Y-72410319D01*
X156669388Y-72421419D01*
X156452765Y-72542318D01*
X156218941Y-72709150D01*
X155969650Y-72920602D01*
X155802244Y-73079275D01*
X155668087Y-73213500D01*
X155563323Y-73324291D01*
X155479316Y-73422048D01*
X155407431Y-73517171D01*
X155339032Y-73620064D01*
X155298078Y-73686535D01*
X155139165Y-73967259D01*
X155009341Y-74238746D01*
X154901405Y-74518482D01*
X154808161Y-74823951D01*
X154770921Y-74967044D01*
X154720428Y-75180707D01*
X154684421Y-75364045D01*
X154660708Y-75534827D01*
X154647097Y-75710823D01*
X154641396Y-75909799D01*
X154640828Y-76021843D01*
X154641412Y-76175635D01*
X154644171Y-76297031D01*
X154650791Y-76399805D01*
X154662957Y-76497735D01*
X154682354Y-76604595D01*
X154710668Y-76734162D01*
X154746889Y-76888846D01*
X154807291Y-77130905D01*
X154866253Y-77336635D01*
X154928733Y-77520203D01*
X154999687Y-77695778D01*
X155084074Y-77877529D01*
X155113675Y-77937221D01*
X155250707Y-78191303D01*
X155388913Y-78405185D01*
X155537058Y-78589001D01*
X155703904Y-78752883D01*
X155898216Y-78906964D01*
X156032140Y-78999259D01*
X156312992Y-79169087D01*
X156619873Y-79326956D01*
X156946378Y-79471233D01*
X157286097Y-79600285D01*
X157632624Y-79712478D01*
X157979551Y-79806180D01*
X158320470Y-79879757D01*
X158648974Y-79931577D01*
X158958655Y-79960005D01*
X159243105Y-79963408D01*
X159495918Y-79940155D01*
X159622858Y-79914485D01*
X159714494Y-79894900D01*
X159759257Y-79893917D01*
X159757510Y-79911168D01*
X159709616Y-79946289D01*
X159615938Y-79998916D01*
X159476840Y-80068682D01*
X159462625Y-80075539D01*
X159042358Y-80256291D01*
X158626314Y-80390810D01*
X158204736Y-80481807D01*
X157838856Y-80526622D01*
X157648076Y-80538692D01*
X157434156Y-80545947D01*
X157209001Y-80548517D01*
X156984514Y-80546531D01*
X156772599Y-80540121D01*
X156585160Y-80529416D01*
X156434102Y-80514547D01*
X156408516Y-80510967D01*
X156243428Y-80482128D01*
X156048057Y-80441415D01*
X155837634Y-80392572D01*
X155627390Y-80339339D01*
X155432557Y-80285461D01*
X155268367Y-80234679D01*
X155228736Y-80221093D01*
X154935379Y-80104317D01*
X154625145Y-79957097D01*
X154313914Y-79787949D01*
X154017569Y-79605388D01*
X153805013Y-79457715D01*
X153703181Y-79377353D01*
X153581295Y-79272819D01*
X153446614Y-79151179D01*
X153306397Y-79019505D01*
X153167905Y-78884865D01*
X153038397Y-78754328D01*
X152925132Y-78634964D01*
X152835371Y-78533841D01*
X152776372Y-78458030D01*
X152772632Y-78452404D01*
X152728611Y-78391263D01*
X152660792Y-78304637D01*
X152579201Y-78205076D01*
X152510817Y-78124627D01*
X152300935Y-77845066D01*
X152120355Y-77527013D01*
X151970327Y-77174448D01*
X151852098Y-76791355D01*
X151766919Y-76381712D01*
X151716038Y-75949503D01*
X151700596Y-75541542D01*
X151716668Y-75118370D01*
X151765810Y-74730091D01*
X151847741Y-74377779D01*
X151962175Y-74062509D01*
X152108829Y-73785354D01*
X152199048Y-73654909D01*
X152270113Y-73557532D01*
X152338950Y-73457288D01*
X152391358Y-73374896D01*
X152393885Y-73370606D01*
X152472495Y-73265842D01*
X152595595Y-73144773D01*
X152763995Y-73006707D01*
X152978508Y-72850954D01*
X153104048Y-72765737D01*
X153431314Y-72563579D01*
X153755576Y-72396899D01*
X154084008Y-72263835D01*
X154423784Y-72162525D01*
X154782077Y-72091107D01*
X155166062Y-72047718D01*
X155582912Y-72030496D01*
X155924131Y-72033707D01*
G37*
G36*
X160595195Y-78236136D02*
G01*
X160728951Y-78239190D01*
X160828367Y-78245636D01*
X160897579Y-78256601D01*
X160940726Y-78273212D01*
X160961944Y-78296593D01*
X160965371Y-78327872D01*
X160955143Y-78368175D01*
X160935400Y-78418627D01*
X160910277Y-78480355D01*
X160904011Y-78496695D01*
X160778022Y-78787111D01*
X160625753Y-79052605D01*
X160438560Y-79306961D01*
X160286640Y-79480884D01*
X160168664Y-79599830D01*
X160054210Y-79694043D01*
X159935330Y-79766145D01*
X159804078Y-79818759D01*
X159652507Y-79854508D01*
X159472671Y-79876013D01*
X159256622Y-79885899D01*
X159055410Y-79887218D01*
X158896795Y-79885183D01*
X158747754Y-79880953D01*
X158618991Y-79875006D01*
X158521211Y-79867822D01*
X158470039Y-79861014D01*
X158156617Y-79793341D01*
X157877209Y-79728455D01*
X157634133Y-79667049D01*
X157429706Y-79609815D01*
X157266245Y-79557444D01*
X157146067Y-79510630D01*
X157071488Y-79470063D01*
X157044826Y-79436436D01*
X157044789Y-79435292D01*
X157068250Y-79420325D01*
X157130706Y-79405807D01*
X157220261Y-79393401D01*
X157325024Y-79384772D01*
X157428844Y-79381583D01*
X157559564Y-79369333D01*
X157718207Y-79335944D01*
X157888672Y-79285832D01*
X158054860Y-79223409D01*
X158130925Y-79189148D01*
X158321861Y-79075473D01*
X158493283Y-78925861D01*
X158649230Y-78735906D01*
X158793737Y-78501201D01*
X158837050Y-78418254D01*
X158928796Y-78236071D01*
X159946512Y-78236071D01*
X160208113Y-78235703D01*
X160422962Y-78235349D01*
X160595195Y-78236136D01*
G37*
G36*
X151200621Y-78407865D02*
G01*
X151143912Y-78489160D01*
X151097097Y-78553149D01*
X151068246Y-78588896D01*
X151064443Y-78592384D01*
X151040220Y-78616889D01*
X150993078Y-78670271D01*
X150932289Y-78741976D01*
X150918869Y-78758119D01*
X150784682Y-78890529D01*
X150605954Y-79020871D01*
X150389041Y-79146375D01*
X150140300Y-79264272D01*
X149866086Y-79371793D01*
X149572757Y-79466169D01*
X149266667Y-79544630D01*
X148989578Y-79598680D01*
X148883003Y-79612499D01*
X148743851Y-79625030D01*
X148583924Y-79635777D01*
X148415027Y-79644248D01*
X148248963Y-79649947D01*
X148097534Y-79652380D01*
X147972545Y-79651053D01*
X147885799Y-79645471D01*
X147882464Y-79645043D01*
X147555880Y-79598990D01*
X147260942Y-79551582D01*
X146978432Y-79499506D01*
X146689133Y-79439450D01*
X146686272Y-79438827D01*
X146622645Y-79424956D01*
X146686272Y-79405696D01*
X146747922Y-79394283D01*
X146836070Y-79386146D01*
X146892171Y-79383899D01*
X147088830Y-79362363D01*
X147307154Y-79307405D01*
X147535135Y-79223775D01*
X147760763Y-79116223D01*
X147972029Y-78989498D01*
X148073346Y-78916741D01*
X148159471Y-78844111D01*
X148265365Y-78745034D01*
X148378104Y-78632078D01*
X148484767Y-78517815D01*
X148493286Y-78508279D01*
X148735069Y-78236571D01*
X150026533Y-78236321D01*
X151317997Y-78236071D01*
X151200621Y-78407865D01*
G37*
G36*
X145546354Y-74480893D02*
G01*
X145614080Y-74493774D01*
X145833878Y-74553599D01*
X146039856Y-74637343D01*
X146223699Y-74740029D01*
X146377089Y-74856681D01*
X146491711Y-74982322D01*
X146528815Y-75041182D01*
X146558960Y-75102207D01*
X146592444Y-75177566D01*
X146623422Y-75252915D01*
X146646048Y-75313908D01*
X146654479Y-75346201D01*
X146653842Y-75348033D01*
X146628087Y-75354406D01*
X146563992Y-75368389D01*
X146473107Y-75387489D01*
X146424861Y-75397435D01*
X146204499Y-75464245D01*
X145979704Y-75571847D01*
X145762132Y-75712742D01*
X145563440Y-75879431D01*
X145402388Y-76055346D01*
X145312993Y-76183115D01*
X145228050Y-76330520D01*
X145155680Y-76481324D01*
X145104007Y-76619288D01*
X145086893Y-76686127D01*
X145068061Y-76782114D01*
X145044327Y-76902172D01*
X145020799Y-77020467D01*
X145020590Y-77021514D01*
X145000789Y-77138261D01*
X144986463Y-77256169D01*
X144980631Y-77350243D01*
X144980620Y-77352376D01*
X144956634Y-77608376D01*
X144885772Y-77848077D01*
X144767034Y-78073769D01*
X144599423Y-78287738D01*
X144549252Y-78340185D01*
X144354947Y-78508454D01*
X144147432Y-78637337D01*
X143934663Y-78722301D01*
X143838660Y-78745120D01*
X143749517Y-78756517D01*
X143634352Y-78764091D01*
X143506356Y-78767820D01*
X143378719Y-78767682D01*
X143264632Y-78763656D01*
X143177286Y-78755720D01*
X143134869Y-78746279D01*
X143106935Y-78722871D01*
X143076757Y-78670828D01*
X143041361Y-78583621D01*
X142997775Y-78454722D01*
X142987822Y-78423394D01*
X142928400Y-78231275D01*
X142883472Y-78073375D01*
X142851113Y-77936730D01*
X142829398Y-77808381D01*
X142816402Y-77675365D01*
X142810202Y-77524720D01*
X142808871Y-77343485D01*
X142809544Y-77222794D01*
X142812398Y-77051386D01*
X142817862Y-76884282D01*
X142825359Y-76733053D01*
X142834313Y-76609271D01*
X142844148Y-76524510D01*
X142844416Y-76522894D01*
X142918071Y-76211097D01*
X143031100Y-75903653D01*
X143178336Y-75609847D01*
X143354610Y-75338965D01*
X143554752Y-75100292D01*
X143724250Y-74942342D01*
X143983002Y-74761203D01*
X144268880Y-74619584D01*
X144575018Y-74519113D01*
X144894553Y-74461422D01*
X145220620Y-74448139D01*
X145546354Y-74480893D01*
G37*
G36*
X164075601Y-78117412D02*
G01*
X164078798Y-78126702D01*
X164043787Y-78130249D01*
X164007656Y-78126250D01*
X164011973Y-78117412D01*
X164064080Y-78114051D01*
X164075601Y-78117412D01*
G37*
G36*
X150062836Y-72345256D02*
G01*
X150457289Y-72525613D01*
X150806292Y-72722163D01*
X151113504Y-72937714D01*
X151382585Y-73175073D01*
X151617197Y-73437047D01*
X151780077Y-73662500D01*
X151841325Y-73758086D01*
X151890371Y-73839026D01*
X151921336Y-73895338D01*
X151929158Y-73915545D01*
X151921362Y-73949882D01*
X151900498Y-74019863D01*
X151870347Y-74113103D01*
X151854226Y-74160906D01*
X151764142Y-74476231D01*
X151695106Y-74831001D01*
X151648584Y-75217679D01*
X151648371Y-75220140D01*
X151634087Y-75444223D01*
X151632626Y-75655266D01*
X151644722Y-75870532D01*
X151671114Y-76107281D01*
X151692630Y-76257107D01*
X151707919Y-76369928D01*
X151717039Y-76463859D01*
X151719134Y-76527751D01*
X151715128Y-76549792D01*
X151686524Y-76553859D01*
X151612114Y-76557969D01*
X151496995Y-76562006D01*
X151346262Y-76565856D01*
X151165011Y-76569405D01*
X150958339Y-76572536D01*
X150731342Y-76575137D01*
X150508174Y-76576966D01*
X149320440Y-76584895D01*
X149320035Y-76017046D01*
X149316855Y-75750025D01*
X149306556Y-75520958D01*
X149287369Y-75317178D01*
X149257528Y-75126020D01*
X149215268Y-74934817D01*
X149158823Y-74730905D01*
X149125670Y-74623204D01*
X149059635Y-74438269D01*
X148974183Y-74235076D01*
X148876021Y-74027141D01*
X148771860Y-73827981D01*
X148668406Y-73651114D01*
X148574845Y-73513328D01*
X148468253Y-73380401D01*
X148342686Y-73237317D01*
X148207006Y-73093016D01*
X148070075Y-72956441D01*
X147940756Y-72836534D01*
X147827909Y-72742238D01*
X147767935Y-72699138D01*
X147691513Y-72647459D01*
X147633961Y-72604934D01*
X147606951Y-72580222D01*
X147606487Y-72579339D01*
X147580596Y-72557461D01*
X147523057Y-72522513D01*
X147470339Y-72494405D01*
X147403045Y-72457778D01*
X147361115Y-72429998D01*
X147353394Y-72419383D01*
X147382019Y-72417727D01*
X147445769Y-72424019D01*
X147514993Y-72434343D01*
X147590274Y-72442707D01*
X147704762Y-72450046D01*
X147846763Y-72455862D01*
X148004586Y-72459656D01*
X148136973Y-72460905D01*
X148587739Y-72449323D01*
X149011768Y-72411114D01*
X149426751Y-72344494D01*
X149555080Y-72318064D01*
X149845474Y-72255279D01*
X150062836Y-72345256D01*
G37*
G36*
X158901902Y-74477356D02*
G01*
X159112863Y-74491721D01*
X159289928Y-74515835D01*
X159449804Y-74553907D01*
X159609194Y-74610146D01*
X159784803Y-74688762D01*
X159831663Y-74711647D01*
X160090329Y-74860021D01*
X160313633Y-75033833D01*
X160506031Y-75238208D01*
X160671983Y-75478274D01*
X160815947Y-75759158D01*
X160882438Y-75920039D01*
X160924220Y-76037799D01*
X160967667Y-76175546D01*
X161007406Y-76314786D01*
X161038065Y-76437024D01*
X161050655Y-76499047D01*
X161064759Y-76581763D01*
X159995658Y-76581763D01*
X159733679Y-76581646D01*
X159518034Y-76581172D01*
X159344156Y-76580152D01*
X159207477Y-76578400D01*
X159103429Y-76575727D01*
X159027446Y-76571947D01*
X158974959Y-76566870D01*
X158941402Y-76560312D01*
X158922207Y-76552082D01*
X158912806Y-76541995D01*
X158910702Y-76537224D01*
X158872785Y-76441368D01*
X158827045Y-76341012D01*
X158780390Y-76249818D01*
X158739728Y-76181452D01*
X158716116Y-76152344D01*
X158681524Y-76110621D01*
X158673647Y-76085937D01*
X158655080Y-76043098D01*
X158604900Y-75977398D01*
X158531386Y-75897592D01*
X158442818Y-75812437D01*
X158347473Y-75730688D01*
X158310191Y-75701581D01*
X158181939Y-75611596D01*
X158056512Y-75540958D01*
X157919464Y-75483310D01*
X157756350Y-75432298D01*
X157617412Y-75396770D01*
X157505142Y-75369257D01*
X157412618Y-75345543D01*
X157350152Y-75328339D01*
X157328185Y-75320696D01*
X157335109Y-75295952D01*
X157361975Y-75238862D01*
X157403216Y-75161126D01*
X157409162Y-75150438D01*
X157551128Y-74946856D01*
X157728764Y-74778778D01*
X157940657Y-74646843D01*
X158185393Y-74551687D01*
X158461557Y-74493949D01*
X158767737Y-74474265D01*
X158901902Y-74477356D01*
G37*
G36*
X143835771Y-74125751D02*
G01*
X143823045Y-74138476D01*
X143810320Y-74125751D01*
X143823045Y-74113025D01*
X143835771Y-74125751D01*
G37*
G36*
X149309921Y-65702486D02*
G01*
X149796414Y-65765227D01*
X150276878Y-65863890D01*
X150338476Y-65879353D01*
X150617056Y-65957413D01*
X150851276Y-66038181D01*
X151047679Y-66124656D01*
X151212806Y-66219840D01*
X151353199Y-66326733D01*
X151393281Y-66363248D01*
X151580288Y-66539730D01*
X151732500Y-66680922D01*
X151850922Y-66787722D01*
X151936554Y-66861030D01*
X151990399Y-66901744D01*
X151999877Y-66907405D01*
X152038669Y-66946619D01*
X152090480Y-67025611D01*
X152151408Y-67136152D01*
X152217556Y-67270010D01*
X152285023Y-67418955D01*
X152349909Y-67574759D01*
X152408314Y-67729190D01*
X152453540Y-67864829D01*
X152493426Y-67998302D01*
X152519835Y-68100865D01*
X152535307Y-68189923D01*
X152542381Y-68282883D01*
X152543599Y-68397150D01*
X152542689Y-68475651D01*
X152512915Y-68901751D01*
X152436154Y-69308781D01*
X152311738Y-69698777D01*
X152138999Y-70073777D01*
X151917269Y-70435821D01*
X151884910Y-70481902D01*
X151787172Y-70608491D01*
X151660349Y-70757135D01*
X151514457Y-70917298D01*
X151359513Y-71078446D01*
X151205534Y-71230046D01*
X151062537Y-71361563D01*
X150988727Y-71424368D01*
X150868474Y-71518049D01*
X150722054Y-71624747D01*
X150559718Y-71737671D01*
X150391716Y-71850030D01*
X150228299Y-71955033D01*
X150079718Y-72045887D01*
X149956223Y-72115802D01*
X149908152Y-72140274D01*
X149699646Y-72222721D01*
X149446758Y-72291847D01*
X149154463Y-72346780D01*
X148827737Y-72386649D01*
X148471554Y-72410581D01*
X148340580Y-72415038D01*
X148190910Y-72418056D01*
X148047167Y-72419456D01*
X147922604Y-72419213D01*
X147830473Y-72417300D01*
X147806112Y-72416091D01*
X147635958Y-72399937D01*
X147455362Y-72374171D01*
X147279938Y-72341663D01*
X147125301Y-72305281D01*
X147014126Y-72270595D01*
X146852550Y-72209854D01*
X146953930Y-72166100D01*
X147027486Y-72135836D01*
X147128821Y-72096017D01*
X147237884Y-72054501D01*
X147254420Y-72048334D01*
X147572076Y-71909856D01*
X147897340Y-71729856D01*
X148221095Y-71514890D01*
X148534225Y-71271510D01*
X148827614Y-71006271D01*
X149088881Y-70729500D01*
X149376348Y-70365594D01*
X149613463Y-69995707D01*
X149800505Y-69619111D01*
X149937753Y-69235078D01*
X150025486Y-68842880D01*
X150063981Y-68441788D01*
X150063028Y-68182965D01*
X150052445Y-67996754D01*
X150035061Y-67833583D01*
X150007691Y-67686070D01*
X149967151Y-67546831D01*
X149910256Y-67408484D01*
X149833823Y-67263646D01*
X149734667Y-67104933D01*
X149609603Y-66924964D01*
X149455447Y-66716355D01*
X149397369Y-66639601D01*
X149224843Y-66446418D01*
X149012964Y-66264052D01*
X148773163Y-66099819D01*
X148516867Y-65961038D01*
X148255506Y-65855026D01*
X148102462Y-65810544D01*
X148007331Y-65785894D01*
X147947431Y-65765885D01*
X147925136Y-65749443D01*
X147942820Y-65735494D01*
X148002856Y-65722964D01*
X148107619Y-65710778D01*
X148259480Y-65697861D01*
X148369555Y-65689649D01*
X148830076Y-65676886D01*
X149309921Y-65702486D01*
G37*
G36*
X155418961Y-65682207D02*
G01*
X155640615Y-65694870D01*
X155829054Y-65714493D01*
X155882379Y-65722602D01*
X156389274Y-65825633D01*
X156855297Y-65957528D01*
X157280160Y-66118158D01*
X157663573Y-66307394D01*
X158005249Y-66525106D01*
X158304897Y-66771166D01*
X158369091Y-66832997D01*
X158604788Y-67094809D01*
X158794770Y-67368776D01*
X158944076Y-67663187D01*
X159046064Y-67946569D01*
X159072543Y-68040867D01*
X159091853Y-68128919D01*
X159105491Y-68222970D01*
X159114954Y-68335266D01*
X159121741Y-68478052D01*
X159125518Y-68596269D01*
X159137624Y-69022299D01*
X159052241Y-69270718D01*
X158960460Y-69496970D01*
X158850907Y-69685455D01*
X158715298Y-69848415D01*
X158576920Y-69973138D01*
X158400365Y-70098342D01*
X158227546Y-70181562D01*
X158043490Y-70228152D01*
X157833226Y-70243468D01*
X157821041Y-70243509D01*
X157549890Y-70227566D01*
X157294171Y-70177455D01*
X157045456Y-70090108D01*
X156795319Y-69962452D01*
X156535334Y-69791419D01*
X156491098Y-69758960D01*
X156382798Y-69678418D01*
X156492597Y-69608785D01*
X156581632Y-69540522D01*
X156680950Y-69445909D01*
X156779305Y-69337731D01*
X156865452Y-69228771D01*
X156928144Y-69131815D01*
X156947058Y-69092143D01*
X156993448Y-68935983D01*
X157024129Y-68741805D01*
X157039422Y-68506289D01*
X157039648Y-68226111D01*
X157037625Y-68155652D01*
X157028960Y-67957870D01*
X157016225Y-67799966D01*
X156997034Y-67670941D01*
X156969000Y-67559800D01*
X156929736Y-67455545D01*
X156876857Y-67347179D01*
X156852417Y-67302128D01*
X156658671Y-66980165D01*
X156458549Y-66705664D01*
X156247845Y-66475233D01*
X156022355Y-66285478D01*
X155777873Y-66133007D01*
X155510194Y-66014425D01*
X155215114Y-65926341D01*
X155121696Y-65905577D01*
X154954062Y-65878782D01*
X154757798Y-65859777D01*
X154551287Y-65849385D01*
X154352914Y-65848426D01*
X154181063Y-65857722D01*
X154143386Y-65861871D01*
X153952504Y-65885780D01*
X154245190Y-65889232D01*
X154605778Y-65908837D01*
X154952455Y-65957731D01*
X155280402Y-66033977D01*
X155584801Y-66135639D01*
X155860833Y-66260783D01*
X156103679Y-66407471D01*
X156308520Y-66573769D01*
X156470539Y-66757741D01*
X156495114Y-66793080D01*
X156534460Y-66856111D01*
X156558127Y-66901964D01*
X156561222Y-66912875D01*
X156540037Y-66911300D01*
X156482800Y-66890677D01*
X156398989Y-66854722D01*
X156325801Y-66820605D01*
X156108381Y-66729626D01*
X155893301Y-66669651D01*
X155663735Y-66637069D01*
X155428657Y-66628185D01*
X155128373Y-66646975D01*
X154861999Y-66703432D01*
X154628994Y-66797757D01*
X154428811Y-66930149D01*
X154316180Y-67036557D01*
X154222541Y-67139434D01*
X154155274Y-67218989D01*
X154105073Y-67288210D01*
X154062631Y-67360080D01*
X154018642Y-67447585D01*
X154012695Y-67460008D01*
X153952428Y-67603391D01*
X153909677Y-67749203D01*
X153882767Y-67908462D01*
X153870025Y-68092187D01*
X153869776Y-68311398D01*
X153871915Y-68386572D01*
X153895184Y-68725745D01*
X153943185Y-69034032D01*
X154019767Y-69326965D01*
X154128778Y-69620078D01*
X154234440Y-69849999D01*
X154360820Y-70085854D01*
X154502855Y-70308407D01*
X154667886Y-70527476D01*
X154863255Y-70752877D01*
X155072282Y-70970459D01*
X155335455Y-71220792D01*
X155591569Y-71435391D01*
X155854506Y-71624918D01*
X156138146Y-71800034D01*
X156192417Y-71830817D01*
X156435900Y-71967269D01*
X155754122Y-71982949D01*
X155469723Y-71991254D01*
X155227330Y-72002603D01*
X155018094Y-72017922D01*
X154833162Y-72038137D01*
X154663685Y-72064172D01*
X154500810Y-72096953D01*
X154375331Y-72127118D01*
X154278467Y-72151114D01*
X154200067Y-72169177D01*
X154153601Y-72178246D01*
X154148093Y-72178757D01*
X154114112Y-72167667D01*
X154049755Y-72138683D01*
X153974177Y-72100764D01*
X153845418Y-72027692D01*
X153688982Y-71930096D01*
X153516410Y-71815901D01*
X153339243Y-71693032D01*
X153169022Y-71569416D01*
X153017288Y-71452976D01*
X152944404Y-71393616D01*
X152653318Y-71129427D01*
X152380750Y-70838219D01*
X152191204Y-70607482D01*
X152027234Y-70397831D01*
X152193900Y-70060288D01*
X152260843Y-69919817D01*
X152325661Y-69775158D01*
X152381650Y-69641829D01*
X152422106Y-69535348D01*
X152427252Y-69520136D01*
X152517686Y-69186698D01*
X152572702Y-68848847D01*
X152592166Y-68514992D01*
X152575944Y-68193544D01*
X152523902Y-67892911D01*
X152456728Y-67673947D01*
X152405525Y-67549359D01*
X152339782Y-67405190D01*
X152267193Y-67256988D01*
X152195452Y-67120302D01*
X152132252Y-67010681D01*
X152115756Y-66984865D01*
X152052495Y-66889271D01*
X152162620Y-66748945D01*
X152223944Y-66676136D01*
X152278910Y-66620081D01*
X152315630Y-66592900D01*
X152315662Y-66592888D01*
X152353933Y-66568641D01*
X152416418Y-66518677D01*
X152490933Y-66452861D01*
X152506512Y-66438378D01*
X152581142Y-66372874D01*
X152645945Y-66324030D01*
X152689165Y-66300513D01*
X152694768Y-66299598D01*
X152734400Y-66288225D01*
X152805845Y-66257841D01*
X152896359Y-66214051D01*
X152936584Y-66193228D01*
X153056059Y-66134669D01*
X153186319Y-66077824D01*
X153301836Y-66033739D01*
X153316232Y-66028936D01*
X153394000Y-66001440D01*
X153440651Y-65980405D01*
X153448331Y-65969540D01*
X153443486Y-65968856D01*
X153413921Y-65964294D01*
X153415232Y-65962652D01*
X153518152Y-65962652D01*
X153543169Y-65966727D01*
X153576179Y-65962048D01*
X153576573Y-65953360D01*
X153542510Y-65947285D01*
X153527792Y-65951351D01*
X153518152Y-65962652D01*
X153415232Y-65962652D01*
X153425305Y-65950038D01*
X153447594Y-65937201D01*
X153645407Y-65937201D01*
X153670423Y-65941277D01*
X153703434Y-65936597D01*
X153703828Y-65927909D01*
X153669765Y-65921834D01*
X153655047Y-65925900D01*
X153645407Y-65937201D01*
X153447594Y-65937201D01*
X153459579Y-65930298D01*
X153510785Y-65908299D01*
X153808993Y-65908299D01*
X153842797Y-65912705D01*
X153850701Y-65912873D01*
X153894166Y-65910122D01*
X153897993Y-65902155D01*
X153895724Y-65901141D01*
X153845199Y-65896106D01*
X153819371Y-65900198D01*
X153808993Y-65908299D01*
X153510785Y-65908299D01*
X153547401Y-65892568D01*
X153674111Y-65851468D01*
X153828096Y-65809990D01*
X153997740Y-65771126D01*
X154171431Y-65737867D01*
X154263906Y-65723131D01*
X154458161Y-65701061D01*
X154683691Y-65685930D01*
X154927601Y-65677741D01*
X155176990Y-65676499D01*
X155418961Y-65682207D01*
G37*
G36*
X147424348Y-71911522D02*
G01*
X147411623Y-71924248D01*
X147398897Y-71911522D01*
X147411623Y-71898797D01*
X147424348Y-71911522D01*
G37*
G36*
X147701838Y-65785565D02*
G01*
X147704308Y-65800884D01*
X147718165Y-65823485D01*
X147766270Y-65827347D01*
X147802133Y-65823517D01*
X147907530Y-65824707D01*
X148046902Y-65849304D01*
X148210545Y-65894578D01*
X148388756Y-65957799D01*
X148571831Y-66036238D01*
X148592009Y-66045753D01*
X148696603Y-66096828D01*
X148780285Y-66142397D01*
X148853542Y-66190311D01*
X148926856Y-66248419D01*
X149010713Y-66324572D01*
X149115597Y-66426619D01*
X149161372Y-66472054D01*
X149261071Y-66572557D01*
X149346677Y-66661318D01*
X149412185Y-66731907D01*
X149451586Y-66777897D01*
X149460420Y-66792097D01*
X149448604Y-66804443D01*
X149409481Y-66801224D01*
X149337539Y-66781060D01*
X149227268Y-66742570D01*
X149155009Y-66715634D01*
X149082532Y-66689141D01*
X149020144Y-66670118D01*
X148957300Y-66657374D01*
X148883453Y-66649716D01*
X148788059Y-66645955D01*
X148660572Y-66644897D01*
X148531462Y-66645186D01*
X148365667Y-66646558D01*
X148239394Y-66649968D01*
X148141267Y-66656576D01*
X148059915Y-66667545D01*
X147983964Y-66684035D01*
X147902041Y-66707207D01*
X147891079Y-66710549D01*
X147636747Y-66811652D01*
X147419076Y-66947622D01*
X147238574Y-67118035D01*
X147095748Y-67322473D01*
X147052525Y-67406713D01*
X146986065Y-67571163D01*
X146938544Y-67745357D01*
X146908080Y-67940112D01*
X146892794Y-68166248D01*
X146890107Y-68340960D01*
X146890870Y-68488068D01*
X146894206Y-68597956D01*
X146902003Y-68684301D01*
X146916153Y-68760781D01*
X146938543Y-68841071D01*
X146971063Y-68938850D01*
X146973797Y-68946787D01*
X147081897Y-69203773D01*
X147213640Y-69415987D01*
X147369308Y-69583883D01*
X147369766Y-69584281D01*
X147487975Y-69686975D01*
X147374411Y-69789461D01*
X147269547Y-69868267D01*
X147126189Y-69953013D01*
X146955398Y-70037997D01*
X146768235Y-70117523D01*
X146659071Y-70158013D01*
X146485315Y-70204774D01*
X146295694Y-70232014D01*
X146106455Y-70238952D01*
X145933846Y-70224807D01*
X145820261Y-70198323D01*
X145589317Y-70098756D01*
X145385708Y-69964164D01*
X145217757Y-69800280D01*
X145187822Y-69762712D01*
X145057932Y-69563982D01*
X144951410Y-69345203D01*
X144876369Y-69124495D01*
X144852155Y-69013050D01*
X144835411Y-68852933D01*
X144831533Y-68663079D01*
X144839576Y-68461444D01*
X144858599Y-68265984D01*
X144887660Y-68094652D01*
X144903746Y-68030260D01*
X145005203Y-67749234D01*
X145146578Y-67468203D01*
X145320876Y-67196538D01*
X145521101Y-66943612D01*
X145740257Y-66718795D01*
X145971347Y-66531459D01*
X146072206Y-66465029D01*
X146114095Y-66439394D01*
X146184382Y-66396380D01*
X146268046Y-66345179D01*
X146270177Y-66343875D01*
X146373934Y-66284452D01*
X146498439Y-66218966D01*
X146617543Y-66161146D01*
X146622631Y-66158819D01*
X146720468Y-66116870D01*
X146843072Y-66068245D01*
X146981063Y-66016231D01*
X147125061Y-65964113D01*
X147265684Y-65915175D01*
X147393551Y-65872703D01*
X147499283Y-65839981D01*
X147573498Y-65820296D01*
X147601464Y-65816031D01*
X147643383Y-65805565D01*
X147653406Y-65790580D01*
X147672774Y-65765869D01*
X147678857Y-65765130D01*
X147701838Y-65785565D01*
G37*
%TD*%
M02*
