%TF.GenerationSoftware,KiCad,Pcbnew,9.0.1*%
%TF.CreationDate,2025-07-13T22:34:50-07:00*%
%TF.ProjectId,defcon33_keychhain,64656663-6f6e-4333-935f-6b6579636868,rev?*%
%TF.SameCoordinates,Original*%
%TF.FileFunction,Legend,Bot*%
%TF.FilePolarity,Positive*%
%FSLAX46Y46*%
G04 Gerber Fmt 4.6, Leading zero omitted, Abs format (unit mm)*
G04 Created by KiCad (PCBNEW 9.0.1) date 2025-07-13 22:34:50*
%MOMM*%
%LPD*%
G01*
G04 APERTURE LIST*
%ADD10C,0.000000*%
G04 APERTURE END LIST*
D10*
%TO.C,G\u002A\u002A\u002A*%
G36*
X149175868Y-86674821D02*
G01*
X149173367Y-86935888D01*
X149171954Y-86965911D01*
X149157472Y-87160533D01*
X149132356Y-87325127D01*
X149092004Y-87477650D01*
X149031813Y-87636060D01*
X148947180Y-87818315D01*
X148945009Y-87822645D01*
X148906720Y-87898995D01*
X148854860Y-87993466D01*
X148801943Y-88074191D01*
X148738923Y-88153282D01*
X148656755Y-88242852D01*
X148546394Y-88355012D01*
X148496593Y-88404520D01*
X148391806Y-88504997D01*
X148304194Y-88580859D01*
X148221561Y-88641382D01*
X148131710Y-88695842D01*
X148022446Y-88753514D01*
X147832266Y-88843751D01*
X147653161Y-88912650D01*
X147481750Y-88958981D01*
X147301926Y-88987984D01*
X147162634Y-89001887D01*
X146977598Y-89009633D01*
X146804576Y-89000960D01*
X146621643Y-88975466D01*
X146369203Y-88915553D01*
X146068692Y-88799525D01*
X145790965Y-88641554D01*
X145539846Y-88445211D01*
X145319158Y-88214064D01*
X145132723Y-87951683D01*
X144984365Y-87661636D01*
X144877907Y-87347495D01*
X144847250Y-87187775D01*
X144827865Y-86983639D01*
X144823604Y-86767573D01*
X144833180Y-86588838D01*
X145005194Y-86588838D01*
X145023691Y-86680076D01*
X145084819Y-86759861D01*
X145147809Y-86806065D01*
X145202079Y-86820746D01*
X145258205Y-86798679D01*
X145331387Y-86738551D01*
X145426454Y-86651352D01*
X145955467Y-86920380D01*
X146036566Y-86961547D01*
X146188676Y-87037964D01*
X146304404Y-87094306D01*
X146389783Y-87133012D01*
X146450841Y-87156523D01*
X146493609Y-87167279D01*
X146524118Y-87167720D01*
X146548398Y-87160285D01*
X146612781Y-87137385D01*
X146666004Y-87133628D01*
X146686274Y-87154398D01*
X146683406Y-87158581D01*
X146647724Y-87185437D01*
X146576356Y-87231633D01*
X146475753Y-87293192D01*
X146352365Y-87366136D01*
X146212643Y-87446486D01*
X146050277Y-87538137D01*
X145925288Y-87606453D01*
X145831841Y-87653112D01*
X145763671Y-87680037D01*
X145714515Y-87689150D01*
X145678109Y-87682374D01*
X145648188Y-87661631D01*
X145618489Y-87628844D01*
X145562281Y-87594376D01*
X145486257Y-87598267D01*
X145404435Y-87642027D01*
X145380198Y-87665162D01*
X145342802Y-87738674D01*
X145340256Y-87819744D01*
X145368519Y-87894647D01*
X145423549Y-87949655D01*
X145501305Y-87971042D01*
X145559300Y-87981130D01*
X145581499Y-88017509D01*
X145566303Y-88085915D01*
X145554625Y-88162871D01*
X145566602Y-88251169D01*
X145597459Y-88329530D01*
X145641978Y-88377823D01*
X145681488Y-88393978D01*
X145757128Y-88393601D01*
X145817463Y-88350216D01*
X145857400Y-88268777D01*
X145871845Y-88154240D01*
X145870722Y-88128692D01*
X145868478Y-88103740D01*
X145868313Y-88081754D01*
X145873469Y-88060565D01*
X145887185Y-88038003D01*
X145912701Y-88011898D01*
X145953258Y-87980080D01*
X146012096Y-87940380D01*
X146092456Y-87890629D01*
X146197577Y-87828656D01*
X146330700Y-87752291D01*
X146495065Y-87659365D01*
X146693913Y-87547709D01*
X146869544Y-87449298D01*
X147064398Y-87449298D01*
X147065915Y-87452293D01*
X147098196Y-87476683D01*
X147167410Y-87519176D01*
X147266885Y-87575935D01*
X147389945Y-87643123D01*
X147529917Y-87716904D01*
X147560791Y-87732917D01*
X147703130Y-87806887D01*
X147831381Y-87873768D01*
X147937763Y-87929488D01*
X148014495Y-87969973D01*
X148053795Y-87991148D01*
X148071729Y-88001665D01*
X148095272Y-88024464D01*
X148094265Y-88058705D01*
X148071040Y-88122094D01*
X148067655Y-88130611D01*
X148046445Y-88195603D01*
X148047780Y-88243133D01*
X148071768Y-88298849D01*
X148072828Y-88300875D01*
X148115366Y-88362451D01*
X148161016Y-88402953D01*
X148214449Y-88423568D01*
X148300854Y-88418857D01*
X148382971Y-88363632D01*
X148394414Y-88351897D01*
X148428261Y-88306034D01*
X148440254Y-88253062D01*
X148436339Y-88171578D01*
X148431283Y-88108732D01*
X148435735Y-88060712D01*
X148459583Y-88033097D01*
X148510552Y-88008962D01*
X148566592Y-87972760D01*
X148623915Y-87902864D01*
X148656550Y-87822645D01*
X148654673Y-87749769D01*
X148634986Y-87705518D01*
X148570114Y-87629403D01*
X148487366Y-87594386D01*
X148397004Y-87603180D01*
X148309294Y-87658498D01*
X148237044Y-87727718D01*
X147788650Y-87503954D01*
X147340256Y-87280191D01*
X147203107Y-87352019D01*
X147140886Y-87387288D01*
X147086095Y-87424913D01*
X147064398Y-87449298D01*
X146869544Y-87449298D01*
X146930483Y-87415152D01*
X147208017Y-87259524D01*
X147281045Y-87218514D01*
X147499054Y-87095862D01*
X147702450Y-86981101D01*
X147886974Y-86876654D01*
X148048369Y-86784944D01*
X148182375Y-86708396D01*
X148284736Y-86649431D01*
X148351192Y-86610475D01*
X148377486Y-86593950D01*
X148413865Y-86573859D01*
X148467225Y-86584302D01*
X148539548Y-86634869D01*
X148571110Y-86658964D01*
X148656666Y-86695187D01*
X148735848Y-86681328D01*
X148811687Y-86617189D01*
X148840767Y-86579480D01*
X148867728Y-86518545D01*
X148865940Y-86448602D01*
X148842669Y-86370380D01*
X148788123Y-86295715D01*
X148713325Y-86260890D01*
X148683198Y-86252067D01*
X148665778Y-86222771D01*
X148666008Y-86159066D01*
X148666257Y-86155452D01*
X148659781Y-86064044D01*
X148635871Y-85975453D01*
X148618335Y-85941033D01*
X148559260Y-85880608D01*
X148488025Y-85857909D01*
X148414132Y-85868299D01*
X148347084Y-85907145D01*
X148296383Y-85969810D01*
X148271531Y-86051659D01*
X148282032Y-86148057D01*
X148284963Y-86158093D01*
X148296583Y-86220491D01*
X148292838Y-86258470D01*
X148271617Y-86277329D01*
X148215598Y-86314528D01*
X148141394Y-86358343D01*
X148064245Y-86400224D01*
X147999394Y-86431622D01*
X147962083Y-86443988D01*
X147956870Y-86441753D01*
X147943709Y-86403881D01*
X147935919Y-86318130D01*
X147933348Y-86183116D01*
X147932579Y-86085186D01*
X147927766Y-85987907D01*
X147916048Y-85913405D01*
X147894615Y-85845654D01*
X147860655Y-85768630D01*
X147825488Y-85702013D01*
X147704835Y-85535504D01*
X147553795Y-85391650D01*
X147386173Y-85284538D01*
X147374166Y-85278676D01*
X147304182Y-85247072D01*
X147241728Y-85226893D01*
X147172200Y-85215611D01*
X147080995Y-85210695D01*
X146953508Y-85209619D01*
X146919732Y-85209768D01*
X146758832Y-85217267D01*
X146630464Y-85240099D01*
X146519720Y-85283818D01*
X146411694Y-85353972D01*
X146291477Y-85456112D01*
X146220724Y-85526956D01*
X146093000Y-85703181D01*
X146011766Y-85899083D01*
X145978019Y-86112573D01*
X145976439Y-86188778D01*
X145992074Y-86388360D01*
X146037055Y-86552154D01*
X146043761Y-86576740D01*
X146031127Y-86593804D01*
X145987739Y-86586516D01*
X145909511Y-86553921D01*
X145792355Y-86495065D01*
X145757229Y-86476448D01*
X145645556Y-86412630D01*
X145578099Y-86364229D01*
X145552199Y-86329018D01*
X145565198Y-86304771D01*
X145579862Y-86285720D01*
X145590723Y-86227088D01*
X145585088Y-86151372D01*
X145563132Y-86077867D01*
X145560690Y-86072746D01*
X145502196Y-86006466D01*
X145419487Y-85974239D01*
X145330877Y-85983504D01*
X145258963Y-86031942D01*
X145219746Y-86115199D01*
X145217027Y-86233125D01*
X145218796Y-86249494D01*
X145221209Y-86313894D01*
X145207290Y-86347839D01*
X145171459Y-86367820D01*
X145085620Y-86419426D01*
X145026711Y-86498004D01*
X145005194Y-86588838D01*
X144833180Y-86588838D01*
X144834787Y-86558841D01*
X144861735Y-86376703D01*
X144861940Y-86375749D01*
X144956079Y-86055852D01*
X145094120Y-85759219D01*
X145273201Y-85489019D01*
X145490460Y-85248424D01*
X145743036Y-85040604D01*
X146028065Y-84868731D01*
X146342686Y-84735974D01*
X146401800Y-84716748D01*
X146463324Y-84700503D01*
X146528721Y-84689114D01*
X146607395Y-84681733D01*
X146708753Y-84677510D01*
X146842197Y-84675599D01*
X147017135Y-84675150D01*
X147513428Y-84675150D01*
X147784596Y-84784296D01*
X147793014Y-84787693D01*
X147986505Y-84872108D01*
X148147725Y-84958551D01*
X148291617Y-85057222D01*
X148433129Y-85178320D01*
X148587206Y-85332045D01*
X148661711Y-85411605D01*
X148753047Y-85516977D01*
X148825435Y-85615035D01*
X148890413Y-85721949D01*
X148959517Y-85853891D01*
X149039068Y-86027041D01*
X149111633Y-86235142D01*
X149156261Y-86446154D01*
X149162468Y-86518545D01*
X149175868Y-86674821D01*
G37*
G36*
X151430240Y-84971694D02*
G01*
X151752218Y-85028993D01*
X152054224Y-85124082D01*
X152332295Y-85255000D01*
X152582471Y-85419787D01*
X152800790Y-85616484D01*
X152983289Y-85843131D01*
X153126007Y-86097768D01*
X153164141Y-86188997D01*
X153243497Y-86461358D01*
X153278407Y-86742266D01*
X153269981Y-87024612D01*
X153219327Y-87301289D01*
X153127556Y-87565188D01*
X152995775Y-87809203D01*
X152825094Y-88026225D01*
X152773007Y-88079779D01*
X152561474Y-88264550D01*
X152332344Y-88412453D01*
X152078784Y-88526726D01*
X151793961Y-88610601D01*
X151471043Y-88667315D01*
X151456571Y-88668905D01*
X151361414Y-88673173D01*
X151232242Y-88672581D01*
X151082731Y-88667823D01*
X150926557Y-88659589D01*
X150777395Y-88648571D01*
X150648921Y-88635463D01*
X150554811Y-88620955D01*
X150488812Y-88604803D01*
X150372192Y-88569857D01*
X150239105Y-88524905D01*
X150102618Y-88474796D01*
X149975798Y-88424382D01*
X149871712Y-88378513D01*
X149803427Y-88342039D01*
X149794712Y-88336249D01*
X149772136Y-88317847D01*
X149756896Y-88293003D01*
X149747566Y-88252825D01*
X149742719Y-88188420D01*
X149740929Y-88090898D01*
X149740771Y-87951367D01*
X149740917Y-87916813D01*
X149743351Y-87789651D01*
X149748296Y-87682004D01*
X149755141Y-87604334D01*
X149763272Y-87567099D01*
X149763526Y-87566706D01*
X149781720Y-87556417D01*
X149819017Y-87559790D01*
X149882149Y-87578846D01*
X149977844Y-87615608D01*
X150112832Y-87672096D01*
X150198085Y-87707688D01*
X150462768Y-87805229D01*
X150700598Y-87870062D01*
X150919705Y-87903585D01*
X151128218Y-87907198D01*
X151334266Y-87882299D01*
X151547090Y-87827135D01*
X151773558Y-87728385D01*
X151969312Y-87596302D01*
X152129482Y-87434275D01*
X152249198Y-87245691D01*
X152255047Y-87233632D01*
X152286432Y-87163665D01*
X152306433Y-87101223D01*
X152317542Y-87031703D01*
X152322252Y-86940505D01*
X152323056Y-86813026D01*
X152322996Y-86791980D01*
X152321296Y-86670893D01*
X152315582Y-86584566D01*
X152303393Y-86518892D01*
X152282267Y-86459767D01*
X152249740Y-86393086D01*
X152215601Y-86330013D01*
X152119879Y-86183800D01*
X152011726Y-86066997D01*
X151877671Y-85964072D01*
X151831192Y-85933862D01*
X151693862Y-85856805D01*
X151557336Y-85802576D01*
X151408920Y-85767898D01*
X151235923Y-85749494D01*
X151025652Y-85744088D01*
X151018824Y-85744091D01*
X150839844Y-85747590D01*
X150688262Y-85759894D01*
X150549748Y-85784276D01*
X150409977Y-85824012D01*
X150254621Y-85882375D01*
X150069353Y-85962639D01*
X150014303Y-85987035D01*
X149922891Y-86025675D01*
X149854110Y-86052304D01*
X149819736Y-86062224D01*
X149816403Y-86060995D01*
X149805140Y-86030228D01*
X149797321Y-85956209D01*
X149792762Y-85836414D01*
X149791284Y-85668322D01*
X149791093Y-85569455D01*
X149791967Y-85440526D01*
X149798454Y-85348416D01*
X149815313Y-85284357D01*
X149847303Y-85239577D01*
X149899184Y-85205306D01*
X149975715Y-85172774D01*
X150081655Y-85133210D01*
X150162913Y-85103958D01*
X150370804Y-85042509D01*
X150590345Y-84998346D01*
X150840771Y-84967264D01*
X151092252Y-84954145D01*
X151430240Y-84971694D01*
G37*
G36*
X164089987Y-88051110D02*
G01*
X164087985Y-88241079D01*
X164085718Y-88396662D01*
X164083226Y-88513728D01*
X164080548Y-88588149D01*
X164077723Y-88615798D01*
X164048416Y-88621052D01*
X163975037Y-88625314D01*
X163864693Y-88628518D01*
X163724402Y-88630691D01*
X163561183Y-88631863D01*
X163382054Y-88632061D01*
X163194035Y-88631313D01*
X163004143Y-88629647D01*
X162819398Y-88627093D01*
X162646817Y-88623677D01*
X162493420Y-88619429D01*
X162366225Y-88614376D01*
X162272251Y-88608546D01*
X162113977Y-88592876D01*
X161925942Y-88563620D01*
X161757209Y-88521156D01*
X161589569Y-88460625D01*
X161404818Y-88377173D01*
X161376795Y-88363321D01*
X161130292Y-88212735D01*
X160922929Y-88029893D01*
X160755515Y-87815812D01*
X160628863Y-87571508D01*
X160543783Y-87297997D01*
X160525133Y-87191668D01*
X160508385Y-86995338D01*
X160507552Y-86847704D01*
X161442260Y-86847704D01*
X161471042Y-87084209D01*
X161541004Y-87322044D01*
X161600179Y-87445591D01*
X161724416Y-87612421D01*
X161884540Y-87749628D01*
X162074358Y-87852288D01*
X162287676Y-87915478D01*
X162386675Y-87929195D01*
X162521717Y-87941112D01*
X162674413Y-87950143D01*
X162827976Y-87955502D01*
X162965619Y-87956406D01*
X163070555Y-87952070D01*
X163178985Y-87942638D01*
X163172359Y-86817912D01*
X163165732Y-85693186D01*
X162836822Y-85686030D01*
X162742303Y-85684936D01*
X162495059Y-85693865D01*
X162285375Y-85721919D01*
X162105578Y-85770432D01*
X161947992Y-85840740D01*
X161857625Y-85897721D01*
X161705544Y-86036466D01*
X161586299Y-86206911D01*
X161501557Y-86402981D01*
X161452988Y-86618604D01*
X161442260Y-86847704D01*
X160507552Y-86847704D01*
X160507178Y-86781539D01*
X160520810Y-86566958D01*
X160548581Y-86368284D01*
X160589790Y-86202204D01*
X160592086Y-86195311D01*
X160706448Y-85931853D01*
X160862268Y-85696188D01*
X161056987Y-85490605D01*
X161288045Y-85317391D01*
X161552882Y-85178833D01*
X161848936Y-85077219D01*
X161878295Y-85069473D01*
X161939760Y-85053970D01*
X161997422Y-85041486D01*
X162057359Y-85031675D01*
X162125649Y-85024191D01*
X162208372Y-85018687D01*
X162311604Y-85014819D01*
X162441426Y-85012238D01*
X162603914Y-85010600D01*
X162805147Y-85009559D01*
X163051203Y-85008768D01*
X163068579Y-85008721D01*
X163284604Y-85008648D01*
X163485222Y-85009495D01*
X163664516Y-85011169D01*
X163816571Y-85013579D01*
X163935473Y-85016632D01*
X164015304Y-85020237D01*
X164050151Y-85024301D01*
X164055130Y-85027002D01*
X164063084Y-85036131D01*
X164069898Y-85053786D01*
X164075660Y-85083499D01*
X164080457Y-85128802D01*
X164084378Y-85193226D01*
X164087510Y-85280302D01*
X164089941Y-85393561D01*
X164091757Y-85536535D01*
X164093046Y-85712754D01*
X164093897Y-85925750D01*
X164094396Y-86179054D01*
X164094631Y-86476197D01*
X164094690Y-86820711D01*
X164094573Y-87029928D01*
X164094018Y-87316162D01*
X164093043Y-87584522D01*
X164091686Y-87830881D01*
X164090824Y-87942638D01*
X164089987Y-88051110D01*
G37*
G36*
X159776682Y-85646413D02*
G01*
X159777025Y-85659907D01*
X159781539Y-85867973D01*
X159785304Y-86099787D01*
X159788318Y-86349127D01*
X159790581Y-86609774D01*
X159792093Y-86875507D01*
X159792852Y-87140106D01*
X159792857Y-87397350D01*
X159792109Y-87641020D01*
X159790605Y-87864896D01*
X159788346Y-88062756D01*
X159785331Y-88228381D01*
X159781558Y-88355550D01*
X159777028Y-88438043D01*
X159760568Y-88632765D01*
X158443093Y-88632765D01*
X157125617Y-88632765D01*
X157108101Y-88529088D01*
X157105904Y-88513100D01*
X157101268Y-88428429D01*
X157102065Y-88318109D01*
X157108285Y-88201775D01*
X157125985Y-87978138D01*
X157982532Y-87959544D01*
X158133348Y-87956157D01*
X158325002Y-87951505D01*
X158495471Y-87946970D01*
X158638813Y-87942729D01*
X158749088Y-87938961D01*
X158820353Y-87935845D01*
X158846668Y-87933560D01*
X158848783Y-87922085D01*
X158851430Y-87868691D01*
X158853143Y-87781502D01*
X158853968Y-87671101D01*
X158853955Y-87548070D01*
X158853150Y-87422991D01*
X158851602Y-87306447D01*
X158849358Y-87209019D01*
X158846465Y-87141292D01*
X158842972Y-87113846D01*
X158835424Y-87112356D01*
X158785230Y-87108737D01*
X158693420Y-87104467D01*
X158566187Y-87099765D01*
X158409725Y-87094850D01*
X158230227Y-87089940D01*
X158033887Y-87085255D01*
X157235672Y-87067535D01*
X157235672Y-86749398D01*
X157235672Y-86431262D01*
X158037376Y-86418537D01*
X158839079Y-86405811D01*
X158852908Y-86214930D01*
X158858025Y-86108414D01*
X158859506Y-85971548D01*
X158855875Y-85852593D01*
X158845014Y-85681138D01*
X158002167Y-85674437D01*
X157159320Y-85667735D01*
X157152222Y-85346685D01*
X157145125Y-85025636D01*
X157241300Y-85009741D01*
X157282092Y-85006695D01*
X157369647Y-85003668D01*
X157497457Y-85000912D01*
X157660046Y-84998495D01*
X157851938Y-84996484D01*
X158067657Y-84994947D01*
X158301729Y-84993952D01*
X158548676Y-84993566D01*
X159759876Y-84993286D01*
X159776682Y-85646413D01*
G37*
G36*
X155457288Y-84994218D02*
G01*
X155658855Y-84995122D01*
X155844469Y-84996691D01*
X156007143Y-84998924D01*
X156139886Y-85001823D01*
X156235711Y-85005389D01*
X156287626Y-85009622D01*
X156383067Y-85025397D01*
X156383067Y-86812114D01*
X156382942Y-87028752D01*
X156382380Y-87315347D01*
X156381399Y-87583988D01*
X156380040Y-87830556D01*
X156378341Y-88050932D01*
X156376341Y-88240998D01*
X156374078Y-88396637D01*
X156371590Y-88513728D01*
X156368918Y-88588155D01*
X156366100Y-88615798D01*
X156349026Y-88619948D01*
X156287753Y-88625048D01*
X156190740Y-88629110D01*
X156066781Y-88631795D01*
X155924668Y-88632765D01*
X155500203Y-88632765D01*
X155483612Y-88270090D01*
X155477369Y-88106085D01*
X155471972Y-87908286D01*
X155468303Y-87708575D01*
X155466928Y-87532014D01*
X155466835Y-87156613D01*
X154735121Y-87156265D01*
X154700916Y-87156233D01*
X154512352Y-87155447D01*
X154339516Y-87153745D01*
X154189443Y-87151267D01*
X154069166Y-87148152D01*
X153985721Y-87144540D01*
X153946143Y-87140572D01*
X153945251Y-87140332D01*
X153922064Y-87131792D01*
X153906301Y-87115239D01*
X153896532Y-87082093D01*
X153891326Y-87023778D01*
X153889252Y-86931717D01*
X153888879Y-86797332D01*
X153888879Y-86469439D01*
X154620592Y-86469091D01*
X154655440Y-86469058D01*
X154843698Y-86468313D01*
X155016009Y-86466710D01*
X155165383Y-86464379D01*
X155284829Y-86461453D01*
X155367355Y-86458062D01*
X155405971Y-86454338D01*
X155416130Y-86451150D01*
X155439742Y-86434800D01*
X155454889Y-86400040D01*
X155464826Y-86336045D01*
X155472807Y-86231990D01*
X155472953Y-86229660D01*
X155477280Y-86102742D01*
X155476240Y-85969576D01*
X155470044Y-85858617D01*
X155454109Y-85693186D01*
X154677857Y-85680461D01*
X153901604Y-85667735D01*
X153894510Y-85347099D01*
X153887416Y-85026463D01*
X154121115Y-85009875D01*
X154186741Y-85006421D01*
X154304279Y-85002698D01*
X154454789Y-84999634D01*
X154631280Y-84997229D01*
X154826765Y-84995484D01*
X155034254Y-84994400D01*
X155246758Y-84993978D01*
X155457288Y-84994218D01*
G37*
G36*
X141258283Y-84995267D02*
G01*
X141359704Y-84998481D01*
X141432199Y-85004912D01*
X141545191Y-85021856D01*
X141548429Y-85815637D01*
X141548657Y-85864749D01*
X141550234Y-86077086D01*
X141552658Y-86284918D01*
X141555764Y-86478965D01*
X141559386Y-86649949D01*
X141563359Y-86788590D01*
X141567517Y-86885608D01*
X141583368Y-87161798D01*
X141812426Y-86899198D01*
X141842212Y-86865041D01*
X141938295Y-86754775D01*
X142055855Y-86619778D01*
X142186318Y-86469900D01*
X142321111Y-86314988D01*
X142451659Y-86164893D01*
X142486819Y-86124478D01*
X142627708Y-85962838D01*
X142776260Y-85792820D01*
X142922225Y-85626135D01*
X143055351Y-85474491D01*
X143165386Y-85349599D01*
X143468937Y-85006012D01*
X143798697Y-84998433D01*
X143807442Y-84998238D01*
X143939557Y-84996664D01*
X144059478Y-84997581D01*
X144154315Y-85000754D01*
X144211173Y-85005949D01*
X144293889Y-85021044D01*
X144293889Y-86809937D01*
X144293758Y-87028362D01*
X144293174Y-87315084D01*
X144292158Y-87583845D01*
X144290751Y-87830528D01*
X144288992Y-88051015D01*
X144286922Y-88241188D01*
X144284580Y-88396930D01*
X144282008Y-88514123D01*
X144279244Y-88588649D01*
X144276328Y-88616391D01*
X144259777Y-88620401D01*
X144199008Y-88624795D01*
X144102446Y-88627501D01*
X143978930Y-88628306D01*
X143837300Y-88626996D01*
X143415833Y-88620040D01*
X143403107Y-87521382D01*
X143401266Y-87376148D01*
X143397799Y-87153548D01*
X143393848Y-86950036D01*
X143389561Y-86770914D01*
X143385084Y-86621484D01*
X143380567Y-86507049D01*
X143376156Y-86432909D01*
X143371999Y-86404368D01*
X143366650Y-86400623D01*
X143358648Y-86401128D01*
X143345608Y-86408906D01*
X143324970Y-86426803D01*
X143294175Y-86457667D01*
X143250661Y-86504343D01*
X143191869Y-86569678D01*
X143115237Y-86656518D01*
X143018207Y-86767710D01*
X142898217Y-86906101D01*
X142752708Y-87074536D01*
X142579118Y-87275862D01*
X142374889Y-87512926D01*
X142259796Y-87646496D01*
X142104519Y-87826551D01*
X141958756Y-87995401D01*
X141826455Y-88148485D01*
X141711563Y-88281237D01*
X141618027Y-88389095D01*
X141549795Y-88467495D01*
X141510815Y-88511873D01*
X141403054Y-88632765D01*
X141030903Y-88632765D01*
X140658753Y-88632765D01*
X140642034Y-88448246D01*
X140641523Y-88442086D01*
X140638236Y-88372163D01*
X140635616Y-88261046D01*
X140633631Y-88113851D01*
X140632251Y-87935696D01*
X140631444Y-87731696D01*
X140631179Y-87506967D01*
X140631425Y-87266627D01*
X140632150Y-87015791D01*
X140633324Y-86759577D01*
X140634916Y-86503100D01*
X140636894Y-86251477D01*
X140639226Y-86009824D01*
X140641883Y-85783258D01*
X140644832Y-85576895D01*
X140648043Y-85395852D01*
X140651484Y-85245244D01*
X140655125Y-85130189D01*
X140658933Y-85055803D01*
X140662878Y-85027203D01*
X140665382Y-85025474D01*
X140706709Y-85016160D01*
X140785866Y-85008127D01*
X140891728Y-85001699D01*
X141013169Y-84997198D01*
X141139063Y-84994947D01*
X141258283Y-84995267D01*
G37*
G36*
X146354062Y-86200577D02*
G01*
X146370905Y-86234664D01*
X146356594Y-86289074D01*
X146345235Y-86329679D01*
X146357841Y-86411667D01*
X146403445Y-86504833D01*
X146475577Y-86599647D01*
X146567767Y-86686575D01*
X146673548Y-86756087D01*
X146690589Y-86764325D01*
X146810157Y-86799278D01*
X146948814Y-86811606D01*
X147085218Y-86800878D01*
X147198030Y-86766664D01*
X147293451Y-86707335D01*
X147414237Y-86593923D01*
X147505146Y-86460728D01*
X147532864Y-86399481D01*
X147541796Y-86346254D01*
X147526673Y-86294985D01*
X147516675Y-86271092D01*
X147512531Y-86228868D01*
X147542629Y-86196314D01*
X147576385Y-86179151D01*
X147622945Y-86176192D01*
X147637336Y-86181081D01*
X147680940Y-86189479D01*
X147698888Y-86197985D01*
X147701255Y-86230430D01*
X147685273Y-86294371D01*
X147649817Y-86397332D01*
X147626923Y-86452854D01*
X147534251Y-86608091D01*
X147412819Y-86741406D01*
X147274870Y-86838398D01*
X147231347Y-86858007D01*
X147087096Y-86894773D01*
X146925065Y-86904471D01*
X146764000Y-86886990D01*
X146622646Y-86842222D01*
X146481235Y-86751603D01*
X146357900Y-86622197D01*
X146269650Y-86469439D01*
X146255785Y-86436356D01*
X146220951Y-86355264D01*
X146193990Y-86295087D01*
X146187272Y-86279816D01*
X146181696Y-86235298D01*
X146214626Y-86199646D01*
X146246679Y-86179250D01*
X146305321Y-86167098D01*
X146354062Y-86200577D01*
G37*
G36*
X147394842Y-85695754D02*
G01*
X147419553Y-85715574D01*
X147472559Y-85792909D01*
X147482276Y-85878719D01*
X147449476Y-85960256D01*
X147374931Y-86024773D01*
X147362913Y-86031279D01*
X147310308Y-86055616D01*
X147269701Y-86057355D01*
X147213623Y-86038905D01*
X147155991Y-86010244D01*
X147089962Y-85940649D01*
X147068037Y-85845921D01*
X147086047Y-85767415D01*
X147140352Y-85701671D01*
X147218425Y-85663904D01*
X147307507Y-85659978D01*
X147394842Y-85695754D01*
G37*
G36*
X146648611Y-85669766D02*
G01*
X146725607Y-85717480D01*
X146776614Y-85794165D01*
X146781234Y-85880238D01*
X146735328Y-85969714D01*
X146705228Y-86002296D01*
X146652144Y-86029681D01*
X146571744Y-86036773D01*
X146515766Y-86034068D01*
X146455491Y-86014983D01*
X146408161Y-85969714D01*
X146370970Y-85904485D01*
X146355412Y-85841302D01*
X146361971Y-85795804D01*
X146404346Y-85725485D01*
X146474940Y-85678130D01*
X146560708Y-85658103D01*
X146648611Y-85669766D01*
G37*
%TD*%
M02*
