%TF.GenerationSoftware,KiCad,Pcbnew,9.0.1*%
%TF.CreationDate,2025-07-13T22:34:50-07:00*%
%TF.ProjectId,defcon33_keychhain,64656663-6f6e-4333-935f-6b6579636868,rev?*%
%TF.SameCoordinates,Original*%
%TF.FileFunction,Soldermask,Bot*%
%TF.FilePolarity,Negative*%
%FSLAX46Y46*%
G04 Gerber Fmt 4.6, Leading zero omitted, Abs format (unit mm)*
G04 Created by KiCad (PCBNEW 9.0.1) date 2025-07-13 22:34:50*
%MOMM*%
%LPD*%
G01*
G04 APERTURE LIST*
%ADD10C,0.000000*%
G04 APERTURE END LIST*
D10*
%TO.C,G\u002A\u002A\u002A*%
G36*
X165594855Y-94410446D02*
G01*
X165538719Y-94659541D01*
X165313680Y-95659764D01*
X165391360Y-95732327D01*
X165448602Y-95801779D01*
X165467402Y-95872271D01*
X165438498Y-95932084D01*
X165403285Y-95952477D01*
X165336282Y-95956711D01*
X165266374Y-95936419D01*
X165211371Y-95897699D01*
X165189079Y-95846653D01*
X165182784Y-95819971D01*
X165154517Y-95813829D01*
X165112726Y-95848096D01*
X165069764Y-95878940D01*
X165003014Y-95879034D01*
X164934570Y-95835370D01*
X164917864Y-95816137D01*
X164888876Y-95745134D01*
X164900028Y-95677254D01*
X164946049Y-95626358D01*
X165021666Y-95606312D01*
X165026433Y-95606232D01*
X165048627Y-95601360D01*
X165067288Y-95583612D01*
X165085236Y-95545607D01*
X165105291Y-95479960D01*
X165130274Y-95379288D01*
X165163002Y-95236207D01*
X165176951Y-95173050D01*
X165202461Y-95049900D01*
X165221064Y-94949124D01*
X165231158Y-94879777D01*
X165231142Y-94850913D01*
X165214163Y-94857812D01*
X165191860Y-94899097D01*
X165179569Y-94921424D01*
X165146776Y-94952093D01*
X165088841Y-94985890D01*
X164998040Y-95027112D01*
X164866649Y-95080057D01*
X164864860Y-95080756D01*
X164741903Y-95128479D01*
X164628937Y-95171811D01*
X164538422Y-95206005D01*
X164482817Y-95226312D01*
X164444601Y-95241873D01*
X164408745Y-95275383D01*
X164400101Y-95333201D01*
X164399756Y-95344604D01*
X164378422Y-95423223D01*
X164332138Y-95481633D01*
X164272334Y-95504509D01*
X164228630Y-95493760D01*
X164166247Y-95454231D01*
X164115586Y-95400450D01*
X164094690Y-95348283D01*
X164098897Y-95313011D01*
X164121037Y-95248326D01*
X164134580Y-95211464D01*
X164116678Y-95199098D01*
X164070866Y-95186329D01*
X164024309Y-95138001D01*
X163999018Y-95068884D01*
X164000155Y-94995328D01*
X164032881Y-94933681D01*
X164096466Y-94897577D01*
X164169336Y-94909098D01*
X164247226Y-94969858D01*
X164247440Y-94970087D01*
X164280622Y-95004554D01*
X164309645Y-95024564D01*
X164344851Y-95029376D01*
X164396581Y-95018247D01*
X164475178Y-94990436D01*
X164590983Y-94945201D01*
X164667336Y-94915186D01*
X164587301Y-94881341D01*
X164550838Y-94862366D01*
X164474883Y-94811440D01*
X164398788Y-94749700D01*
X164314897Y-94656434D01*
X164534853Y-94656434D01*
X164576078Y-94688054D01*
X164663360Y-94721893D01*
X164729280Y-94741791D01*
X164845440Y-94762620D01*
X164946020Y-94754808D01*
X165049099Y-94718181D01*
X165169353Y-94641877D01*
X165274515Y-94526273D01*
X165342875Y-94388494D01*
X165367389Y-94239144D01*
X165365121Y-94205984D01*
X165348364Y-94125022D01*
X165320008Y-94037479D01*
X165285699Y-93957428D01*
X165251078Y-93898940D01*
X165221788Y-93876085D01*
X165206164Y-93882653D01*
X165197393Y-93886340D01*
X165163628Y-93926553D01*
X165150435Y-93953053D01*
X165151162Y-93977890D01*
X165191131Y-93986999D01*
X165197883Y-93988335D01*
X165242270Y-94023539D01*
X165280134Y-94095711D01*
X165304781Y-94192736D01*
X165307223Y-94213018D01*
X165300525Y-94293704D01*
X165296106Y-94346936D01*
X165243459Y-94474116D01*
X165156776Y-94581289D01*
X165043554Y-94655184D01*
X164990302Y-94672797D01*
X164894136Y-94686930D01*
X164797247Y-94684625D01*
X164712326Y-94667664D01*
X164652066Y-94637833D01*
X164629159Y-94596916D01*
X164626091Y-94577564D01*
X164601012Y-94564881D01*
X164557897Y-94593366D01*
X164535390Y-94621796D01*
X164534853Y-94656434D01*
X164314897Y-94656434D01*
X164301827Y-94641904D01*
X164217058Y-94486661D01*
X164174245Y-94317706D01*
X164174257Y-94267780D01*
X164375934Y-94267780D01*
X164381293Y-94336488D01*
X164431215Y-94395951D01*
X164454665Y-94412035D01*
X164495925Y-94431612D01*
X164532969Y-94422483D01*
X164587551Y-94382822D01*
X164610335Y-94362282D01*
X164650010Y-94293704D01*
X164644216Y-94224991D01*
X164592690Y-94167114D01*
X164576688Y-94157141D01*
X164525373Y-94140117D01*
X164471798Y-94157612D01*
X164413192Y-94201262D01*
X164375934Y-94267780D01*
X164174257Y-94267780D01*
X164174288Y-94144139D01*
X164218092Y-93975062D01*
X164224980Y-93962956D01*
X164707418Y-93962956D01*
X164736053Y-94023266D01*
X164745699Y-94031421D01*
X164809399Y-94052221D01*
X164883420Y-94043540D01*
X164943351Y-94007264D01*
X164974725Y-93957425D01*
X164980149Y-93882653D01*
X164938929Y-93815968D01*
X164899829Y-93787706D01*
X164836060Y-93777801D01*
X164762077Y-93813467D01*
X164746731Y-93826588D01*
X164711930Y-93889714D01*
X164707418Y-93962956D01*
X164224980Y-93962956D01*
X164306558Y-93819575D01*
X164334896Y-93784357D01*
X164468100Y-93662472D01*
X164624021Y-93585357D01*
X164806915Y-93550725D01*
X164905394Y-93548207D01*
X165065392Y-93571336D01*
X165208056Y-93634662D01*
X165347035Y-93743045D01*
X165395213Y-93787643D01*
X165443080Y-93823896D01*
X165471812Y-93821241D01*
X165491574Y-93776108D01*
X165512531Y-93684926D01*
X165516809Y-93664555D01*
X165523131Y-93605923D01*
X165505915Y-93568877D01*
X165457231Y-93531408D01*
X165412145Y-93489782D01*
X165375470Y-93419024D01*
X165371629Y-93347477D01*
X165404191Y-93291294D01*
X165408540Y-93287834D01*
X165483154Y-93259539D01*
X165565010Y-93271946D01*
X165635883Y-93322594D01*
X165685798Y-93365704D01*
X165726384Y-93364342D01*
X165771202Y-93346083D01*
X165853747Y-93349221D01*
X165927155Y-93392084D01*
X165946551Y-93414704D01*
X165975612Y-93489208D01*
X165962082Y-93561537D01*
X165910742Y-93619432D01*
X165826369Y-93650635D01*
X165815578Y-93652673D01*
X165800759Y-93659609D01*
X165786544Y-93675232D01*
X165771633Y-93704098D01*
X165754730Y-93750760D01*
X165734534Y-93819775D01*
X165709747Y-93915696D01*
X165679071Y-94043078D01*
X165641206Y-94206477D01*
X165633783Y-94239144D01*
X165594855Y-94410446D01*
G37*
G36*
X144666892Y-95148733D02*
G01*
X144637337Y-95339110D01*
X144582036Y-95502823D01*
X144503006Y-95634604D01*
X144402262Y-95729187D01*
X144281822Y-95781305D01*
X144244819Y-95788280D01*
X144079607Y-95788439D01*
X143916922Y-95739631D01*
X143835530Y-95679612D01*
X143760183Y-95574347D01*
X143700354Y-95434990D01*
X143658712Y-95269710D01*
X143637925Y-95086676D01*
X143639402Y-94982765D01*
X143797596Y-94982765D01*
X143798754Y-95073463D01*
X143811047Y-95253137D01*
X143838128Y-95393304D01*
X143881675Y-95500868D01*
X143943366Y-95582736D01*
X143994631Y-95626507D01*
X144055170Y-95651080D01*
X144141188Y-95657214D01*
X144152887Y-95657068D01*
X144271884Y-95634570D01*
X144365993Y-95572481D01*
X144436503Y-95468967D01*
X144484704Y-95322197D01*
X144511885Y-95130337D01*
X144516656Y-95010925D01*
X144506691Y-94826488D01*
X144477442Y-94658213D01*
X144431070Y-94522346D01*
X144370243Y-94433802D01*
X144278331Y-94366398D01*
X144172686Y-94335903D01*
X144064961Y-94345437D01*
X143966808Y-94398118D01*
X143928554Y-94434811D01*
X143868057Y-94524015D01*
X143827488Y-94640157D01*
X143804713Y-94790614D01*
X143797596Y-94982765D01*
X143639402Y-94982765D01*
X143640663Y-94894058D01*
X143642869Y-94868019D01*
X143675741Y-94650838D01*
X143731573Y-94478322D01*
X143811321Y-94349312D01*
X143915943Y-94262648D01*
X144046394Y-94217170D01*
X144203632Y-94211720D01*
X144209933Y-94212278D01*
X144348766Y-94246538D01*
X144461777Y-94321535D01*
X144549968Y-94438583D01*
X144614342Y-94598995D01*
X144655903Y-94804086D01*
X144668686Y-94936959D01*
X144668059Y-95010925D01*
X144666892Y-95148733D01*
G37*
G36*
X143320255Y-95439063D02*
G01*
X143257916Y-95593058D01*
X143166940Y-95707312D01*
X143046795Y-95783026D01*
X143003166Y-95793695D01*
X142919189Y-95801070D01*
X142823323Y-95800021D01*
X142783141Y-95796482D01*
X142627625Y-95757453D01*
X142506437Y-95681447D01*
X142421088Y-95570279D01*
X142373091Y-95425759D01*
X142364458Y-95259304D01*
X142498027Y-95259304D01*
X142512202Y-95400258D01*
X142545186Y-95497503D01*
X142604719Y-95583694D01*
X142695521Y-95647094D01*
X142700223Y-95649419D01*
X142776109Y-95672946D01*
X142861012Y-95682570D01*
X142928171Y-95676178D01*
X143039838Y-95630851D01*
X143125417Y-95546726D01*
X143180181Y-95429365D01*
X143199405Y-95284330D01*
X143197426Y-95236533D01*
X143166635Y-95112794D01*
X143096978Y-95020726D01*
X142986420Y-94957204D01*
X142921739Y-94937729D01*
X142792575Y-94930843D01*
X142679165Y-94965589D01*
X142587966Y-95035937D01*
X142525434Y-95135853D01*
X142498027Y-95259304D01*
X142364458Y-95259304D01*
X142363960Y-95249700D01*
X142370862Y-95169340D01*
X142391419Y-95071369D01*
X142426374Y-95002667D01*
X142467471Y-94953473D01*
X142586975Y-94859586D01*
X142722741Y-94808758D01*
X142865812Y-94801974D01*
X143007235Y-94840216D01*
X143138056Y-94924469D01*
X143164765Y-94947643D01*
X143204729Y-94977937D01*
X143221527Y-94977314D01*
X143224951Y-94948478D01*
X143223382Y-94911553D01*
X143199659Y-94779307D01*
X143153811Y-94645598D01*
X143094103Y-94536453D01*
X143024922Y-94457574D01*
X142910466Y-94381648D01*
X142769772Y-94343678D01*
X142596611Y-94341219D01*
X142532984Y-94345843D01*
X142463192Y-94348484D01*
X142426725Y-94342653D01*
X142412771Y-94325651D01*
X142410522Y-94294781D01*
X142413458Y-94266796D01*
X142438425Y-94235755D01*
X142500472Y-94217395D01*
X142561346Y-94209365D01*
X142715210Y-94210369D01*
X142871413Y-94235324D01*
X143004911Y-94281071D01*
X143111443Y-94348653D01*
X143221375Y-94470483D01*
X143299656Y-94631336D01*
X143346481Y-94831644D01*
X143362046Y-95071843D01*
X143354491Y-95244124D01*
X143347430Y-95284330D01*
X143320255Y-95439063D01*
G37*
G36*
X141632032Y-94637435D02*
G01*
X141793518Y-94681663D01*
X141924878Y-94763559D01*
X142022802Y-94880374D01*
X142083983Y-95029354D01*
X142105111Y-95207748D01*
X142105101Y-95212560D01*
X142085914Y-95401586D01*
X142030656Y-95557221D01*
X141940190Y-95677815D01*
X141815380Y-95761719D01*
X141787776Y-95773412D01*
X141713048Y-95794426D01*
X141620670Y-95803742D01*
X141494290Y-95803488D01*
X141429065Y-95801308D01*
X141348099Y-95796133D01*
X141302529Y-95787048D01*
X141282449Y-95771454D01*
X141277957Y-95746754D01*
X141278664Y-95733972D01*
X141288839Y-95713674D01*
X141319232Y-95702259D01*
X141380066Y-95697170D01*
X141481564Y-95695852D01*
X141518432Y-95695331D01*
X141656762Y-95681005D01*
X141760131Y-95642901D01*
X141839208Y-95575398D01*
X141904658Y-95472875D01*
X141936235Y-95379352D01*
X141951454Y-95256926D01*
X141947894Y-95129090D01*
X141926140Y-95013639D01*
X141886777Y-94928364D01*
X141851427Y-94883484D01*
X141783798Y-94817508D01*
X141708474Y-94778270D01*
X141611311Y-94759810D01*
X141478165Y-94756167D01*
X141391830Y-94756734D01*
X141320769Y-94754494D01*
X141283279Y-94746748D01*
X141269691Y-94731128D01*
X141270335Y-94705265D01*
X141272518Y-94694150D01*
X141290735Y-94666037D01*
X141335081Y-94648649D01*
X141417937Y-94636191D01*
X141443726Y-94633628D01*
X141632032Y-94637435D01*
G37*
G36*
X141113561Y-95293279D02*
G01*
X141132837Y-95345441D01*
X141143546Y-95428156D01*
X140758998Y-95428156D01*
X140374450Y-95428156D01*
X140374450Y-95620728D01*
X140374450Y-95813301D01*
X140304460Y-95805247D01*
X140282354Y-95802209D01*
X140254869Y-95791273D01*
X140239536Y-95763633D01*
X140231771Y-95707897D01*
X140226992Y-95612675D01*
X140219514Y-95428156D01*
X140104330Y-95428156D01*
X140074175Y-95427935D01*
X140018736Y-95422894D01*
X139997256Y-95406100D01*
X139997279Y-95370891D01*
X140008739Y-95336564D01*
X140042961Y-95315535D01*
X140113578Y-95305801D01*
X140221744Y-95297975D01*
X140221744Y-94837695D01*
X140374450Y-94837695D01*
X140374450Y-95300901D01*
X140679861Y-95300901D01*
X140682989Y-95300901D01*
X140800484Y-95299815D01*
X140896587Y-95296955D01*
X140961461Y-95292747D01*
X140985272Y-95287620D01*
X140976506Y-95271317D01*
X140943941Y-95219015D01*
X140892129Y-95138405D01*
X140826169Y-95037187D01*
X140751161Y-94923065D01*
X140672204Y-94803741D01*
X140594398Y-94686917D01*
X140522843Y-94580295D01*
X140462639Y-94491578D01*
X140418886Y-94428468D01*
X140396683Y-94398667D01*
X140390200Y-94409790D01*
X140383794Y-94464710D01*
X140378818Y-94558589D01*
X140375596Y-94685045D01*
X140374450Y-94837695D01*
X140221744Y-94837695D01*
X140221744Y-94764969D01*
X140221744Y-94231964D01*
X140322050Y-94231964D01*
X140422356Y-94231964D01*
X140772243Y-94747344D01*
X140886765Y-94918493D01*
X140988999Y-95077276D01*
X141065106Y-95203048D01*
X141110522Y-95287620D01*
X141113561Y-95293279D01*
G37*
G36*
X151602428Y-94591256D02*
G01*
X151760119Y-94617563D01*
X151888726Y-94677337D01*
X151997979Y-94774467D01*
X152004954Y-94782615D01*
X152082384Y-94912390D01*
X152125586Y-95068681D01*
X152132600Y-95239404D01*
X152101466Y-95412478D01*
X152098960Y-95420422D01*
X152045232Y-95524576D01*
X151961157Y-95624647D01*
X151861632Y-95705718D01*
X151761554Y-95752868D01*
X151601413Y-95779128D01*
X151388328Y-95768133D01*
X151343495Y-95758610D01*
X151303347Y-95736073D01*
X151292887Y-95696269D01*
X151293772Y-95676867D01*
X151303411Y-95656897D01*
X151332355Y-95647552D01*
X151391097Y-95646430D01*
X151490131Y-95651130D01*
X151505357Y-95651955D01*
X151605249Y-95655042D01*
X151672845Y-95649635D01*
X151724471Y-95632944D01*
X151776454Y-95602176D01*
X151805666Y-95580375D01*
X151892641Y-95480640D01*
X151949487Y-95356930D01*
X151976156Y-95220047D01*
X151972602Y-95080787D01*
X151938777Y-94949951D01*
X151874635Y-94838335D01*
X151780129Y-94756739D01*
X151765623Y-94749092D01*
X151658620Y-94716393D01*
X151525017Y-94704699D01*
X151382437Y-94715822D01*
X151360882Y-94718763D01*
X151315402Y-94713466D01*
X151297218Y-94680404D01*
X151295974Y-94672835D01*
X151302848Y-94632404D01*
X151340582Y-94606658D01*
X151415686Y-94593099D01*
X151534670Y-94589225D01*
X151602428Y-94591256D01*
G37*
G36*
X150673094Y-94181355D02*
G01*
X150794928Y-94183202D01*
X150878320Y-94187388D01*
X150930689Y-94194648D01*
X150959453Y-94205714D01*
X150972028Y-94221320D01*
X150973252Y-94225584D01*
X150978820Y-94274084D01*
X150983338Y-94360472D01*
X150986369Y-94473939D01*
X150987476Y-94603679D01*
X150987476Y-94945780D01*
X150790231Y-94929541D01*
X150735103Y-94925844D01*
X150563863Y-94929234D01*
X150433117Y-94960004D01*
X150339987Y-95019787D01*
X150281596Y-95110214D01*
X150255066Y-95232915D01*
X150253256Y-95292948D01*
X150278307Y-95426496D01*
X150344784Y-95531073D01*
X150451243Y-95604926D01*
X150596239Y-95646307D01*
X150601969Y-95647113D01*
X150718574Y-95648670D01*
X150850044Y-95629644D01*
X150968388Y-95593971D01*
X150987981Y-95587973D01*
X151007992Y-95600672D01*
X151012927Y-95653338D01*
X151012927Y-95653937D01*
X151007222Y-95705908D01*
X150980344Y-95732148D01*
X150917486Y-95747223D01*
X150903486Y-95749626D01*
X150836885Y-95762736D01*
X150796594Y-95773357D01*
X150789854Y-95775541D01*
X150726939Y-95780055D01*
X150635366Y-95772706D01*
X150532182Y-95756126D01*
X150434430Y-95732948D01*
X150359153Y-95705804D01*
X150333911Y-95692833D01*
X150231469Y-95615930D01*
X150161202Y-95510755D01*
X150116215Y-95367710D01*
X150105274Y-95296409D01*
X150112282Y-95144732D01*
X150161563Y-95015883D01*
X150249260Y-94913565D01*
X150371515Y-94841485D01*
X150524471Y-94803347D01*
X150704271Y-94802856D01*
X150782738Y-94809856D01*
X150834200Y-94809936D01*
X150853560Y-94799904D01*
X150850613Y-94778105D01*
X150848291Y-94769742D01*
X150841398Y-94713843D01*
X150836582Y-94626467D01*
X150834771Y-94522567D01*
X150834771Y-94308316D01*
X150503909Y-94308316D01*
X150173047Y-94308316D01*
X150173047Y-94244689D01*
X150173047Y-94181062D01*
X150564813Y-94181062D01*
X150673094Y-94181355D01*
G37*
G36*
X149799606Y-95199098D02*
G01*
X149799559Y-95206551D01*
X149780510Y-95396816D01*
X149727740Y-95551570D01*
X149642003Y-95669312D01*
X149524049Y-95748541D01*
X149462303Y-95768208D01*
X149357098Y-95781751D01*
X149252701Y-95777814D01*
X149172426Y-95755908D01*
X149168289Y-95753708D01*
X149109627Y-95714326D01*
X149046845Y-95662068D01*
X148976855Y-95596789D01*
X148976855Y-95677903D01*
X148973886Y-95725396D01*
X148953482Y-95753273D01*
X148900502Y-95759018D01*
X148824149Y-95759018D01*
X148824149Y-95124706D01*
X148976083Y-95124706D01*
X148983159Y-95270161D01*
X149016941Y-95408170D01*
X149075026Y-95525543D01*
X149155011Y-95609088D01*
X149212269Y-95641500D01*
X149323926Y-95666889D01*
X149431283Y-95644799D01*
X149527834Y-95577282D01*
X149607072Y-95466392D01*
X149630925Y-95389105D01*
X149644340Y-95279140D01*
X149646599Y-95155391D01*
X149637382Y-95035986D01*
X149616370Y-94939059D01*
X149581358Y-94864003D01*
X149503712Y-94777326D01*
X149406683Y-94727499D01*
X149300394Y-94715064D01*
X149194971Y-94740563D01*
X149100537Y-94804537D01*
X149027216Y-94907529D01*
X148998115Y-94984998D01*
X148976083Y-95124706D01*
X148824149Y-95124706D01*
X148824149Y-94919138D01*
X148824149Y-94079258D01*
X148887777Y-94079258D01*
X148894259Y-94079291D01*
X148926297Y-94083727D01*
X148943396Y-94103899D01*
X148950258Y-94151525D01*
X148951585Y-94238326D01*
X148952920Y-94313640D01*
X148958785Y-94444817D01*
X148967704Y-94566118D01*
X148983642Y-94734842D01*
X149070936Y-94675603D01*
X149140211Y-94637339D01*
X149277058Y-94599806D01*
X149418676Y-94601292D01*
X149551526Y-94640840D01*
X149662071Y-94717488D01*
X149704225Y-94767423D01*
X149759059Y-94876476D01*
X149790159Y-95017937D01*
X149797327Y-95155391D01*
X149799606Y-95199098D01*
G37*
G36*
X148519492Y-95048058D02*
G01*
X148504725Y-95238440D01*
X148468578Y-95407038D01*
X148447159Y-95467137D01*
X148374293Y-95600816D01*
X148280524Y-95700494D01*
X148172766Y-95757967D01*
X148083755Y-95777509D01*
X147929991Y-95776562D01*
X147790920Y-95730576D01*
X147673846Y-95641260D01*
X147669681Y-95636789D01*
X147608798Y-95559472D01*
X147564960Y-95472942D01*
X147535206Y-95366843D01*
X147516576Y-95230819D01*
X147506108Y-95054516D01*
X147505689Y-94982765D01*
X147647515Y-94982765D01*
X147649075Y-95087236D01*
X147660959Y-95244936D01*
X147686565Y-95367601D01*
X147728300Y-95464850D01*
X147788572Y-95546301D01*
X147813728Y-95570786D01*
X147912669Y-95630235D01*
X148022430Y-95652701D01*
X148126325Y-95633858D01*
X148203082Y-95584288D01*
X148279864Y-95481137D01*
X148331851Y-95333920D01*
X148358958Y-95142902D01*
X148361097Y-94908351D01*
X148354579Y-94806179D01*
X148326301Y-94625602D01*
X148277089Y-94489023D01*
X148205538Y-94394218D01*
X148110242Y-94338965D01*
X147989796Y-94321042D01*
X147981124Y-94321081D01*
X147908769Y-94328372D01*
X147853720Y-94355851D01*
X147792964Y-94414438D01*
X147752134Y-94464571D01*
X147702527Y-94554132D01*
X147670260Y-94663689D01*
X147652775Y-94803236D01*
X147647515Y-94982765D01*
X147505689Y-94982765D01*
X147504976Y-94860871D01*
X147521507Y-94671884D01*
X147558836Y-94519494D01*
X147618516Y-94397729D01*
X147702098Y-94300617D01*
X147815887Y-94225512D01*
X147949783Y-94187681D01*
X148086907Y-94191272D01*
X148216945Y-94234389D01*
X148329584Y-94315135D01*
X148414509Y-94431614D01*
X148444060Y-94500467D01*
X148488304Y-94663646D01*
X148513734Y-94851318D01*
X148515403Y-94908351D01*
X148519492Y-95048058D01*
G37*
G36*
X147231637Y-95008216D02*
G01*
X147223675Y-95197587D01*
X147190151Y-95398166D01*
X147130131Y-95556347D01*
X147043294Y-95672919D01*
X146929319Y-95748669D01*
X146877516Y-95765455D01*
X146763176Y-95781232D01*
X146642384Y-95778745D01*
X146541588Y-95757399D01*
X146464531Y-95715122D01*
X146369971Y-95618628D01*
X146294528Y-95485539D01*
X146240332Y-95322829D01*
X146209518Y-95137474D01*
X146205437Y-94982765D01*
X146368137Y-94982765D01*
X146370679Y-95116809D01*
X146384822Y-95280194D01*
X146413101Y-95406715D01*
X146457475Y-95504075D01*
X146519898Y-95579974D01*
X146567822Y-95611628D01*
X146662771Y-95642163D01*
X146766247Y-95650763D01*
X146854552Y-95633631D01*
X146917928Y-95594913D01*
X146988987Y-95507630D01*
X147038709Y-95380225D01*
X147067931Y-95210308D01*
X147077486Y-94995491D01*
X147075329Y-94873685D01*
X147062035Y-94715508D01*
X147034627Y-94592738D01*
X146990818Y-94496525D01*
X146928322Y-94418020D01*
X146921878Y-94411625D01*
X146862193Y-94361648D01*
X146802537Y-94339057D01*
X146717702Y-94333767D01*
X146695879Y-94334188D01*
X146587656Y-94353178D01*
X146503458Y-94403011D01*
X146441346Y-94487285D01*
X146399382Y-94609602D01*
X146375625Y-94773562D01*
X146368137Y-94982765D01*
X146205437Y-94982765D01*
X146204215Y-94936447D01*
X146226557Y-94726723D01*
X146268144Y-94560992D01*
X146340702Y-94404907D01*
X146437046Y-94289472D01*
X146554702Y-94216769D01*
X146691192Y-94188877D01*
X146844042Y-94207876D01*
X146906786Y-94229353D01*
X147025299Y-94304383D01*
X147116381Y-94418423D01*
X147180692Y-94572834D01*
X147218891Y-94768978D01*
X147230959Y-94995491D01*
X147231637Y-95008216D01*
G37*
G36*
X145943332Y-95084085D02*
G01*
X145941135Y-95135778D01*
X145932776Y-95259574D01*
X145919484Y-95352646D01*
X145898550Y-95430042D01*
X145867268Y-95506813D01*
X145834022Y-95570476D01*
X145737464Y-95690890D01*
X145617336Y-95767422D01*
X145579722Y-95774060D01*
X145505085Y-95777821D01*
X145413159Y-95776909D01*
X145280616Y-95760785D01*
X145169832Y-95714983D01*
X145083077Y-95632722D01*
X145009611Y-95506813D01*
X145007683Y-95502693D01*
X144981859Y-95443821D01*
X144963973Y-95389459D01*
X144952578Y-95328527D01*
X144946230Y-95249942D01*
X144943482Y-95142624D01*
X144942887Y-94995491D01*
X144942888Y-94984825D01*
X144943258Y-94907241D01*
X145075925Y-94907241D01*
X145076739Y-95096078D01*
X145098128Y-95270126D01*
X145138151Y-95420767D01*
X145194870Y-95539383D01*
X145266345Y-95617356D01*
X145308734Y-95638569D01*
X145406367Y-95655327D01*
X145513273Y-95645074D01*
X145608045Y-95608372D01*
X145631026Y-95592914D01*
X145690460Y-95532305D01*
X145733548Y-95447440D01*
X145762094Y-95331866D01*
X145777899Y-95179126D01*
X145782767Y-94982765D01*
X145782640Y-94919603D01*
X145780755Y-94796459D01*
X145775388Y-94707677D01*
X145764990Y-94641538D01*
X145748009Y-94586324D01*
X145722896Y-94530317D01*
X145713815Y-94512593D01*
X145638520Y-94410298D01*
X145542340Y-94352163D01*
X145418425Y-94333767D01*
X145326654Y-94346425D01*
X145235418Y-94397496D01*
X145165650Y-94489859D01*
X145115748Y-94625783D01*
X145084111Y-94807535D01*
X145075925Y-94907241D01*
X144943258Y-94907241D01*
X144943576Y-94840529D01*
X144946509Y-94735351D01*
X144953133Y-94658207D01*
X144964894Y-94598016D01*
X144983237Y-94543697D01*
X145009611Y-94484169D01*
X145060226Y-94391898D01*
X145146158Y-94294602D01*
X145254444Y-94236531D01*
X145394517Y-94210989D01*
X145510709Y-94212657D01*
X145651834Y-94251280D01*
X145765305Y-94332477D01*
X145851156Y-94456302D01*
X145909421Y-94622809D01*
X145940135Y-94832052D01*
X145942047Y-94982765D01*
X145943332Y-95084085D01*
G37*
G36*
X157146594Y-94537970D02*
G01*
X157146594Y-94920329D01*
X156949350Y-94904090D01*
X156786878Y-94899726D01*
X156640015Y-94920815D01*
X156531545Y-94970935D01*
X156458791Y-95051395D01*
X156419080Y-95163503D01*
X156417153Y-95174423D01*
X156415725Y-95314261D01*
X156457019Y-95433535D01*
X156535715Y-95527673D01*
X156646489Y-95592104D01*
X156784020Y-95622257D01*
X156942987Y-95613559D01*
X156999307Y-95602749D01*
X157078053Y-95584646D01*
X157127506Y-95569404D01*
X157147562Y-95562892D01*
X157167236Y-95575348D01*
X157172045Y-95627887D01*
X157172045Y-95628486D01*
X157166340Y-95680457D01*
X157139462Y-95706697D01*
X157076604Y-95721772D01*
X157062563Y-95724167D01*
X156995986Y-95736760D01*
X156955712Y-95746367D01*
X156894041Y-95758452D01*
X156776424Y-95754185D01*
X156648323Y-95725779D01*
X156527677Y-95677750D01*
X156432424Y-95614614D01*
X156416638Y-95599834D01*
X156334529Y-95494296D01*
X156289008Y-95368196D01*
X156275837Y-95210597D01*
X156282721Y-95126836D01*
X156327208Y-94991465D01*
X156410158Y-94886356D01*
X156528340Y-94813921D01*
X156678522Y-94776571D01*
X156857472Y-94776717D01*
X157019340Y-94793301D01*
X157019060Y-94633524D01*
X157017579Y-94560392D01*
X157011730Y-94457348D01*
X157003004Y-94378306D01*
X156987229Y-94282865D01*
X156659697Y-94282865D01*
X156332165Y-94282865D01*
X156332165Y-94219238D01*
X156332165Y-94155611D01*
X156739380Y-94155611D01*
X157146594Y-94155611D01*
X157146594Y-94537970D01*
G37*
G36*
X155857462Y-94327404D02*
G01*
X155860574Y-94362959D01*
X155868258Y-94484917D01*
X155872434Y-94610145D01*
X155873148Y-94727832D01*
X155870443Y-94827162D01*
X155864366Y-94897323D01*
X155854961Y-94927501D01*
X155834173Y-94929852D01*
X155774462Y-94925168D01*
X155693654Y-94912770D01*
X155642441Y-94904619D01*
X155470905Y-94899538D01*
X155329827Y-94934052D01*
X155220222Y-95007955D01*
X155178801Y-95052526D01*
X155150544Y-95099796D01*
X155138500Y-95159346D01*
X155135973Y-95250449D01*
X155138194Y-95339667D01*
X155149960Y-95399298D01*
X155178844Y-95447790D01*
X155232420Y-95505140D01*
X155279035Y-95547924D01*
X155357937Y-95596026D01*
X155454773Y-95620468D01*
X155581795Y-95625423D01*
X155727290Y-95607337D01*
X155854961Y-95569189D01*
X155874214Y-95562897D01*
X155894513Y-95574668D01*
X155899500Y-95626512D01*
X155894107Y-95675588D01*
X155867107Y-95706364D01*
X155804059Y-95728408D01*
X155632045Y-95755727D01*
X155457349Y-95749065D01*
X155297138Y-95709379D01*
X155165016Y-95638581D01*
X155150023Y-95626680D01*
X155060439Y-95522445D01*
X155004821Y-95395021D01*
X154983683Y-95256135D01*
X154997535Y-95117516D01*
X155046889Y-94990893D01*
X155132258Y-94887993D01*
X155209631Y-94839425D01*
X155336305Y-94795750D01*
X155475522Y-94776822D01*
X155607425Y-94786867D01*
X155721344Y-94811164D01*
X155721344Y-94547015D01*
X155721344Y-94282865D01*
X155390482Y-94282865D01*
X155059620Y-94282865D01*
X155059620Y-94219238D01*
X155059620Y-94155611D01*
X155450429Y-94155611D01*
X155841238Y-94155611D01*
X155857462Y-94327404D01*
G37*
G36*
X154686392Y-95012635D02*
G01*
X154676032Y-95174758D01*
X154669677Y-95219906D01*
X154622765Y-95412948D01*
X154549289Y-95563384D01*
X154449524Y-95670777D01*
X154323744Y-95734694D01*
X154287206Y-95744312D01*
X154137712Y-95754050D01*
X153997706Y-95718216D01*
X153874639Y-95641107D01*
X153775962Y-95527019D01*
X153709122Y-95380248D01*
X153678683Y-95234323D01*
X153664346Y-95059485D01*
X153665663Y-94944589D01*
X153825251Y-94944589D01*
X153825336Y-94995844D01*
X153827087Y-95127398D01*
X153832146Y-95223061D01*
X153841874Y-95294202D01*
X153857634Y-95352188D01*
X153880785Y-95408389D01*
X153883981Y-95415161D01*
X153946449Y-95512671D01*
X154020765Y-95580087D01*
X154040655Y-95591364D01*
X154154516Y-95625877D01*
X154265409Y-95612751D01*
X154365249Y-95554398D01*
X154445952Y-95453230D01*
X154469140Y-95402613D01*
X154503931Y-95274815D01*
X154525209Y-95119601D01*
X154532630Y-94951338D01*
X154525855Y-94784393D01*
X154504540Y-94633132D01*
X154468344Y-94511924D01*
X154443381Y-94462155D01*
X154362426Y-94363123D01*
X154264336Y-94305950D01*
X154157886Y-94290822D01*
X154051854Y-94317920D01*
X153955017Y-94387430D01*
X153876153Y-94499534D01*
X153871891Y-94508210D01*
X153851829Y-94558104D01*
X153838361Y-94615962D01*
X153830260Y-94692510D01*
X153826299Y-94798476D01*
X153825251Y-94944589D01*
X153665663Y-94944589D01*
X153666467Y-94874478D01*
X153684222Y-94694135D01*
X153716782Y-94533294D01*
X153763324Y-94406789D01*
X153817687Y-94322836D01*
X153920040Y-94230556D01*
X154040503Y-94176227D01*
X154170227Y-94159333D01*
X154300360Y-94179359D01*
X154422054Y-94235789D01*
X154526457Y-94328107D01*
X154604720Y-94455799D01*
X154628783Y-94524013D01*
X154661058Y-94670026D01*
X154680831Y-94838646D01*
X154684433Y-94951338D01*
X154686392Y-95012635D01*
G37*
G36*
X153287157Y-94337501D02*
G01*
X153288453Y-94350592D01*
X153296086Y-94459224D01*
X153301470Y-94589505D01*
X153303508Y-94716069D01*
X153303508Y-94938198D01*
X153078471Y-94925367D01*
X152959908Y-94922325D01*
X152807906Y-94935934D01*
X152696248Y-94974296D01*
X152621163Y-95039895D01*
X152578879Y-95135211D01*
X152565622Y-95262725D01*
X152583827Y-95400561D01*
X152639903Y-95507903D01*
X152733612Y-95581137D01*
X152864705Y-95620071D01*
X153032935Y-95624512D01*
X153131824Y-95615669D01*
X153218734Y-95604293D01*
X153273722Y-95592933D01*
X153306265Y-95584668D01*
X153326109Y-95596407D01*
X153324624Y-95646346D01*
X153305514Y-95703473D01*
X153252606Y-95736386D01*
X153161148Y-95751999D01*
X153037984Y-95757466D01*
X152908390Y-95751827D01*
X152791241Y-95735966D01*
X152705412Y-95710766D01*
X152654837Y-95683985D01*
X152536768Y-95586238D01*
X152456205Y-95462156D01*
X152416191Y-95320658D01*
X152419772Y-95170661D01*
X152469991Y-95021085D01*
X152472528Y-95016163D01*
X152549127Y-94909352D01*
X152651201Y-94839099D01*
X152784196Y-94802893D01*
X152953558Y-94798225D01*
X153150803Y-94808917D01*
X153150803Y-94558616D01*
X153150803Y-94308316D01*
X152819941Y-94308316D01*
X152489079Y-94308316D01*
X152489079Y-94244689D01*
X152489079Y-94181062D01*
X152879942Y-94181062D01*
X153270806Y-94181062D01*
X153287157Y-94337501D01*
G37*
G36*
X163569212Y-94324882D02*
G01*
X163576766Y-94435245D01*
X163583199Y-94579149D01*
X163585672Y-94706794D01*
X163585672Y-94893984D01*
X163373717Y-94877692D01*
X163275194Y-94873083D01*
X163114516Y-94884369D01*
X162993946Y-94923919D01*
X162910955Y-94993423D01*
X162863014Y-95094569D01*
X162847596Y-95229047D01*
X162848954Y-95299275D01*
X162858686Y-95364496D01*
X162883958Y-95413618D01*
X162931849Y-95466597D01*
X162945785Y-95479978D01*
X163069405Y-95560524D01*
X163215568Y-95596087D01*
X163382065Y-95586082D01*
X163438589Y-95574783D01*
X163517212Y-95556664D01*
X163566584Y-95542175D01*
X163577306Y-95538438D01*
X163604176Y-95543825D01*
X163611123Y-95589362D01*
X163607335Y-95632735D01*
X163587211Y-95664787D01*
X163539363Y-95686936D01*
X163452446Y-95707642D01*
X163307802Y-95723368D01*
X163145482Y-95709948D01*
X162995919Y-95666638D01*
X162870530Y-95596899D01*
X162780736Y-95504188D01*
X162744693Y-95434204D01*
X162708427Y-95302386D01*
X162698732Y-95162751D01*
X162718713Y-95038602D01*
X162757154Y-94957940D01*
X162847489Y-94859541D01*
X162970944Y-94789579D01*
X163119871Y-94751935D01*
X163286624Y-94750485D01*
X163432967Y-94765652D01*
X163432967Y-94511533D01*
X163432967Y-94257415D01*
X163104828Y-94257415D01*
X163085635Y-94257404D01*
X162953348Y-94256275D01*
X162862860Y-94252619D01*
X162806068Y-94245480D01*
X162774868Y-94233906D01*
X162761158Y-94216941D01*
X162755497Y-94194829D01*
X162759937Y-94153314D01*
X162769486Y-94148984D01*
X162821711Y-94141535D01*
X162910884Y-94135565D01*
X163027862Y-94131599D01*
X163163500Y-94130160D01*
X163552752Y-94130160D01*
X163569212Y-94324882D01*
G37*
G36*
X160824249Y-94134519D02*
G01*
X160976955Y-94142885D01*
X160996799Y-94321042D01*
X161005596Y-94434498D01*
X161010358Y-94573662D01*
X161009524Y-94702805D01*
X161007358Y-94758938D01*
X161001986Y-94838349D01*
X160992824Y-94881559D01*
X160976965Y-94898377D01*
X160951504Y-94898613D01*
X160948966Y-94898251D01*
X160895597Y-94893923D01*
X160810092Y-94889923D01*
X160709720Y-94887073D01*
X160549264Y-94895545D01*
X160425830Y-94930669D01*
X160341247Y-94994765D01*
X160292621Y-95090052D01*
X160277055Y-95218750D01*
X160280535Y-95293805D01*
X160308481Y-95407158D01*
X160369224Y-95491081D01*
X160468511Y-95555688D01*
X160480488Y-95561396D01*
X160560046Y-95591710D01*
X160639147Y-95602673D01*
X160742802Y-95598158D01*
X160815722Y-95590678D01*
X160907047Y-95578551D01*
X160970592Y-95566856D01*
X161007274Y-95559609D01*
X161034876Y-95569692D01*
X161040582Y-95615343D01*
X161039005Y-95639035D01*
X161016938Y-95679223D01*
X160957867Y-95705093D01*
X160955495Y-95705769D01*
X160838694Y-95725527D01*
X160700214Y-95729886D01*
X160563603Y-95719345D01*
X160452409Y-95694402D01*
X160406925Y-95676057D01*
X160279171Y-95591889D01*
X160188251Y-95475389D01*
X160137253Y-95331612D01*
X160129266Y-95165611D01*
X160154032Y-95040870D01*
X160219246Y-94920332D01*
X160322082Y-94833344D01*
X160461458Y-94780765D01*
X160636290Y-94763452D01*
X160636950Y-94763454D01*
X160728964Y-94765946D01*
X160801303Y-94771892D01*
X160838358Y-94780013D01*
X160843343Y-94780246D01*
X160853746Y-94747114D01*
X160858310Y-94664464D01*
X160856976Y-94533078D01*
X160849700Y-94270140D01*
X160525201Y-94263017D01*
X160432211Y-94260762D01*
X160327219Y-94256762D01*
X160259691Y-94250871D01*
X160221507Y-94241718D01*
X160204551Y-94227927D01*
X160200702Y-94208127D01*
X160202452Y-94193414D01*
X160217214Y-94174988D01*
X160254864Y-94162199D01*
X160324726Y-94152478D01*
X160436123Y-94143257D01*
X160469775Y-94140995D01*
X160599987Y-94134936D01*
X160725870Y-94132604D01*
X160824249Y-94134519D01*
G37*
G36*
X159798595Y-95250921D02*
G01*
X159787400Y-95323532D01*
X159768174Y-95387223D01*
X159738784Y-95455911D01*
X159696305Y-95533855D01*
X159601154Y-95646321D01*
X159488077Y-95715203D01*
X159486224Y-95715888D01*
X159390892Y-95733048D01*
X159272240Y-95730478D01*
X159152376Y-95710250D01*
X159053410Y-95674439D01*
X158996270Y-95637608D01*
X158900062Y-95535100D01*
X158835042Y-95405840D01*
X158804316Y-95261038D01*
X158805625Y-95231793D01*
X158951465Y-95231793D01*
X158966059Y-95351604D01*
X159011637Y-95455835D01*
X159020462Y-95468315D01*
X159076816Y-95531491D01*
X159132528Y-95573753D01*
X159192865Y-95595894D01*
X159306934Y-95607502D01*
X159419547Y-95588935D01*
X159509747Y-95541961D01*
X159516830Y-95535857D01*
X159598929Y-95435392D01*
X159645128Y-95318202D01*
X159655926Y-95195311D01*
X159631820Y-95077746D01*
X159573308Y-94976532D01*
X159480888Y-94902695D01*
X159477175Y-94900834D01*
X159391991Y-94875523D01*
X159286575Y-94865564D01*
X159183670Y-94871492D01*
X159106017Y-94893846D01*
X159070124Y-94918627D01*
X159005845Y-95001330D01*
X158965510Y-95110377D01*
X158951465Y-95231793D01*
X158805625Y-95231793D01*
X158810989Y-95111905D01*
X158858167Y-94969652D01*
X158939839Y-94858188D01*
X159051341Y-94779063D01*
X159181128Y-94736573D01*
X159318929Y-94732475D01*
X159454473Y-94768529D01*
X159577489Y-94846493D01*
X159666233Y-94924411D01*
X159666233Y-94850041D01*
X159658519Y-94769573D01*
X159625257Y-94641959D01*
X159573372Y-94519134D01*
X159511250Y-94424139D01*
X159405572Y-94335805D01*
X159262932Y-94278539D01*
X159094223Y-94261996D01*
X158902706Y-94286911D01*
X158876054Y-94280827D01*
X158864530Y-94233581D01*
X158881596Y-94187295D01*
X158943328Y-94150805D01*
X159047515Y-94134114D01*
X159191446Y-94138016D01*
X159226538Y-94141859D01*
X159401804Y-94186895D01*
X159546957Y-94271545D01*
X159659525Y-94394456D01*
X159660879Y-94396468D01*
X159721175Y-94497029D01*
X159762806Y-94596996D01*
X159788743Y-94709131D01*
X159801958Y-94846192D01*
X159805423Y-95020942D01*
X159805418Y-95023276D01*
X159803890Y-95155475D01*
X159801680Y-95195311D01*
X159798595Y-95250921D01*
G37*
G36*
X158428003Y-94327404D02*
G01*
X158428013Y-94327501D01*
X158436206Y-94442521D01*
X158442096Y-94578898D01*
X158444409Y-94707128D01*
X158444590Y-94915058D01*
X158207571Y-94900918D01*
X158083730Y-94897839D01*
X157937125Y-94912689D01*
X157830154Y-94953244D01*
X157758763Y-95022394D01*
X157718901Y-95123026D01*
X157706514Y-95258029D01*
X157707727Y-95304717D01*
X157723041Y-95395718D01*
X157759663Y-95463409D01*
X157797614Y-95504641D01*
X157911907Y-95577413D01*
X158055418Y-95612585D01*
X158223818Y-95609467D01*
X158412777Y-95567370D01*
X158437003Y-95561110D01*
X158464009Y-95569614D01*
X158470041Y-95616890D01*
X158460252Y-95666055D01*
X158412777Y-95707323D01*
X158403052Y-95710453D01*
X158340385Y-95720872D01*
X158247556Y-95728531D01*
X158140852Y-95731954D01*
X158102640Y-95731700D01*
X157919507Y-95711287D01*
X157774899Y-95658157D01*
X157667773Y-95571525D01*
X157597087Y-95450602D01*
X157561798Y-95294602D01*
X157564475Y-95137007D01*
X157608164Y-94999301D01*
X157690584Y-94891327D01*
X157808692Y-94815832D01*
X157959443Y-94775563D01*
X158139792Y-94773265D01*
X158291885Y-94787057D01*
X158291885Y-94534961D01*
X158291885Y-94282865D01*
X157961023Y-94282865D01*
X157630161Y-94282865D01*
X157630161Y-94219238D01*
X157630161Y-94155611D01*
X158020970Y-94155611D01*
X158411779Y-94155611D01*
X158428003Y-94327404D01*
G37*
G36*
X161980950Y-94142898D02*
G01*
X162127017Y-94143307D01*
X162232044Y-94144921D01*
X162302984Y-94148571D01*
X162346787Y-94155087D01*
X162370405Y-94165302D01*
X162380788Y-94180046D01*
X162384887Y-94200150D01*
X162393020Y-94257415D01*
X161984036Y-94257415D01*
X161891589Y-94257825D01*
X161765853Y-94259873D01*
X161665518Y-94263347D01*
X161599084Y-94267917D01*
X161575051Y-94273254D01*
X161576215Y-94277292D01*
X161592442Y-94318189D01*
X161625819Y-94397801D01*
X161673827Y-94510253D01*
X161733949Y-94649669D01*
X161803666Y-94810176D01*
X161880462Y-94985897D01*
X161907236Y-95047037D01*
X161981890Y-95218126D01*
X162048614Y-95371923D01*
X162104890Y-95502570D01*
X162148203Y-95604208D01*
X162176036Y-95670978D01*
X162185873Y-95697021D01*
X162185811Y-95697583D01*
X162161803Y-95704872D01*
X162107472Y-95703366D01*
X162098446Y-95702347D01*
X162076895Y-95697440D01*
X162056506Y-95685379D01*
X162034637Y-95661205D01*
X162008649Y-95619959D01*
X161975901Y-95556682D01*
X161933752Y-95466417D01*
X161879563Y-95344202D01*
X161810694Y-95185081D01*
X161724504Y-94984094D01*
X161648661Y-94805000D01*
X161571218Y-94616927D01*
X161508855Y-94459186D01*
X161463097Y-94335767D01*
X161435472Y-94250656D01*
X161427504Y-94207842D01*
X161435071Y-94142885D01*
X161905913Y-94142885D01*
X161980950Y-94142898D01*
G37*
G36*
X166457263Y-94090391D02*
G01*
X166518657Y-94133827D01*
X166557150Y-94197043D01*
X166565147Y-94265963D01*
X166535053Y-94326511D01*
X166528194Y-94335435D01*
X166534925Y-94362544D01*
X166585954Y-94395882D01*
X166615698Y-94412957D01*
X166655226Y-94455465D01*
X166665231Y-94520212D01*
X166653997Y-94597242D01*
X166611760Y-94648444D01*
X166534731Y-94664629D01*
X166474429Y-94649510D01*
X166404699Y-94587177D01*
X166344084Y-94509726D01*
X165951100Y-94660627D01*
X165854647Y-94697082D01*
X165735703Y-94740235D01*
X165640252Y-94772718D01*
X165576245Y-94791858D01*
X165551633Y-94794979D01*
X165551221Y-94784626D01*
X165559774Y-94735610D01*
X165578091Y-94664655D01*
X165611032Y-94550878D01*
X165934525Y-94425879D01*
X165979645Y-94408427D01*
X166095687Y-94362783D01*
X166173955Y-94329167D01*
X166221886Y-94302860D01*
X166246916Y-94279144D01*
X166256481Y-94253300D01*
X166258017Y-94220610D01*
X166271685Y-94139628D01*
X166317715Y-94093444D01*
X166401644Y-94079258D01*
X166457263Y-94090391D01*
G37*
G36*
X139481166Y-93296073D02*
G01*
X139498425Y-93321891D01*
X139510197Y-93378041D01*
X139519957Y-93474799D01*
X139520359Y-93479733D01*
X139528704Y-93601817D01*
X139536181Y-93743651D01*
X139541217Y-93875540D01*
X139547296Y-94091762D01*
X139381865Y-94107506D01*
X139380236Y-94107660D01*
X139268518Y-94117847D01*
X139135086Y-94129403D01*
X139008467Y-94139859D01*
X138800500Y-94156468D01*
X138802644Y-93933344D01*
X138801315Y-93842616D01*
X138782903Y-93684887D01*
X138741158Y-93568695D01*
X138673459Y-93490313D01*
X138577180Y-93446016D01*
X138449700Y-93432078D01*
X138425949Y-93432521D01*
X138299349Y-93455930D01*
X138202571Y-93517987D01*
X138128447Y-93622951D01*
X138100224Y-93707435D01*
X138086271Y-93833537D01*
X138093708Y-93968505D01*
X138122779Y-94091984D01*
X138132135Y-94118128D01*
X138151818Y-94174634D01*
X138159838Y-94200150D01*
X138138827Y-94204609D01*
X138086407Y-94206513D01*
X138056750Y-94205125D01*
X138024021Y-94191444D01*
X138002265Y-94152714D01*
X137981386Y-94076429D01*
X137974661Y-94045460D01*
X137958440Y-93894516D01*
X137965147Y-93741808D01*
X137993100Y-93603811D01*
X138040613Y-93496998D01*
X138077477Y-93448600D01*
X138190694Y-93356591D01*
X138332718Y-93304717D01*
X138499797Y-93294629D01*
X138516818Y-93295911D01*
X138667953Y-93329249D01*
X138784220Y-93399510D01*
X138865185Y-93506145D01*
X138910419Y-93648609D01*
X138919488Y-93826354D01*
X138911023Y-94006811D01*
X139152807Y-93989376D01*
X139213693Y-93984504D01*
X139310218Y-93974552D01*
X139380030Y-93964395D01*
X139411079Y-93955609D01*
X139411126Y-93955561D01*
X139415923Y-93924893D01*
X139416864Y-93854053D01*
X139414062Y-93753544D01*
X139407630Y-93633867D01*
X139407610Y-93633563D01*
X139400772Y-93513572D01*
X139396870Y-93412457D01*
X139396188Y-93340847D01*
X139399007Y-93309368D01*
X139412170Y-93299280D01*
X139457548Y-93290280D01*
X139481166Y-93296073D01*
G37*
G36*
X166767035Y-92666733D02*
G01*
X166757657Y-92806381D01*
X166718182Y-92947567D01*
X166645961Y-93054455D01*
X166538947Y-93131212D01*
X166501431Y-93148753D01*
X166424672Y-93177234D01*
X166368810Y-93188477D01*
X166286453Y-93177175D01*
X166169672Y-93122949D01*
X166067653Y-93030850D01*
X165990818Y-92908595D01*
X165946626Y-92810596D01*
X165865828Y-92916530D01*
X165810842Y-92983299D01*
X165708556Y-93075467D01*
X165605502Y-93123025D01*
X165495364Y-93129604D01*
X165491262Y-93129127D01*
X165379332Y-93092353D01*
X165289508Y-93018116D01*
X165223663Y-92915386D01*
X165183670Y-92793135D01*
X165171637Y-92662861D01*
X165290883Y-92662861D01*
X165291373Y-92678644D01*
X165313187Y-92780484D01*
X165359881Y-92876151D01*
X165421112Y-92943367D01*
X165422716Y-92944482D01*
X165515339Y-92981931D01*
X165611435Y-92968694D01*
X165711237Y-92904739D01*
X165737044Y-92880952D01*
X165816764Y-92787005D01*
X165861708Y-92696337D01*
X165864469Y-92652023D01*
X165993878Y-92652023D01*
X166055026Y-92782578D01*
X166081132Y-92832294D01*
X166136008Y-92915367D01*
X166189048Y-92974452D01*
X166218479Y-92996343D01*
X166317895Y-93035385D01*
X166418471Y-93030038D01*
X166511372Y-92984027D01*
X166587760Y-92901075D01*
X166638799Y-92784907D01*
X166643402Y-92766167D01*
X166653123Y-92640587D01*
X166630121Y-92521303D01*
X166580000Y-92417192D01*
X166508365Y-92337134D01*
X166420822Y-92290004D01*
X166322975Y-92284682D01*
X166301072Y-92289259D01*
X166206304Y-92328196D01*
X166129823Y-92400199D01*
X166061489Y-92514167D01*
X166010187Y-92618770D01*
X165993878Y-92652023D01*
X165864469Y-92652023D01*
X165866540Y-92618770D01*
X165850865Y-92580159D01*
X165801496Y-92505905D01*
X165734784Y-92430561D01*
X165664793Y-92369297D01*
X165605588Y-92337285D01*
X165592747Y-92334453D01*
X165495262Y-92339696D01*
X165409844Y-92391588D01*
X165342755Y-92486573D01*
X165329987Y-92515080D01*
X165302032Y-92597132D01*
X165290883Y-92662861D01*
X165171637Y-92662861D01*
X165171404Y-92660334D01*
X165188736Y-92525955D01*
X165237542Y-92398968D01*
X165319694Y-92288347D01*
X165372688Y-92237660D01*
X165420706Y-92206222D01*
X165475060Y-92196759D01*
X165557868Y-92201176D01*
X165562606Y-92201579D01*
X165657611Y-92216840D01*
X165731896Y-92249614D01*
X165800019Y-92309207D01*
X165876536Y-92404926D01*
X165945719Y-92499432D01*
X165990364Y-92400427D01*
X166021361Y-92339018D01*
X166099951Y-92237113D01*
X166199381Y-92176402D01*
X166327981Y-92150726D01*
X166344746Y-92149631D01*
X166434143Y-92149304D01*
X166499533Y-92164586D01*
X166563428Y-92200207D01*
X166602339Y-92229762D01*
X166693384Y-92341071D01*
X166748509Y-92487246D01*
X166764336Y-92640587D01*
X166767035Y-92666733D01*
G37*
G36*
X138561904Y-91742525D02*
G01*
X138689183Y-91777051D01*
X138788671Y-91850327D01*
X138868303Y-91967039D01*
X138895681Y-92025845D01*
X138914116Y-92090875D01*
X138920261Y-92168875D01*
X138917051Y-92278607D01*
X138906715Y-92475851D01*
X139157015Y-92475851D01*
X139407316Y-92475851D01*
X139407316Y-92147713D01*
X139407327Y-92128519D01*
X139408455Y-91996232D01*
X139412112Y-91905744D01*
X139419250Y-91848952D01*
X139430824Y-91817753D01*
X139447789Y-91804043D01*
X139469901Y-91798381D01*
X139511416Y-91802822D01*
X139515848Y-91812810D01*
X139523259Y-91865635D01*
X139529197Y-91955324D01*
X139533140Y-92072766D01*
X139534570Y-92208849D01*
X139534570Y-92600566D01*
X139388227Y-92610184D01*
X139369805Y-92611281D01*
X139265121Y-92615271D01*
X139138324Y-92617608D01*
X139012827Y-92617817D01*
X138783769Y-92615831D01*
X138792351Y-92361322D01*
X138795237Y-92250256D01*
X138793704Y-92166377D01*
X138785396Y-92108338D01*
X138768354Y-92063128D01*
X138740620Y-92017735D01*
X138693200Y-91962104D01*
X138594031Y-91898519D01*
X138480857Y-91872366D01*
X138364686Y-91882040D01*
X138256527Y-91925937D01*
X138167388Y-92002448D01*
X138108278Y-92109970D01*
X138106426Y-92115995D01*
X138093720Y-92195069D01*
X138089322Y-92300668D01*
X138092719Y-92413533D01*
X138103402Y-92514403D01*
X138120859Y-92584018D01*
X138125931Y-92597604D01*
X138119742Y-92622331D01*
X138073236Y-92628557D01*
X138058947Y-92627800D01*
X138010868Y-92607008D01*
X137979257Y-92553482D01*
X137961907Y-92461486D01*
X137956614Y-92325287D01*
X137962589Y-92204114D01*
X137998775Y-92035446D01*
X138068191Y-91905110D01*
X138171351Y-91812529D01*
X138308768Y-91757128D01*
X138480957Y-91738334D01*
X138561904Y-91742525D01*
G37*
G36*
X154379849Y-91216032D02*
G01*
X154377093Y-91375168D01*
X154357296Y-91653204D01*
X154317216Y-91888325D01*
X154255399Y-92083622D01*
X154170387Y-92242187D01*
X154060725Y-92367112D01*
X153924956Y-92461487D01*
X153761624Y-92528404D01*
X153711132Y-92538800D01*
X153605324Y-92547791D01*
X153477716Y-92549452D01*
X153345312Y-92544165D01*
X153225117Y-92532313D01*
X153134136Y-92514279D01*
X153060975Y-92488844D01*
X152904819Y-92402527D01*
X152773519Y-92277805D01*
X152664031Y-92111342D01*
X152573309Y-91899803D01*
X152557985Y-91855429D01*
X152538305Y-91792836D01*
X152523984Y-91733195D01*
X152514159Y-91667531D01*
X152507963Y-91586868D01*
X152504532Y-91482231D01*
X152503002Y-91344643D01*
X152502541Y-91177855D01*
X153036561Y-91177855D01*
X153038194Y-91373288D01*
X153044823Y-91555402D01*
X153057751Y-91699310D01*
X153078253Y-91811710D01*
X153107602Y-91899300D01*
X153147069Y-91968779D01*
X153197930Y-92026844D01*
X153225609Y-92050648D01*
X153335336Y-92107900D01*
X153455966Y-92125685D01*
X153573683Y-92103588D01*
X153674669Y-92041192D01*
X153688078Y-92027852D01*
X153732226Y-91968590D01*
X153766495Y-91890948D01*
X153792196Y-91788444D01*
X153810636Y-91654596D01*
X153823124Y-91482919D01*
X153830968Y-91266934D01*
X153832498Y-91191738D01*
X153831181Y-90939581D01*
X153817862Y-90732295D01*
X153791416Y-90565995D01*
X153750721Y-90436797D01*
X153694651Y-90340815D01*
X153622085Y-90274166D01*
X153531897Y-90232965D01*
X153494831Y-90224100D01*
X153373992Y-90222776D01*
X153262767Y-90259491D01*
X153177164Y-90329873D01*
X153152603Y-90363703D01*
X153112239Y-90437659D01*
X153081855Y-90526839D01*
X153060272Y-90638347D01*
X153046314Y-90779283D01*
X153038803Y-90956752D01*
X153036561Y-91177855D01*
X152502541Y-91177855D01*
X152502506Y-91165130D01*
X152502487Y-91143436D01*
X152503872Y-90930714D01*
X152508980Y-90759630D01*
X152518975Y-90621745D01*
X152535023Y-90508622D01*
X152558289Y-90411821D01*
X152589938Y-90322906D01*
X152631134Y-90233437D01*
X152640819Y-90214433D01*
X152724789Y-90078962D01*
X152823375Y-89976583D01*
X152951453Y-89891413D01*
X153000140Y-89865278D01*
X153052435Y-89842243D01*
X153106923Y-89827838D01*
X153175781Y-89820046D01*
X153271185Y-89816849D01*
X153405312Y-89816232D01*
X153489436Y-89816448D01*
X153601004Y-89818605D01*
X153680910Y-89824612D01*
X153741321Y-89836320D01*
X153794401Y-89855581D01*
X153852317Y-89884245D01*
X153967041Y-89956010D01*
X154098911Y-90078145D01*
X154203920Y-90231304D01*
X154283293Y-90418579D01*
X154338256Y-90643064D01*
X154370033Y-90907851D01*
X154379075Y-91191738D01*
X154379849Y-91216032D01*
G37*
G36*
X149312197Y-89830351D02*
G01*
X149468534Y-89832647D01*
X149608357Y-89836305D01*
X149723178Y-89841309D01*
X149804508Y-89847647D01*
X149843859Y-89855304D01*
X149851945Y-89860142D01*
X149864910Y-89873113D01*
X149874826Y-89895849D01*
X149882101Y-89934227D01*
X149887141Y-89994123D01*
X149890353Y-90081415D01*
X149892143Y-90201979D01*
X149892919Y-90361691D01*
X149893087Y-90566427D01*
X149893032Y-90638475D01*
X149892015Y-90843349D01*
X149889575Y-91002810D01*
X149885528Y-91121058D01*
X149879685Y-91202290D01*
X149871862Y-91250703D01*
X149861873Y-91270496D01*
X149861515Y-91270705D01*
X149823930Y-91277547D01*
X149746826Y-91282098D01*
X149641254Y-91283966D01*
X149518267Y-91282755D01*
X149477861Y-91281980D01*
X149311737Y-91283138D01*
X149184706Y-91293809D01*
X149087415Y-91315943D01*
X149010509Y-91351493D01*
X148944635Y-91402409D01*
X148928935Y-91418072D01*
X148861407Y-91523567D01*
X148832322Y-91645828D01*
X148839664Y-91773206D01*
X148881418Y-91894053D01*
X148955567Y-91996720D01*
X149060096Y-92069558D01*
X149137827Y-92096107D01*
X149284162Y-92118614D01*
X149447180Y-92119097D01*
X149609342Y-92097915D01*
X149753107Y-92055425D01*
X149829259Y-92026016D01*
X149902901Y-92001759D01*
X149946892Y-91992402D01*
X149968794Y-92002784D01*
X149993042Y-92051089D01*
X150006856Y-92126558D01*
X150010027Y-92215566D01*
X150002345Y-92304484D01*
X149983601Y-92379687D01*
X149953585Y-92427547D01*
X149912623Y-92448593D01*
X149838328Y-92476170D01*
X149746879Y-92504251D01*
X149737821Y-92506742D01*
X149642419Y-92528456D01*
X149542905Y-92540936D01*
X149423778Y-92545446D01*
X149269540Y-92543254D01*
X149244700Y-92542462D01*
X149051980Y-92529208D01*
X148896270Y-92501884D01*
X148765940Y-92456581D01*
X148649361Y-92389392D01*
X148534903Y-92296410D01*
X148452989Y-92212462D01*
X148356652Y-92069844D01*
X148297269Y-91906076D01*
X148269870Y-91710162D01*
X148269721Y-91538923D01*
X148299071Y-91371277D01*
X148362848Y-91228926D01*
X148463868Y-91103047D01*
X148506836Y-91062292D01*
X148596271Y-90994099D01*
X148694792Y-90945064D01*
X148812777Y-90911790D01*
X148960604Y-90890883D01*
X149148648Y-90878947D01*
X149460422Y-90866300D01*
X149460422Y-90589412D01*
X149460422Y-90312525D01*
X148989580Y-90312525D01*
X148988552Y-90312525D01*
X148822390Y-90312210D01*
X148699437Y-90310749D01*
X148612043Y-90307358D01*
X148552558Y-90301255D01*
X148513330Y-90291655D01*
X148486711Y-90277776D01*
X148465049Y-90258835D01*
X148444310Y-90235308D01*
X148424770Y-90194481D01*
X148418323Y-90134916D01*
X148421827Y-90040760D01*
X148426705Y-89984870D01*
X148443838Y-89895916D01*
X148469154Y-89853056D01*
X148502723Y-89845936D01*
X148579890Y-89839774D01*
X148691473Y-89835056D01*
X148828984Y-89831769D01*
X148983934Y-89829898D01*
X149147834Y-89829430D01*
X149312197Y-89830351D01*
G37*
G36*
X155733995Y-89804725D02*
G01*
X155886398Y-89824501D01*
X156046592Y-89866883D01*
X156126548Y-89893863D01*
X156262245Y-89953646D01*
X156354487Y-90021670D01*
X156408335Y-90104316D01*
X156428853Y-90207966D01*
X156421103Y-90339000D01*
X156415941Y-90373199D01*
X156400812Y-90430040D01*
X156374390Y-90457609D01*
X156328397Y-90457007D01*
X156254554Y-90429329D01*
X156144582Y-90375676D01*
X156102132Y-90354701D01*
X156002790Y-90313169D01*
X155915635Y-90292607D01*
X155818819Y-90287074D01*
X155676982Y-90300118D01*
X155563966Y-90344093D01*
X155489227Y-90420906D01*
X155451020Y-90532404D01*
X155447603Y-90680435D01*
X155447705Y-90681686D01*
X155460696Y-90779050D01*
X155485610Y-90872534D01*
X155526049Y-90967664D01*
X155585618Y-91069967D01*
X155667919Y-91184968D01*
X155776555Y-91318194D01*
X155915130Y-91475170D01*
X156087248Y-91661423D01*
X156115751Y-91691855D01*
X156231521Y-91816912D01*
X156317621Y-91914206D01*
X156378870Y-91990943D01*
X156420084Y-92054330D01*
X156446082Y-92111573D01*
X156461683Y-92169878D01*
X156471703Y-92236451D01*
X156474067Y-92259587D01*
X156468201Y-92377400D01*
X156428979Y-92459846D01*
X156357413Y-92504550D01*
X156348557Y-92506315D01*
X156291458Y-92511021D01*
X156195450Y-92514574D01*
X156068016Y-92517028D01*
X155916640Y-92518435D01*
X155748806Y-92518849D01*
X155571999Y-92518324D01*
X155393703Y-92516912D01*
X155221401Y-92514667D01*
X155062579Y-92511643D01*
X154924719Y-92507893D01*
X154815306Y-92503470D01*
X154741824Y-92498427D01*
X154711757Y-92492819D01*
X154701583Y-92471777D01*
X154692120Y-92408113D01*
X154690411Y-92322719D01*
X154695825Y-92233051D01*
X154707735Y-92156567D01*
X154725512Y-92110725D01*
X154738841Y-92098869D01*
X154765484Y-92087581D01*
X154809696Y-92079449D01*
X154878143Y-92073980D01*
X154977491Y-92070684D01*
X155114405Y-92069067D01*
X155295550Y-92068637D01*
X155830658Y-92068637D01*
X155500858Y-91730965D01*
X155375455Y-91600387D01*
X155204207Y-91411339D01*
X155068145Y-91243717D01*
X154963930Y-91091791D01*
X154888224Y-90949835D01*
X154837688Y-90812120D01*
X154808982Y-90672919D01*
X154798769Y-90526503D01*
X154799532Y-90419214D01*
X154808424Y-90333051D01*
X154829567Y-90258139D01*
X154866925Y-90173972D01*
X154940809Y-90055005D01*
X155058586Y-89942148D01*
X155209456Y-89863171D01*
X155396127Y-89816734D01*
X155621309Y-89801502D01*
X155733995Y-89804725D01*
G37*
G36*
X151475967Y-89808342D02*
G01*
X151679843Y-89843219D01*
X151878257Y-89911179D01*
X151924625Y-89932276D01*
X152035711Y-90004107D01*
X152102614Y-90092550D01*
X152129703Y-90205504D01*
X152121346Y-90350871D01*
X152117092Y-90376900D01*
X152101596Y-90431553D01*
X152074667Y-90458026D01*
X152028115Y-90457050D01*
X151953749Y-90429357D01*
X151843380Y-90375676D01*
X151800929Y-90354701D01*
X151701588Y-90313169D01*
X151614433Y-90292607D01*
X151517617Y-90287074D01*
X151429040Y-90291932D01*
X151300710Y-90325500D01*
X151210659Y-90391989D01*
X151157584Y-90492577D01*
X151140181Y-90628442D01*
X151140838Y-90659727D01*
X151154326Y-90767737D01*
X151187645Y-90877651D01*
X151243977Y-90994617D01*
X151326506Y-91123784D01*
X151438416Y-91270299D01*
X151582888Y-91439312D01*
X151763106Y-91635972D01*
X151835711Y-91714053D01*
X151932375Y-91820316D01*
X152014842Y-91913635D01*
X152076121Y-91986057D01*
X152109221Y-92029632D01*
X152146181Y-92104789D01*
X152172982Y-92211043D01*
X152176738Y-92316128D01*
X152158608Y-92408475D01*
X152119747Y-92476511D01*
X152061314Y-92508665D01*
X152055137Y-92509366D01*
X152001029Y-92512164D01*
X151904853Y-92514911D01*
X151773659Y-92517485D01*
X151614500Y-92519763D01*
X151434425Y-92521622D01*
X151240487Y-92522940D01*
X151149030Y-92523423D01*
X150936210Y-92524333D01*
X150767331Y-92523642D01*
X150637319Y-92520044D01*
X150541101Y-92512232D01*
X150473604Y-92498898D01*
X150429755Y-92478735D01*
X150404481Y-92450437D01*
X150392710Y-92412696D01*
X150389367Y-92364205D01*
X150389380Y-92303658D01*
X150389393Y-92252799D01*
X150392227Y-92190509D01*
X150403793Y-92144124D01*
X150430114Y-92111300D01*
X150477214Y-92089696D01*
X150551118Y-92076970D01*
X150657849Y-92070779D01*
X150803431Y-92068782D01*
X150993890Y-92068637D01*
X151528539Y-92068637D01*
X151186912Y-91717432D01*
X151068867Y-91594035D01*
X150898192Y-91404646D01*
X150762914Y-91236332D01*
X150659667Y-91083141D01*
X150585086Y-90939125D01*
X150535803Y-90798333D01*
X150508453Y-90654815D01*
X150499669Y-90502621D01*
X150503494Y-90410621D01*
X150541522Y-90228631D01*
X150619410Y-90077592D01*
X150736099Y-89958423D01*
X150890529Y-89872043D01*
X151081641Y-89819370D01*
X151308376Y-89801323D01*
X151475967Y-89808342D01*
G37*
G36*
X166638610Y-90923428D02*
G01*
X166690099Y-90939191D01*
X166725854Y-90986603D01*
X166748754Y-91071915D01*
X166761677Y-91201380D01*
X166764218Y-91283645D01*
X166749201Y-91459178D01*
X166702434Y-91598857D01*
X166622107Y-91706836D01*
X166506412Y-91787266D01*
X166497746Y-91791599D01*
X166420519Y-91821883D01*
X166337652Y-91834722D01*
X166227017Y-91833801D01*
X166104900Y-91819770D01*
X166002012Y-91782447D01*
X165923219Y-91714803D01*
X165855620Y-91609031D01*
X165830754Y-91556407D01*
X165810690Y-91489602D01*
X165803102Y-91410000D01*
X165804907Y-91298747D01*
X165813004Y-91101503D01*
X165565407Y-91101503D01*
X165317811Y-91101503D01*
X165310710Y-91438727D01*
X165310291Y-91458493D01*
X165307056Y-91589190D01*
X165302906Y-91678293D01*
X165296300Y-91734070D01*
X165285698Y-91764784D01*
X165269559Y-91778701D01*
X165246344Y-91784084D01*
X165189079Y-91792217D01*
X165189079Y-91383233D01*
X165189079Y-90974248D01*
X165430863Y-90968864D01*
X165474083Y-90967931D01*
X165600892Y-90965472D01*
X165718579Y-90963544D01*
X165806264Y-90962502D01*
X165939881Y-90961523D01*
X165931465Y-91216032D01*
X165928677Y-91325825D01*
X165930217Y-91410249D01*
X165938501Y-91468675D01*
X165955485Y-91514125D01*
X165983129Y-91559619D01*
X166031247Y-91615826D01*
X166130156Y-91678293D01*
X166243232Y-91703719D01*
X166359382Y-91693724D01*
X166467516Y-91649924D01*
X166556543Y-91573938D01*
X166615371Y-91467384D01*
X166627463Y-91405370D01*
X166633528Y-91300784D01*
X166630817Y-91182074D01*
X166619894Y-91068822D01*
X166601326Y-90980611D01*
X166597719Y-90968537D01*
X166598040Y-90932349D01*
X166633696Y-90923346D01*
X166638610Y-90923428D01*
G37*
G36*
X138966041Y-90686792D02*
G01*
X138928569Y-90830623D01*
X138842065Y-90963706D01*
X138833745Y-90973285D01*
X138799179Y-91019171D01*
X138795368Y-91044682D01*
X138826751Y-91051056D01*
X138897765Y-91039533D01*
X139012850Y-91011349D01*
X139171101Y-90953177D01*
X139295391Y-90865676D01*
X139378339Y-90749239D01*
X139421221Y-90602042D01*
X139425315Y-90422261D01*
X139420939Y-90362076D01*
X139418102Y-90290793D01*
X139423596Y-90253248D01*
X139440011Y-90238641D01*
X139469937Y-90236172D01*
X139479482Y-90236543D01*
X139518269Y-90251689D01*
X139542800Y-90294558D01*
X139555720Y-90372744D01*
X139559674Y-90493844D01*
X139551458Y-90617407D01*
X139504004Y-90791082D01*
X139415689Y-90935446D01*
X139288075Y-91048832D01*
X139122721Y-91129575D01*
X138921189Y-91176005D01*
X138909491Y-91177499D01*
X138695106Y-91190391D01*
X138496816Y-91175665D01*
X138320956Y-91135333D01*
X138173865Y-91071406D01*
X138061877Y-90985895D01*
X137991330Y-90880813D01*
X137981372Y-90854060D01*
X137958288Y-90719532D01*
X137960919Y-90683013D01*
X138087253Y-90683013D01*
X138088250Y-90757351D01*
X138106420Y-90811544D01*
X138147806Y-90868172D01*
X138158891Y-90880811D01*
X138225014Y-90943229D01*
X138289244Y-90987888D01*
X138365721Y-91013160D01*
X138477170Y-91023309D01*
X138588477Y-91012075D01*
X138676402Y-90979934D01*
X138728834Y-90936199D01*
X138794412Y-90839982D01*
X138833339Y-90726330D01*
X138837092Y-90614618D01*
X138803386Y-90496047D01*
X138740476Y-90410871D01*
X138641760Y-90352859D01*
X138552053Y-90325458D01*
X138414506Y-90316967D01*
X138292221Y-90349169D01*
X138192467Y-90418144D01*
X138122510Y-90519971D01*
X138089620Y-90650729D01*
X138087253Y-90683013D01*
X137960919Y-90683013D01*
X137968679Y-90575298D01*
X138009693Y-90439390D01*
X138078477Y-90329836D01*
X138160956Y-90260079D01*
X138286175Y-90202349D01*
X138425043Y-90177220D01*
X138566421Y-90183910D01*
X138699170Y-90221638D01*
X138812153Y-90289622D01*
X138894229Y-90387080D01*
X138954099Y-90536436D01*
X138960309Y-90614618D01*
X138966041Y-90686792D01*
G37*
G36*
X166745412Y-90204358D02*
G01*
X166733058Y-90244329D01*
X166662130Y-90373172D01*
X166550977Y-90471723D01*
X166398526Y-90541021D01*
X166247245Y-90574200D01*
X166066221Y-90590946D01*
X165875026Y-90591073D01*
X165692672Y-90574572D01*
X165538174Y-90541433D01*
X165425644Y-90497075D01*
X165297445Y-90409439D01*
X165212507Y-90295535D01*
X165171529Y-90156419D01*
X165174181Y-90038779D01*
X165299735Y-90038779D01*
X165300975Y-90138738D01*
X165344384Y-90243679D01*
X165427406Y-90330777D01*
X165544231Y-90394222D01*
X165689048Y-90428202D01*
X165792038Y-90439146D01*
X165888837Y-90447327D01*
X165966093Y-90449791D01*
X166041003Y-90446968D01*
X166130763Y-90439291D01*
X166283460Y-90416744D01*
X166435435Y-90369640D01*
X166542624Y-90301053D01*
X166606131Y-90210222D01*
X166627055Y-90096387D01*
X166627041Y-90092979D01*
X166603912Y-89970476D01*
X166535911Y-89870355D01*
X166421805Y-89790781D01*
X166405747Y-89782951D01*
X166357119Y-89764357D01*
X166299147Y-89751911D01*
X166221448Y-89744455D01*
X166113637Y-89740830D01*
X165965332Y-89739879D01*
X165876088Y-89740115D01*
X165754279Y-89742173D01*
X165666934Y-89747389D01*
X165603606Y-89757010D01*
X165553848Y-89772277D01*
X165507215Y-89794436D01*
X165495939Y-89800564D01*
X165392362Y-89870278D01*
X165329889Y-89946235D01*
X165299735Y-90038779D01*
X165174181Y-90038779D01*
X165175210Y-89993145D01*
X165179908Y-89967574D01*
X165233105Y-89840566D01*
X165332088Y-89733481D01*
X165475217Y-89648206D01*
X165503577Y-89635914D01*
X165562206Y-89614809D01*
X165624657Y-89600928D01*
X165702697Y-89592782D01*
X165808091Y-89588878D01*
X165952606Y-89587728D01*
X166102265Y-89589303D01*
X166254823Y-89597825D01*
X166373284Y-89615721D01*
X166466901Y-89645226D01*
X166544929Y-89688573D01*
X166616622Y-89747994D01*
X166649369Y-89781975D01*
X166729924Y-89909040D01*
X166762309Y-90051150D01*
X166757320Y-90096387D01*
X166745412Y-90204358D01*
G37*
G36*
X138631034Y-88855772D02*
G01*
X138722135Y-88894243D01*
X138734056Y-88902539D01*
X138842569Y-89010221D01*
X138913130Y-89145845D01*
X138942637Y-89300783D01*
X138927984Y-89466406D01*
X138903708Y-89574449D01*
X139168237Y-89574449D01*
X139432767Y-89574449D01*
X139432767Y-89243587D01*
X139432767Y-88912725D01*
X139496394Y-88912725D01*
X139560021Y-88912725D01*
X139560021Y-89305751D01*
X139560021Y-89698776D01*
X139451855Y-89708906D01*
X139407631Y-89711782D01*
X139311012Y-89715001D01*
X139190947Y-89716760D01*
X139063728Y-89716732D01*
X138783769Y-89714429D01*
X138796494Y-89625350D01*
X138800715Y-89593168D01*
X138810882Y-89445001D01*
X138806131Y-89309054D01*
X138787466Y-89197750D01*
X138755892Y-89123512D01*
X138665394Y-89036250D01*
X138552806Y-88984614D01*
X138431713Y-88971863D01*
X138314237Y-88999236D01*
X138212498Y-89067972D01*
X138202114Y-89078840D01*
X138130701Y-89191521D01*
X138091764Y-89330231D01*
X138087514Y-89481465D01*
X138120163Y-89631713D01*
X138154223Y-89727154D01*
X138082066Y-89727154D01*
X138038390Y-89722154D01*
X138006690Y-89695106D01*
X137983403Y-89631713D01*
X137958774Y-89495089D01*
X137961804Y-89329948D01*
X137997892Y-89174970D01*
X138063593Y-89039392D01*
X138155459Y-88932451D01*
X138270045Y-88863384D01*
X138275720Y-88861307D01*
X138387423Y-88837912D01*
X138512662Y-88836531D01*
X138631034Y-88855772D01*
G37*
G36*
X166669794Y-88357939D02*
G01*
X166709579Y-88396575D01*
X166738263Y-88476784D01*
X166757873Y-88602985D01*
X166761619Y-88733269D01*
X166735556Y-88899195D01*
X166676678Y-89043214D01*
X166588572Y-89157335D01*
X166474823Y-89233570D01*
X166365118Y-89262129D01*
X166235065Y-89268021D01*
X166107120Y-89252065D01*
X166003611Y-89215136D01*
X165946027Y-89174274D01*
X165860685Y-89070598D01*
X165804423Y-88939074D01*
X165781365Y-88791148D01*
X165795640Y-88638265D01*
X165820329Y-88529236D01*
X165561968Y-88536462D01*
X165303608Y-88543687D01*
X165296495Y-88882583D01*
X165295754Y-88917622D01*
X165292596Y-89043913D01*
X165288523Y-89128937D01*
X165282024Y-89180550D01*
X165271589Y-89206603D01*
X165255707Y-89214950D01*
X165232868Y-89213445D01*
X165217397Y-89210560D01*
X165200323Y-89201179D01*
X165188460Y-89178835D01*
X165180622Y-89135940D01*
X165175618Y-89064909D01*
X165172261Y-88958154D01*
X165169363Y-88808089D01*
X165162372Y-88410768D01*
X165538401Y-88397557D01*
X165599619Y-88395540D01*
X165725898Y-88392292D01*
X165829446Y-88390873D01*
X165900887Y-88391372D01*
X165930846Y-88393877D01*
X165934375Y-88400617D01*
X165934022Y-88444028D01*
X165922211Y-88511724D01*
X165921178Y-88516310D01*
X165907547Y-88632879D01*
X165910679Y-88762943D01*
X165928859Y-88885486D01*
X165960373Y-88979488D01*
X166006300Y-89041404D01*
X166068817Y-89091781D01*
X166135998Y-89115200D01*
X166244933Y-89127580D01*
X166356472Y-89120021D01*
X166445916Y-89092478D01*
X166527444Y-89024057D01*
X166589998Y-88917731D01*
X166626086Y-88787327D01*
X166632578Y-88644397D01*
X166606343Y-88500494D01*
X166588527Y-88438039D01*
X166582029Y-88383783D01*
X166599369Y-88358824D01*
X166643127Y-88352805D01*
X166669794Y-88357939D01*
G37*
G36*
X139562512Y-87859479D02*
G01*
X139071337Y-88187073D01*
X138995654Y-88237445D01*
X138856854Y-88329269D01*
X138732616Y-88410754D01*
X138629866Y-88477394D01*
X138555530Y-88524681D01*
X138516534Y-88548108D01*
X138508776Y-88552178D01*
X138458245Y-88575836D01*
X138426645Y-88577135D01*
X138390780Y-88557878D01*
X138390009Y-88557374D01*
X138375334Y-88537836D01*
X138365674Y-88497638D01*
X138360435Y-88429239D01*
X138359023Y-88325093D01*
X138360844Y-88177657D01*
X138363148Y-88055611D01*
X138465182Y-88055611D01*
X138465980Y-88181012D01*
X138466627Y-88249403D01*
X138470348Y-88341629D01*
X138476654Y-88404583D01*
X138484720Y-88427452D01*
X138489935Y-88425256D01*
X138530278Y-88401648D01*
X138604086Y-88355465D01*
X138704920Y-88290820D01*
X138826346Y-88211825D01*
X138961925Y-88122591D01*
X139420041Y-87819435D01*
X138958530Y-87818886D01*
X138896649Y-87818673D01*
X138741971Y-87817833D01*
X138629309Y-87820466D01*
X138552062Y-87831426D01*
X138503628Y-87855567D01*
X138477405Y-87897742D01*
X138466790Y-87962805D01*
X138465182Y-88055611D01*
X138363148Y-88055611D01*
X138367585Y-87820642D01*
X138181188Y-87813127D01*
X138119977Y-87810451D01*
X138048560Y-87804553D01*
X138010100Y-87793125D01*
X137993268Y-87771653D01*
X137986737Y-87735621D01*
X137978684Y-87665631D01*
X138171256Y-87665631D01*
X138363829Y-87665631D01*
X138363829Y-87551102D01*
X138364072Y-87520211D01*
X138369590Y-87464653D01*
X138388193Y-87441320D01*
X138427456Y-87436573D01*
X138444219Y-87436986D01*
X138475339Y-87446802D01*
X138488418Y-87480114D01*
X138491083Y-87550586D01*
X138491083Y-87664598D01*
X139019189Y-87671477D01*
X139547296Y-87678356D01*
X139554904Y-87768918D01*
X139559148Y-87819435D01*
X139562512Y-87859479D01*
G37*
G36*
X166749446Y-87599792D02*
G01*
X166701394Y-87716602D01*
X166620200Y-87811847D01*
X166550702Y-87868985D01*
X166646143Y-87869112D01*
X166708744Y-87873092D01*
X166735830Y-87891632D01*
X166741584Y-87934887D01*
X166741584Y-88000535D01*
X166277105Y-87992151D01*
X166244362Y-87991532D01*
X166060399Y-87986303D01*
X165919218Y-87977639D01*
X165813802Y-87963722D01*
X165737133Y-87942735D01*
X165682196Y-87912859D01*
X165641974Y-87872276D01*
X165609450Y-87819169D01*
X165593679Y-87776050D01*
X165576925Y-87676633D01*
X165571627Y-87556949D01*
X165578243Y-87435271D01*
X165597228Y-87329870D01*
X165614695Y-87287086D01*
X165655492Y-87234178D01*
X165701505Y-87206711D01*
X165739698Y-87215181D01*
X165740677Y-87236303D01*
X165730157Y-87294279D01*
X165709466Y-87373847D01*
X165702330Y-87399796D01*
X165679348Y-87548429D01*
X165692057Y-87671345D01*
X165738527Y-87764345D01*
X165816832Y-87823226D01*
X165925044Y-87843787D01*
X166021899Y-87843787D01*
X166026907Y-87755962D01*
X166130763Y-87755962D01*
X166131195Y-87788714D01*
X166139957Y-87826975D01*
X166171119Y-87841315D01*
X166238929Y-87843228D01*
X166323092Y-87834991D01*
X166440077Y-87798966D01*
X166537495Y-87741116D01*
X166599916Y-87668895D01*
X166619932Y-87622462D01*
X166640650Y-87508879D01*
X166625034Y-87402165D01*
X166574219Y-87317795D01*
X166530108Y-87280067D01*
X166478043Y-87262196D01*
X166402465Y-87266477D01*
X166324065Y-87286719D01*
X166241373Y-87344545D01*
X166202652Y-87409708D01*
X166165926Y-87514345D01*
X166140357Y-87635739D01*
X166130763Y-87755962D01*
X166026907Y-87755962D01*
X166034867Y-87616347D01*
X166036294Y-87593252D01*
X166053737Y-87442936D01*
X166085875Y-87330313D01*
X166137044Y-87244549D01*
X166211582Y-87174808D01*
X166275925Y-87139768D01*
X166390090Y-87113616D01*
X166508405Y-87118603D01*
X166609498Y-87155753D01*
X166614174Y-87158754D01*
X166696719Y-87240898D01*
X166746911Y-87349848D01*
X166764552Y-87473510D01*
X166760321Y-87508879D01*
X166749446Y-87599792D01*
G37*
G36*
X138582036Y-86255329D02*
G01*
X138714143Y-86298726D01*
X138819941Y-86381235D01*
X138895641Y-86499138D01*
X138937458Y-86648716D01*
X138941604Y-86826253D01*
X138926710Y-87003907D01*
X139179000Y-87003907D01*
X139431289Y-87003907D01*
X139438391Y-86666683D01*
X139438809Y-86646917D01*
X139442044Y-86516221D01*
X139446195Y-86427117D01*
X139452801Y-86371340D01*
X139463403Y-86340626D01*
X139479541Y-86326710D01*
X139502756Y-86321326D01*
X139560021Y-86313193D01*
X139560021Y-86721459D01*
X139560021Y-87129726D01*
X139210071Y-87137293D01*
X139173370Y-87138068D01*
X139047703Y-87140433D01*
X138942633Y-87141972D01*
X138868256Y-87142558D01*
X138834670Y-87142061D01*
X138831630Y-87140525D01*
X138821065Y-87104581D01*
X138816440Y-87026087D01*
X138818228Y-86911670D01*
X138819840Y-86848554D01*
X138812701Y-86699322D01*
X138786179Y-86587612D01*
X138737630Y-86505395D01*
X138664408Y-86444640D01*
X138597018Y-86414107D01*
X138478537Y-86395957D01*
X138358367Y-86411999D01*
X138251705Y-86459422D01*
X138173749Y-86535413D01*
X138156403Y-86565909D01*
X138117576Y-86685187D01*
X138102801Y-86827343D01*
X138112830Y-86975322D01*
X138148411Y-87112074D01*
X138152397Y-87124115D01*
X138145552Y-87149953D01*
X138098687Y-87156613D01*
X138070165Y-87153361D01*
X138028266Y-87126686D01*
X138001153Y-87068030D01*
X137986660Y-86971314D01*
X137982624Y-86830457D01*
X137992476Y-86684511D01*
X138034547Y-86526453D01*
X138110741Y-86404962D01*
X138222193Y-86318385D01*
X138370035Y-86265066D01*
X138427407Y-86254764D01*
X138582036Y-86255329D01*
G37*
G36*
X166628913Y-85939304D02*
G01*
X166673561Y-85951621D01*
X166704817Y-85982402D01*
X166724243Y-86039624D01*
X166734559Y-86131398D01*
X166738488Y-86265831D01*
X166737497Y-86327367D01*
X166711631Y-86501555D01*
X166650542Y-86639819D01*
X166553431Y-86743536D01*
X166419498Y-86814078D01*
X166324160Y-86839605D01*
X166172934Y-86845527D01*
X166034899Y-86809240D01*
X165918245Y-86733435D01*
X165831159Y-86620802D01*
X165803211Y-86562849D01*
X165783960Y-86498070D01*
X165776970Y-86420144D01*
X165779104Y-86310370D01*
X165787553Y-86113126D01*
X165539218Y-86113126D01*
X165290883Y-86113126D01*
X165290883Y-86443988D01*
X165290883Y-86774849D01*
X165227255Y-86774849D01*
X165163628Y-86774849D01*
X165163628Y-86383542D01*
X165163628Y-85992234D01*
X165243162Y-85976327D01*
X165289820Y-85970774D01*
X165379723Y-85965409D01*
X165494843Y-85961764D01*
X165621379Y-85960421D01*
X165920062Y-85960421D01*
X165907641Y-86197888D01*
X165905196Y-86302124D01*
X165918745Y-86454830D01*
X165957482Y-86567077D01*
X166023965Y-86642600D01*
X166120749Y-86685130D01*
X166250390Y-86698402D01*
X166383405Y-86680553D01*
X166490180Y-86624298D01*
X166563361Y-86530214D01*
X166602482Y-86398909D01*
X166607078Y-86230994D01*
X166598236Y-86132104D01*
X166586859Y-86045195D01*
X166575500Y-85990206D01*
X166567235Y-85957664D01*
X166578974Y-85937820D01*
X166628913Y-85939304D01*
G37*
G36*
X138085684Y-85050467D02*
G01*
X138097207Y-85067865D01*
X138104202Y-85106525D01*
X138107799Y-85173858D01*
X138109128Y-85277274D01*
X138109320Y-85424181D01*
X138109591Y-85494139D01*
X138111555Y-85618163D01*
X138115107Y-85717619D01*
X138119875Y-85783728D01*
X138125490Y-85807715D01*
X138143268Y-85796566D01*
X138192191Y-85757221D01*
X138263278Y-85696173D01*
X138348186Y-85620439D01*
X138405687Y-85568843D01*
X138592289Y-85409760D01*
X138757538Y-85282359D01*
X138897871Y-85189264D01*
X139009727Y-85133097D01*
X139144997Y-85100761D01*
X139284277Y-85112081D01*
X139409445Y-85171574D01*
X139516595Y-85278122D01*
X139538981Y-85317745D01*
X139567603Y-85420097D01*
X139578076Y-85544878D01*
X139569599Y-85675404D01*
X139541372Y-85794990D01*
X139532094Y-85820549D01*
X139502170Y-85885964D01*
X139469540Y-85918347D01*
X139422902Y-85930635D01*
X139388633Y-85933293D01*
X139362425Y-85924558D01*
X139369075Y-85892459D01*
X139431181Y-85712377D01*
X139453957Y-85558002D01*
X139436266Y-85432904D01*
X139378201Y-85337739D01*
X139279857Y-85273162D01*
X139200843Y-85253197D01*
X139112685Y-85258279D01*
X139012315Y-85291078D01*
X138895598Y-85353822D01*
X138758400Y-85448737D01*
X138596587Y-85578053D01*
X138406026Y-85743996D01*
X138342135Y-85801320D01*
X138224740Y-85904704D01*
X138137294Y-85973414D01*
X138075391Y-86005132D01*
X138034624Y-85997542D01*
X138010587Y-85948327D01*
X137998874Y-85855168D01*
X137995077Y-85715750D01*
X137994791Y-85527755D01*
X137994803Y-85452718D01*
X137995212Y-85306651D01*
X137996826Y-85201624D01*
X138000476Y-85130684D01*
X138006992Y-85086881D01*
X138017207Y-85063263D01*
X138031951Y-85052880D01*
X138052055Y-85048781D01*
X138068503Y-85046923D01*
X138085684Y-85050467D01*
G37*
G36*
X166719827Y-85189409D02*
G01*
X166678069Y-85288492D01*
X166616209Y-85354332D01*
X166605279Y-85361407D01*
X166567856Y-85396697D01*
X166579450Y-85418496D01*
X166639781Y-85425952D01*
X166672983Y-85427471D01*
X166707916Y-85444106D01*
X166716133Y-85489579D01*
X166716133Y-85553206D01*
X165876253Y-85553206D01*
X165036374Y-85553206D01*
X165036374Y-85489579D01*
X165036374Y-85425952D01*
X165382223Y-85425952D01*
X165728073Y-85425952D01*
X165662853Y-85348442D01*
X165607897Y-85266686D01*
X165561971Y-85132910D01*
X165559942Y-85073802D01*
X165671758Y-85073802D01*
X165691807Y-85179372D01*
X165750820Y-85274530D01*
X165849443Y-85348905D01*
X165958691Y-85390940D01*
X166102520Y-85413194D01*
X166246155Y-85404766D01*
X166380010Y-85368469D01*
X166494503Y-85307119D01*
X166580047Y-85223530D01*
X166627060Y-85120517D01*
X166630755Y-85077040D01*
X166609271Y-84979109D01*
X166555934Y-84882272D01*
X166478994Y-84804158D01*
X166459826Y-84792261D01*
X166369213Y-84760816D01*
X166250258Y-84742842D01*
X166119132Y-84739074D01*
X165992003Y-84750250D01*
X165885039Y-84777105D01*
X165838939Y-84798323D01*
X165745969Y-84872907D01*
X165690027Y-84968190D01*
X165671758Y-85073802D01*
X165559942Y-85073802D01*
X165557200Y-84993895D01*
X165591895Y-84860332D01*
X165664364Y-84742911D01*
X165772919Y-84652324D01*
X165814936Y-84633714D01*
X165917803Y-84608258D01*
X166044594Y-84592249D01*
X166178592Y-84586767D01*
X166303081Y-84592891D01*
X166401344Y-84611704D01*
X166418655Y-84617569D01*
X166542617Y-84678913D01*
X166642986Y-84761985D01*
X166706108Y-84855844D01*
X166732527Y-84949766D01*
X166738855Y-85071646D01*
X166737983Y-85077040D01*
X166719827Y-85189409D01*
G37*
G36*
X139514123Y-84148314D02*
G01*
X139442457Y-84208611D01*
X139339903Y-84284239D01*
X139202316Y-84378997D01*
X139025552Y-84496682D01*
X138935439Y-84555814D01*
X138769003Y-84662776D01*
X138639295Y-84742358D01*
X138543279Y-84796309D01*
X138477919Y-84826381D01*
X138440181Y-84834326D01*
X138376554Y-84827855D01*
X138369511Y-84452455D01*
X138362468Y-84077054D01*
X138491083Y-84077054D01*
X138491083Y-84382465D01*
X138491084Y-84385787D01*
X138492647Y-84503133D01*
X138496759Y-84598957D01*
X138502805Y-84663468D01*
X138510171Y-84686875D01*
X138520988Y-84682032D01*
X138572241Y-84651620D01*
X138663440Y-84594059D01*
X138793192Y-84510251D01*
X138960106Y-84401099D01*
X139162792Y-84267502D01*
X139399859Y-84110364D01*
X139407184Y-84101105D01*
X139391650Y-84092505D01*
X139344917Y-84086313D01*
X139262061Y-84082165D01*
X139138159Y-84079699D01*
X138968288Y-84078550D01*
X138491083Y-84077054D01*
X138362468Y-84077054D01*
X138184992Y-84077054D01*
X138007516Y-84077054D01*
X138007516Y-84000701D01*
X138007516Y-83924348D01*
X138185672Y-83924348D01*
X138363829Y-83924348D01*
X138363829Y-83809819D01*
X138364072Y-83778928D01*
X138369590Y-83723370D01*
X138388193Y-83700037D01*
X138427456Y-83695290D01*
X138441420Y-83695560D01*
X138474321Y-83704590D01*
X138488220Y-83736742D01*
X138491083Y-83805860D01*
X138491083Y-83916430D01*
X138853758Y-83933022D01*
X138875593Y-83934007D01*
X139025174Y-83940112D01*
X139171089Y-83945091D01*
X139297614Y-83948452D01*
X139389026Y-83949706D01*
X139428555Y-83950036D01*
X139510946Y-83955048D01*
X139557020Y-83967911D01*
X139577411Y-83990954D01*
X139585235Y-84021434D01*
X139581368Y-84058524D01*
X139559045Y-84099551D01*
X139557613Y-84101105D01*
X139514123Y-84148314D01*
G37*
G36*
X165271164Y-83718617D02*
G01*
X165278157Y-84123708D01*
X165990783Y-83810727D01*
X166094048Y-83765387D01*
X166273850Y-83686705D01*
X166414379Y-83625998D01*
X166520556Y-83581564D01*
X166597301Y-83551703D01*
X166649534Y-83534714D01*
X166682177Y-83528894D01*
X166700148Y-83532543D01*
X166708369Y-83543959D01*
X166711760Y-83561442D01*
X166712023Y-83607229D01*
X166698274Y-83646977D01*
X166693803Y-83649988D01*
X166651463Y-83671472D01*
X166570348Y-83709550D01*
X166456416Y-83761523D01*
X166315625Y-83824689D01*
X166153933Y-83896347D01*
X165977297Y-83973798D01*
X165929608Y-83994527D01*
X165751032Y-84070806D01*
X165587965Y-84138402D01*
X165446595Y-84194885D01*
X165333107Y-84237825D01*
X165253690Y-84264793D01*
X165214530Y-84273358D01*
X165150903Y-84267936D01*
X165143978Y-83790731D01*
X165137054Y-83313527D01*
X165200613Y-83313527D01*
X165264171Y-83313527D01*
X165271164Y-83718617D01*
G37*
G36*
X157262609Y-78167114D02*
G01*
X157397904Y-78234738D01*
X157735022Y-78403050D01*
X158058993Y-78564536D01*
X158366877Y-78717741D01*
X158655732Y-78861213D01*
X158922616Y-78993499D01*
X159164587Y-79113145D01*
X159378704Y-79218697D01*
X159562026Y-79308704D01*
X159711611Y-79381711D01*
X159824517Y-79436264D01*
X159897802Y-79470912D01*
X159928526Y-79484200D01*
X159946125Y-79487761D01*
X159976094Y-79484456D01*
X160004689Y-79460125D01*
X160039770Y-79406508D01*
X160089194Y-79315345D01*
X160125392Y-79250002D01*
X160274400Y-79038241D01*
X160449366Y-78868020D01*
X160648041Y-78741647D01*
X160679439Y-78726321D01*
X160772928Y-78685210D01*
X160856115Y-78659908D01*
X160949399Y-78645373D01*
X161073180Y-78636564D01*
X161092460Y-78635662D01*
X161340316Y-78645633D01*
X161562085Y-78697864D01*
X161759638Y-78793519D01*
X161934847Y-78933760D01*
X162089581Y-79119749D01*
X162225713Y-79352649D01*
X162260920Y-79424157D01*
X162301486Y-79512827D01*
X162327339Y-79586438D01*
X162342594Y-79661471D01*
X162351363Y-79754409D01*
X162357761Y-79881737D01*
X162360012Y-79945652D01*
X162356068Y-80165807D01*
X162329323Y-80354552D01*
X162276077Y-80524708D01*
X162192630Y-80689095D01*
X162075282Y-80860532D01*
X161912759Y-81036410D01*
X161718444Y-81173984D01*
X161493425Y-81271273D01*
X161237005Y-81328667D01*
X161149868Y-81340929D01*
X161043336Y-81357670D01*
X160974432Y-81372509D01*
X160935141Y-81387980D01*
X160917445Y-81406615D01*
X160913328Y-81430949D01*
X160914542Y-81441574D01*
X160930594Y-81498398D01*
X160961384Y-81582581D01*
X161001922Y-81680097D01*
X161078347Y-81878328D01*
X161146179Y-82152422D01*
X161164934Y-82414210D01*
X161134688Y-82663188D01*
X161055518Y-82898850D01*
X160927502Y-83120690D01*
X160750716Y-83328202D01*
X160744762Y-83334102D01*
X160556529Y-83494575D01*
X160366952Y-83605324D01*
X160174099Y-83667489D01*
X160096965Y-83681231D01*
X159997392Y-83690902D01*
X159899929Y-83686390D01*
X159779074Y-83667707D01*
X159578684Y-83611777D01*
X159363294Y-83505338D01*
X159169190Y-83358676D01*
X159003255Y-83177118D01*
X158872371Y-82965991D01*
X158856695Y-82934205D01*
X158814276Y-82843344D01*
X158786936Y-82768932D01*
X158770645Y-82694133D01*
X158761375Y-82602113D01*
X158755096Y-82476037D01*
X158751911Y-82349894D01*
X158760163Y-82128047D01*
X158790407Y-81938063D01*
X158845633Y-81769316D01*
X158928832Y-81611184D01*
X159042992Y-81453042D01*
X159070276Y-81419002D01*
X159127804Y-81345165D01*
X159167723Y-81290915D01*
X159182666Y-81266113D01*
X159160983Y-81253403D01*
X159096661Y-81219437D01*
X158992652Y-81165737D01*
X158851914Y-81093794D01*
X158677401Y-81005105D01*
X158472071Y-80901162D01*
X158238880Y-80783460D01*
X157980783Y-80653493D01*
X157700737Y-80512756D01*
X157401698Y-80362742D01*
X157086623Y-80204945D01*
X156758468Y-80040861D01*
X156338889Y-79831102D01*
X155813525Y-79568062D01*
X155326834Y-79323908D01*
X154879401Y-79098938D01*
X154471808Y-78893449D01*
X154104641Y-78707738D01*
X153778483Y-78542104D01*
X153493919Y-78396842D01*
X153251531Y-78272252D01*
X153051904Y-78168629D01*
X152895622Y-78086273D01*
X152783269Y-78025480D01*
X152715429Y-77986547D01*
X152692686Y-77969773D01*
X152701960Y-77959063D01*
X152745828Y-77930620D01*
X152813578Y-77895021D01*
X152817809Y-77892940D01*
X152872587Y-77864241D01*
X152965223Y-77814078D01*
X153090035Y-77745591D01*
X153241338Y-77661923D01*
X153413449Y-77566215D01*
X153600684Y-77461609D01*
X153797359Y-77351246D01*
X154660248Y-76865980D01*
X157262609Y-78167114D01*
G37*
G36*
X158065088Y-68952887D02*
G01*
X158190811Y-69471068D01*
X158267819Y-70003314D01*
X158286050Y-70276567D01*
X158289679Y-70629265D01*
X158274581Y-70990754D01*
X158274423Y-70994548D01*
X158241365Y-71357077D01*
X158191585Y-71701511D01*
X158126165Y-72012509D01*
X158109998Y-72078393D01*
X158089090Y-72170605D01*
X158076562Y-72235745D01*
X158074693Y-72262735D01*
X158084958Y-72260112D01*
X158132718Y-72237948D01*
X158212286Y-72197128D01*
X158315966Y-72141639D01*
X158436065Y-72075468D01*
X158566280Y-72002715D01*
X158750963Y-71899323D01*
X158946199Y-71789826D01*
X159146494Y-71677322D01*
X159346350Y-71564908D01*
X159540272Y-71455685D01*
X159722763Y-71352750D01*
X159888327Y-71259201D01*
X160031468Y-71178137D01*
X160146689Y-71112656D01*
X160228495Y-71065857D01*
X160271389Y-71040837D01*
X160354802Y-70990277D01*
X160262220Y-70887800D01*
X160165454Y-70753414D01*
X160079634Y-70570937D01*
X160017457Y-70362608D01*
X159981407Y-70139627D01*
X159973968Y-69913197D01*
X159997622Y-69694516D01*
X160007541Y-69647456D01*
X160079668Y-69436456D01*
X160195971Y-69239723D01*
X160359785Y-69051336D01*
X160374207Y-69037252D01*
X160570281Y-68873238D01*
X160772021Y-68753310D01*
X160975121Y-68679568D01*
X161175272Y-68654109D01*
X161273255Y-68660428D01*
X161410680Y-68682549D01*
X161553146Y-68716261D01*
X161682017Y-68757046D01*
X161778658Y-68800388D01*
X161952518Y-68922920D01*
X162128347Y-69099962D01*
X162272766Y-69307846D01*
X162378444Y-69537561D01*
X162406663Y-69635122D01*
X162435375Y-69819208D01*
X162441829Y-70018927D01*
X162427525Y-70223481D01*
X162393962Y-70422075D01*
X162342641Y-70603912D01*
X162275063Y-70758197D01*
X162192726Y-70874133D01*
X162180379Y-70887410D01*
X162145439Y-70931242D01*
X162136826Y-70953983D01*
X162157252Y-70959039D01*
X162219465Y-70968117D01*
X162312617Y-70979177D01*
X162425923Y-70990842D01*
X162526010Y-71002618D01*
X162734764Y-71046456D01*
X162912462Y-71116917D01*
X163070428Y-71219245D01*
X163219989Y-71358688D01*
X163223438Y-71362396D01*
X163386268Y-71573535D01*
X163502771Y-71805699D01*
X163572790Y-72058478D01*
X163596164Y-72331463D01*
X163594741Y-72409564D01*
X163573752Y-72610940D01*
X163523666Y-72800755D01*
X163439351Y-73000926D01*
X163355930Y-73151615D01*
X163205916Y-73346236D01*
X163028750Y-73497810D01*
X162824614Y-73606219D01*
X162593693Y-73671350D01*
X162336170Y-73693086D01*
X162270988Y-73692105D01*
X162113696Y-73677439D01*
X161975934Y-73640688D01*
X161840427Y-73576102D01*
X161689896Y-73477926D01*
X161572200Y-73382759D01*
X161399837Y-73191207D01*
X161258285Y-72959386D01*
X161190417Y-72823782D01*
X161123908Y-72867360D01*
X161099513Y-72881900D01*
X161032593Y-72920537D01*
X160927466Y-72980689D01*
X160787442Y-73060478D01*
X160615835Y-73158024D01*
X160415955Y-73271449D01*
X160191113Y-73398872D01*
X159944621Y-73538417D01*
X159679790Y-73688203D01*
X159399933Y-73846352D01*
X159108359Y-74010985D01*
X158444168Y-74385857D01*
X157735318Y-74785932D01*
X157067500Y-75162847D01*
X156438967Y-75517585D01*
X155847974Y-75851134D01*
X155292772Y-76164479D01*
X154771616Y-76458605D01*
X154282758Y-76734498D01*
X153824452Y-76993144D01*
X153394951Y-77235529D01*
X152992508Y-77462638D01*
X152615376Y-77675456D01*
X152261809Y-77874970D01*
X151930060Y-78062165D01*
X151618382Y-78238027D01*
X151325028Y-78403542D01*
X151048251Y-78559695D01*
X150786306Y-78707471D01*
X150537444Y-78847857D01*
X150299919Y-78981838D01*
X150071985Y-79110400D01*
X149851894Y-79234529D01*
X149637900Y-79355209D01*
X149428256Y-79473428D01*
X149221215Y-79590170D01*
X149015031Y-79706421D01*
X148962220Y-79736196D01*
X148558565Y-79963772D01*
X148196680Y-80167813D01*
X147874288Y-80349639D01*
X147589109Y-80510568D01*
X147338866Y-80651921D01*
X147121280Y-80775016D01*
X146934073Y-80881172D01*
X146774966Y-80971709D01*
X146641681Y-81047946D01*
X146531939Y-81111201D01*
X146443462Y-81162795D01*
X146373971Y-81204046D01*
X146321189Y-81236274D01*
X146282837Y-81260798D01*
X146256636Y-81278936D01*
X146240308Y-81292009D01*
X146231574Y-81301335D01*
X146228157Y-81308234D01*
X146227778Y-81314025D01*
X146228157Y-81320026D01*
X146230690Y-81339811D01*
X146244386Y-81403949D01*
X146267294Y-81496534D01*
X146296376Y-81604879D01*
X146328415Y-81743293D01*
X146358843Y-81966233D01*
X146368230Y-82194307D01*
X146356137Y-82410559D01*
X146322125Y-82598038D01*
X146281326Y-82727646D01*
X146185710Y-82943390D01*
X146064651Y-83136733D01*
X145923729Y-83300576D01*
X145768522Y-83427815D01*
X145604610Y-83511350D01*
X145555757Y-83524256D01*
X145441150Y-83537518D01*
X145309728Y-83538312D01*
X145182307Y-83526942D01*
X145079704Y-83503710D01*
X145063275Y-83497791D01*
X144875644Y-83401538D01*
X144710086Y-83262292D01*
X144569085Y-83083819D01*
X144455129Y-82869882D01*
X144370702Y-82624247D01*
X144318291Y-82350676D01*
X144308633Y-82250960D01*
X144310809Y-81967167D01*
X144356004Y-81693572D01*
X144442472Y-81438146D01*
X144568467Y-81208861D01*
X144577561Y-81195447D01*
X144627320Y-81120591D01*
X144662385Y-81065377D01*
X144675652Y-81040933D01*
X144665038Y-81040153D01*
X144614503Y-81046776D01*
X144531809Y-81061194D01*
X144427506Y-81081672D01*
X144369063Y-81093407D01*
X144260163Y-81112066D01*
X144175112Y-81119279D01*
X144096112Y-81115945D01*
X144005363Y-81102961D01*
X143976667Y-81097764D01*
X143758353Y-81034590D01*
X143565717Y-80931445D01*
X143388470Y-80782990D01*
X143328916Y-80719338D01*
X143187145Y-80520666D01*
X143090717Y-80303716D01*
X143040384Y-80073492D01*
X143036900Y-79834998D01*
X143081016Y-79593239D01*
X143173486Y-79353219D01*
X143280091Y-79184153D01*
X143421396Y-79032779D01*
X143587883Y-78905424D01*
X143770840Y-78806779D01*
X143961554Y-78741532D01*
X144151311Y-78714372D01*
X144331400Y-78729991D01*
X144509769Y-78785485D01*
X144713993Y-78887272D01*
X144899523Y-79020563D01*
X145055846Y-79177600D01*
X145172451Y-79350625D01*
X145211739Y-79420499D01*
X145248252Y-79474954D01*
X145270650Y-79495831D01*
X145293062Y-79488633D01*
X145349567Y-79461917D01*
X145423356Y-79422238D01*
X145431469Y-79417653D01*
X145690922Y-79271088D01*
X145973944Y-79111266D01*
X146275314Y-78941134D01*
X146589809Y-78763636D01*
X146912207Y-78581717D01*
X147237284Y-78398324D01*
X147559820Y-78216401D01*
X147874592Y-78038893D01*
X148176377Y-77868747D01*
X148459952Y-77708907D01*
X148720096Y-77562319D01*
X148951587Y-77431927D01*
X149149201Y-77320679D01*
X149307716Y-77231517D01*
X149386310Y-77187313D01*
X149711680Y-77003690D01*
X150004395Y-76837447D01*
X150262954Y-76689462D01*
X150485855Y-76560613D01*
X150671596Y-76451780D01*
X150818676Y-76363840D01*
X150925592Y-76297672D01*
X150990843Y-76254154D01*
X151012927Y-76234164D01*
X151007765Y-76225997D01*
X150966690Y-76204398D01*
X150896655Y-76180644D01*
X150812218Y-76158742D01*
X150727933Y-76142701D01*
X150658358Y-76136529D01*
X150640084Y-76137829D01*
X150575652Y-76154399D01*
X150484161Y-76191846D01*
X150360406Y-76252458D01*
X150199181Y-76338527D01*
X149830826Y-76540367D01*
X146693642Y-74962319D01*
X146452458Y-74841088D01*
X146085911Y-74657183D01*
X145733391Y-74480725D01*
X145397515Y-74313005D01*
X145080901Y-74155314D01*
X144786166Y-74008945D01*
X144515927Y-73875191D01*
X144272802Y-73755342D01*
X144059407Y-73650691D01*
X143878361Y-73562529D01*
X143732280Y-73492150D01*
X143623781Y-73440845D01*
X143555483Y-73409905D01*
X143530001Y-73400623D01*
X143523816Y-73406551D01*
X143494574Y-73449433D01*
X143452647Y-73522190D01*
X143404919Y-73613130D01*
X143393219Y-73635978D01*
X143253631Y-73858146D01*
X143089813Y-74040677D01*
X142906235Y-74182328D01*
X142707364Y-74281854D01*
X142497668Y-74338015D01*
X142281616Y-74349565D01*
X142063675Y-74315263D01*
X141848314Y-74233865D01*
X141640002Y-74104128D01*
X141533608Y-74010567D01*
X141395159Y-73849722D01*
X141277377Y-73667456D01*
X141192529Y-73480854D01*
X141181437Y-73447831D01*
X141159628Y-73365699D01*
X141146217Y-73276292D01*
X141139486Y-73165102D01*
X141137719Y-73017621D01*
X141141590Y-72855400D01*
X141163717Y-72640002D01*
X141208800Y-72455787D01*
X141280634Y-72292524D01*
X141383016Y-72139984D01*
X141519740Y-71987933D01*
X141534547Y-71973294D01*
X141718844Y-71820144D01*
X141912658Y-71714354D01*
X142123685Y-71652658D01*
X142359620Y-71631795D01*
X142449262Y-71629323D01*
X142533218Y-71618529D01*
X142572715Y-71596978D01*
X142571252Y-71562237D01*
X142532331Y-71511876D01*
X142519724Y-71498188D01*
X142430021Y-71364310D01*
X142361413Y-71194988D01*
X142314569Y-71000197D01*
X142290160Y-70789914D01*
X142288857Y-70574114D01*
X142311330Y-70362771D01*
X142358249Y-70165863D01*
X142430285Y-69993364D01*
X142472151Y-69925958D01*
X142561721Y-69810605D01*
X142671226Y-69691672D01*
X142788866Y-69580801D01*
X142902845Y-69489635D01*
X143001365Y-69429816D01*
X143229556Y-69348645D01*
X143458474Y-69315512D01*
X143681493Y-69330275D01*
X143894912Y-69391432D01*
X144095030Y-69497480D01*
X144278147Y-69646918D01*
X144440561Y-69838243D01*
X144578571Y-70069954D01*
X144688378Y-70291553D01*
X144687555Y-70637059D01*
X144687149Y-70692062D01*
X144678970Y-70892138D01*
X144658205Y-71056929D01*
X144622017Y-71198353D01*
X144567568Y-71328332D01*
X144492024Y-71458786D01*
X144487786Y-71465386D01*
X144441451Y-71544270D01*
X144411498Y-71607732D01*
X144404236Y-71642567D01*
X144405352Y-71644347D01*
X144437331Y-71667907D01*
X144508816Y-71710610D01*
X144615107Y-71770078D01*
X144751504Y-71843937D01*
X144913306Y-71929811D01*
X145095816Y-72025323D01*
X145294332Y-72128099D01*
X145504156Y-72235762D01*
X145720587Y-72345936D01*
X145938926Y-72456247D01*
X146154474Y-72564317D01*
X146362530Y-72667771D01*
X146558395Y-72764234D01*
X146737369Y-72851330D01*
X146894752Y-72926683D01*
X147025846Y-72987917D01*
X147125950Y-73032656D01*
X147190364Y-73058525D01*
X147214389Y-73063148D01*
X147214587Y-73062198D01*
X147207358Y-73027252D01*
X147184672Y-72955808D01*
X147149866Y-72857748D01*
X147106276Y-72742952D01*
X146959772Y-72314388D01*
X146838956Y-71825828D01*
X146759911Y-71324250D01*
X146734668Y-70982229D01*
X148008294Y-70982229D01*
X148031406Y-71078214D01*
X148092493Y-71166774D01*
X148189147Y-71237731D01*
X148199793Y-71243367D01*
X148227076Y-71261160D01*
X148249407Y-71285881D01*
X148269322Y-71324683D01*
X148289355Y-71384722D01*
X148312042Y-71473153D01*
X148339917Y-71597131D01*
X148375515Y-71763812D01*
X148462941Y-72095009D01*
X148611149Y-72481328D01*
X148802774Y-72847489D01*
X149035020Y-73190881D01*
X149305091Y-73508896D01*
X149610189Y-73798924D01*
X149947518Y-74058356D01*
X150314282Y-74284584D01*
X150707683Y-74474996D01*
X151124925Y-74626986D01*
X151563212Y-74737942D01*
X151663693Y-74754630D01*
X151834584Y-74774162D01*
X152032303Y-74789459D01*
X152243973Y-74800077D01*
X152456720Y-74805569D01*
X152657665Y-74805487D01*
X152833932Y-74799386D01*
X152972646Y-74786819D01*
X153002639Y-74782574D01*
X153440390Y-74696059D01*
X153869149Y-74566314D01*
X154280913Y-74396608D01*
X154667679Y-74190207D01*
X155021444Y-73950378D01*
X155261005Y-73748937D01*
X155497385Y-73515161D01*
X155718529Y-73262356D01*
X155913646Y-73002864D01*
X156071942Y-72749028D01*
X156140577Y-72617986D01*
X156207311Y-72472859D01*
X156268859Y-72316478D01*
X156327830Y-72141035D01*
X156386834Y-71938724D01*
X156448481Y-71701736D01*
X156515378Y-71422265D01*
X156526143Y-71386320D01*
X156568716Y-71317383D01*
X156647230Y-71251912D01*
X156735783Y-71181375D01*
X156812980Y-71085121D01*
X156839796Y-70990754D01*
X156816341Y-70900257D01*
X156742725Y-70815618D01*
X156619055Y-70738822D01*
X156520706Y-70703817D01*
X156368225Y-70678579D01*
X156203444Y-70675418D01*
X156045254Y-70694417D01*
X155912542Y-70735662D01*
X155843589Y-70769876D01*
X155736921Y-70840824D01*
X155679834Y-70913872D01*
X155671483Y-70992272D01*
X155711024Y-71079272D01*
X155797612Y-71178125D01*
X155868233Y-71239538D01*
X155932490Y-71283807D01*
X155975768Y-71300701D01*
X156007221Y-71311256D01*
X156024307Y-71350339D01*
X156022614Y-71422680D01*
X156001980Y-71532900D01*
X155962241Y-71685616D01*
X155848400Y-72039575D01*
X155707727Y-72371738D01*
X155539672Y-72674566D01*
X155338913Y-72957595D01*
X155100129Y-73230359D01*
X154869945Y-73452444D01*
X154529317Y-73723346D01*
X154165848Y-73949845D01*
X153781575Y-74130719D01*
X153378533Y-74264742D01*
X153155431Y-74314096D01*
X152845759Y-74355710D01*
X152519287Y-74373753D01*
X152188545Y-74368516D01*
X151866063Y-74340293D01*
X151564371Y-74289377D01*
X151296000Y-74216061D01*
X151219856Y-74188708D01*
X150995522Y-74095574D01*
X150757675Y-73981283D01*
X150524389Y-73854866D01*
X150313741Y-73725352D01*
X150146299Y-73603931D01*
X149915520Y-73405353D01*
X149690799Y-73178779D01*
X149482528Y-72935699D01*
X149301099Y-72687606D01*
X149156902Y-72445992D01*
X149123640Y-72378289D01*
X149059606Y-72229955D01*
X148996030Y-72062755D01*
X148937200Y-71889651D01*
X148887406Y-71723606D01*
X148850939Y-71577583D01*
X148832089Y-71464544D01*
X148817121Y-71304265D01*
X148935732Y-71248512D01*
X149023027Y-71198241D01*
X149111098Y-71113433D01*
X149153067Y-71020936D01*
X149149669Y-70927290D01*
X149101638Y-70839031D01*
X149009710Y-70762700D01*
X148874619Y-70704834D01*
X148869508Y-70703335D01*
X148700499Y-70671307D01*
X148524441Y-70667425D01*
X148354664Y-70689952D01*
X148204500Y-70737155D01*
X148087280Y-70807298D01*
X148085632Y-70808698D01*
X148025567Y-70888998D01*
X148008294Y-70982229D01*
X146734668Y-70982229D01*
X146722348Y-70815298D01*
X146725980Y-70304618D01*
X146770519Y-69797855D01*
X146855677Y-69300655D01*
X146981166Y-68818664D01*
X147052998Y-68618555D01*
X149111511Y-68618555D01*
X149113464Y-68818565D01*
X149157869Y-69044706D01*
X149246329Y-69248888D01*
X149376612Y-69428159D01*
X149546481Y-69579569D01*
X149753704Y-69700167D01*
X149996045Y-69787000D01*
X150117148Y-69812642D01*
X150350603Y-69826370D01*
X150577297Y-69795540D01*
X150791492Y-69723699D01*
X150987453Y-69614392D01*
X151159441Y-69471164D01*
X151301721Y-69297561D01*
X151408555Y-69097129D01*
X151474207Y-68873414D01*
X151487502Y-68769403D01*
X151481172Y-68618565D01*
X153121200Y-68618565D01*
X153122862Y-68769403D01*
X153123514Y-68828538D01*
X153167989Y-69033414D01*
X153251781Y-69227164D01*
X153372046Y-69403763D01*
X153525940Y-69557185D01*
X153710619Y-69681401D01*
X153923239Y-69770387D01*
X154125507Y-69817748D01*
X154374961Y-69834459D01*
X154613549Y-69803877D01*
X154837256Y-69727027D01*
X155042066Y-69604933D01*
X155223963Y-69438620D01*
X155339224Y-69293459D01*
X155421169Y-69141889D01*
X155468459Y-68976446D01*
X155487532Y-68781062D01*
X155485511Y-68635704D01*
X155448222Y-68401575D01*
X155367916Y-68194655D01*
X155244577Y-68014919D01*
X155078189Y-67862340D01*
X154868738Y-67736893D01*
X154774765Y-67697573D01*
X154573073Y-67644224D01*
X154356117Y-67620509D01*
X154137979Y-67626535D01*
X153932744Y-67662413D01*
X153754496Y-67728251D01*
X153741576Y-67735036D01*
X153628812Y-67810830D01*
X153506831Y-67916267D01*
X153388855Y-68037860D01*
X153288107Y-68162126D01*
X153217811Y-68275580D01*
X153163891Y-68409519D01*
X153121200Y-68618565D01*
X151481172Y-68618565D01*
X151478464Y-68554029D01*
X151421482Y-68344844D01*
X151318511Y-68147696D01*
X151171507Y-67968435D01*
X151088363Y-67891799D01*
X150896038Y-67758905D01*
X150683307Y-67669695D01*
X150446293Y-67622790D01*
X150181116Y-67616813D01*
X150169626Y-67617401D01*
X150047081Y-67626728D01*
X149952386Y-67643089D01*
X149864199Y-67671594D01*
X149761176Y-67717354D01*
X149749029Y-67723216D01*
X149537022Y-67851123D01*
X149365518Y-68007036D01*
X149236266Y-68188529D01*
X149151015Y-68393177D01*
X149111511Y-68618555D01*
X147052998Y-68618555D01*
X147146699Y-68357526D01*
X147351988Y-67922887D01*
X147488453Y-67681553D01*
X147790492Y-67222246D01*
X148128661Y-66797075D01*
X148500776Y-66407692D01*
X148904655Y-66055750D01*
X149338118Y-65742901D01*
X149798980Y-65470796D01*
X150285060Y-65241089D01*
X150794176Y-65055431D01*
X151324146Y-64915475D01*
X151544539Y-64875999D01*
X151831870Y-64841739D01*
X152142754Y-64819623D01*
X152463275Y-64810032D01*
X152779516Y-64813345D01*
X153077560Y-64829946D01*
X153343489Y-64860213D01*
X153676206Y-64920837D01*
X154143740Y-65039614D01*
X154600059Y-65194024D01*
X155036480Y-65380637D01*
X155444322Y-65596023D01*
X155814902Y-65836750D01*
X155839773Y-65854755D01*
X156058111Y-66016399D01*
X156243034Y-66161416D01*
X156403993Y-66298176D01*
X156550439Y-66435049D01*
X156691819Y-66580406D01*
X156837585Y-66742617D01*
X157085962Y-67045707D01*
X157401087Y-67495183D01*
X157669681Y-67963701D01*
X157891196Y-68450017D01*
X158005671Y-68781062D01*
X158065088Y-68952887D01*
G37*
G36*
X139579266Y-83096459D02*
G01*
X139576528Y-83115266D01*
X139550041Y-83208096D01*
X139510274Y-83286454D01*
X139447460Y-83351231D01*
X139336634Y-83422997D01*
X139201352Y-83480563D01*
X139056091Y-83516593D01*
X139050027Y-83517507D01*
X138948346Y-83526688D01*
X138823555Y-83530079D01*
X138701258Y-83526933D01*
X138699472Y-83526827D01*
X138477811Y-83501042D01*
X138300454Y-83452157D01*
X138165741Y-83378923D01*
X138072011Y-83280094D01*
X138017604Y-83154420D01*
X138001833Y-83009595D01*
X138134771Y-83009595D01*
X138138230Y-83063063D01*
X138176718Y-83176264D01*
X138258326Y-83262929D01*
X138383668Y-83323833D01*
X138406207Y-83330815D01*
X138569754Y-83364135D01*
X138754021Y-83377921D01*
X138941935Y-83372530D01*
X139116424Y-83348315D01*
X139260416Y-83305630D01*
X139266006Y-83303214D01*
X139361993Y-83237000D01*
X139426220Y-83144757D01*
X139455239Y-83038675D01*
X139445603Y-82930940D01*
X139393866Y-82833741D01*
X139331187Y-82773493D01*
X139241697Y-82722580D01*
X139125825Y-82688889D01*
X138975779Y-82670259D01*
X138783769Y-82664529D01*
X138755470Y-82664640D01*
X138551397Y-82674199D01*
X138392186Y-82700479D01*
X138274377Y-82745319D01*
X138194511Y-82810559D01*
X138149129Y-82898038D01*
X138134771Y-83009595D01*
X138001833Y-83009595D01*
X138000860Y-83000656D01*
X138007017Y-82923429D01*
X138051992Y-82786500D01*
X138139361Y-82675545D01*
X138267765Y-82591325D01*
X138435842Y-82534599D01*
X138642232Y-82506128D01*
X138885572Y-82506670D01*
X138931716Y-82509883D01*
X139147647Y-82542023D01*
X139319940Y-82600043D01*
X139448923Y-82684219D01*
X139534921Y-82794829D01*
X139578259Y-82932150D01*
X139578912Y-83038675D01*
X139579266Y-83096459D01*
G37*
G36*
X166234155Y-82249616D02*
G01*
X166403305Y-82287308D01*
X166539295Y-82362753D01*
X166641062Y-82475244D01*
X166707540Y-82624073D01*
X166719589Y-82675421D01*
X166732809Y-82784483D01*
X166734318Y-82896614D01*
X166724300Y-82994237D01*
X166702941Y-83059773D01*
X166689245Y-83072151D01*
X166643770Y-83079094D01*
X166623256Y-83068730D01*
X166611088Y-83039043D01*
X166607280Y-82979800D01*
X166610038Y-82880440D01*
X166612498Y-82781572D01*
X166606983Y-82709420D01*
X166589992Y-82654985D01*
X166558384Y-82601289D01*
X166545701Y-82584095D01*
X166476228Y-82512445D01*
X166397244Y-82454000D01*
X166316974Y-82421166D01*
X166190781Y-82399699D01*
X166055461Y-82400897D01*
X165929486Y-82424261D01*
X165831330Y-82469291D01*
X165757067Y-82538150D01*
X165689088Y-82660110D01*
X165660959Y-82812810D01*
X165672938Y-82995390D01*
X165676782Y-83026467D01*
X165668552Y-83065024D01*
X165631425Y-83079441D01*
X165621676Y-83080340D01*
X165585428Y-83068720D01*
X165562150Y-83026297D01*
X165549651Y-82946505D01*
X165545739Y-82822779D01*
X165552767Y-82715378D01*
X165597559Y-82553930D01*
X165681288Y-82423437D01*
X165801138Y-82326646D01*
X165954295Y-82266300D01*
X166137943Y-82245148D01*
X166234155Y-82249616D01*
G37*
G36*
X139000101Y-81736230D02*
G01*
X138998083Y-81799572D01*
X138980803Y-81891693D01*
X138938748Y-81972458D01*
X138863430Y-82062105D01*
X138783769Y-82146856D01*
X138885572Y-82130788D01*
X138900007Y-82128457D01*
X139089864Y-82084834D01*
X139237012Y-82022339D01*
X139346809Y-81937970D01*
X139424619Y-81828721D01*
X139428520Y-81820652D01*
X139453422Y-81732863D01*
X139466080Y-81618936D01*
X139465272Y-81499845D01*
X139449778Y-81396566D01*
X139440779Y-81353411D01*
X139452757Y-81331635D01*
X139501254Y-81332939D01*
X139510944Y-81334197D01*
X139551792Y-81348053D01*
X139575001Y-81383692D01*
X139591199Y-81455611D01*
X139601798Y-81577866D01*
X139579552Y-81755563D01*
X139514905Y-81917188D01*
X139412226Y-82055664D01*
X139275883Y-82163914D01*
X139110244Y-82234862D01*
X139010949Y-82252512D01*
X138868189Y-82262357D01*
X138692868Y-82263243D01*
X138652336Y-82262372D01*
X138532842Y-82258213D01*
X138446647Y-82250557D01*
X138379944Y-82236838D01*
X138318926Y-82214495D01*
X138249788Y-82180962D01*
X138154598Y-82122603D01*
X138062488Y-82028224D01*
X138011829Y-81910471D01*
X137999953Y-81785544D01*
X138117014Y-81785544D01*
X138143098Y-81890113D01*
X138207252Y-81984447D01*
X138311957Y-82060070D01*
X138355400Y-82079780D01*
X138492589Y-82113531D01*
X138618015Y-82103968D01*
X138724872Y-82055305D01*
X138806357Y-81971760D01*
X138855664Y-81857545D01*
X138865989Y-81716877D01*
X138864285Y-81698817D01*
X138828285Y-81573892D01*
X138754273Y-81481567D01*
X138645148Y-81424340D01*
X138503809Y-81404709D01*
X138470781Y-81405848D01*
X138343740Y-81434445D01*
X138242362Y-81495189D01*
X138169127Y-81579605D01*
X138126517Y-81679215D01*
X138117014Y-81785544D01*
X137999953Y-81785544D01*
X137997622Y-81761022D01*
X137999635Y-81716918D01*
X138033411Y-81561984D01*
X138107241Y-81436086D01*
X138219504Y-81342283D01*
X138269156Y-81315846D01*
X138421245Y-81265433D01*
X138569066Y-81257708D01*
X138705645Y-81289151D01*
X138824011Y-81356243D01*
X138917191Y-81455466D01*
X138978211Y-81583302D01*
X138997331Y-81716877D01*
X139000101Y-81736230D01*
G37*
G36*
X166587709Y-81048478D02*
G01*
X166639197Y-81064241D01*
X166674953Y-81111653D01*
X166697853Y-81196965D01*
X166710775Y-81326430D01*
X166713060Y-81390415D01*
X166698917Y-81575969D01*
X166651045Y-81724644D01*
X166568769Y-81837976D01*
X166451417Y-81917502D01*
X166392812Y-81940296D01*
X166298465Y-81957647D01*
X166176115Y-81958289D01*
X166053598Y-81944566D01*
X165951004Y-81907496D01*
X165872276Y-81839942D01*
X165804444Y-81734081D01*
X165776799Y-81675250D01*
X165758526Y-81610886D01*
X165752467Y-81533278D01*
X165755696Y-81423797D01*
X165766032Y-81226553D01*
X165516471Y-81226553D01*
X165266909Y-81226553D01*
X165259808Y-81563777D01*
X165259389Y-81583543D01*
X165256154Y-81714240D01*
X165252004Y-81803344D01*
X165245398Y-81859120D01*
X165234796Y-81889834D01*
X165218657Y-81903751D01*
X165195442Y-81909135D01*
X165138177Y-81917267D01*
X165138177Y-81508283D01*
X165138177Y-81099298D01*
X165418137Y-81094208D01*
X165506759Y-81092618D01*
X165627412Y-81090520D01*
X165728171Y-81088841D01*
X165793538Y-81087845D01*
X165888979Y-81086573D01*
X165880563Y-81341082D01*
X165877770Y-81451133D01*
X165879321Y-81535447D01*
X165887618Y-81593794D01*
X165904623Y-81639196D01*
X165932295Y-81684669D01*
X165979964Y-81740631D01*
X166079039Y-81804047D01*
X166192126Y-81830076D01*
X166308218Y-81820323D01*
X166416310Y-81776395D01*
X166505396Y-81699896D01*
X166564470Y-81592434D01*
X166576561Y-81530420D01*
X166582626Y-81425834D01*
X166579915Y-81307124D01*
X166568992Y-81193872D01*
X166550424Y-81105661D01*
X166546817Y-81093587D01*
X166547138Y-81057399D01*
X166582794Y-81048396D01*
X166587709Y-81048478D01*
G37*
G36*
X138090369Y-80259919D02*
G01*
X138112639Y-80267785D01*
X138122816Y-80293847D01*
X138123548Y-80348949D01*
X138117479Y-80443938D01*
X138117349Y-80445733D01*
X138112195Y-80545900D01*
X138116371Y-80613018D01*
X138132845Y-80664292D01*
X138164587Y-80716929D01*
X138171376Y-80726639D01*
X138282114Y-80840594D01*
X138418173Y-80912795D01*
X138572879Y-80940856D01*
X138739557Y-80922394D01*
X138827128Y-80892104D01*
X138943461Y-80813447D01*
X139022802Y-80702092D01*
X139063044Y-80561479D01*
X139062084Y-80395051D01*
X139053303Y-80316003D01*
X139054957Y-80274981D01*
X139070949Y-80261367D01*
X139105061Y-80263591D01*
X139106805Y-80263840D01*
X139134756Y-80270609D01*
X139152051Y-80287809D01*
X139161243Y-80325557D01*
X139164885Y-80393971D01*
X139165532Y-80503168D01*
X139165114Y-80574750D01*
X139161126Y-80666360D01*
X139150302Y-80730993D01*
X139129504Y-80783760D01*
X139095590Y-80839774D01*
X139021395Y-80933800D01*
X138928162Y-81006709D01*
X138802626Y-81064645D01*
X138791264Y-81068590D01*
X138679534Y-81088621D01*
X138547165Y-81089001D01*
X138416974Y-81071057D01*
X138311777Y-81036115D01*
X138231466Y-80989730D01*
X138109709Y-80883249D01*
X138031054Y-80752331D01*
X137994114Y-80594194D01*
X137997501Y-80406056D01*
X138005473Y-80343719D01*
X138018493Y-80288948D01*
X138038796Y-80264817D01*
X138072468Y-80259419D01*
X138090369Y-80259919D01*
G37*
G36*
X165485644Y-79934407D02*
G01*
X165488946Y-79968679D01*
X165462785Y-80016850D01*
X165403869Y-80089942D01*
X165313249Y-80195791D01*
X166001966Y-80202563D01*
X166690682Y-80209335D01*
X166690682Y-80285278D01*
X166690682Y-80361222D01*
X165914430Y-80361222D01*
X165138177Y-80361222D01*
X165138177Y-80290403D01*
X165138334Y-80286006D01*
X165155805Y-80229165D01*
X165196438Y-80156678D01*
X165252005Y-80078424D01*
X165314273Y-80004282D01*
X165375013Y-79944132D01*
X165425994Y-79907853D01*
X165458987Y-79905324D01*
X165485644Y-79934407D01*
G37*
G36*
X139604793Y-79549349D02*
G01*
X139583693Y-79694229D01*
X139517768Y-79820634D01*
X139409888Y-79925369D01*
X139262924Y-80005241D01*
X139079747Y-80057055D01*
X139060916Y-80059992D01*
X138969077Y-80067710D01*
X138852876Y-80070856D01*
X138732867Y-80068739D01*
X138526649Y-80049114D01*
X138337862Y-80003404D01*
X138192267Y-79932108D01*
X138089153Y-79834728D01*
X138027807Y-79710764D01*
X138007516Y-79559715D01*
X138007968Y-79535000D01*
X138009450Y-79526672D01*
X138143091Y-79526672D01*
X138143299Y-79605193D01*
X138179846Y-79712643D01*
X138261404Y-79798026D01*
X138388466Y-79861786D01*
X138561523Y-79904366D01*
X138577532Y-79906901D01*
X138767481Y-79924161D01*
X138949660Y-79918740D01*
X139115800Y-79892501D01*
X139257631Y-79847306D01*
X139366885Y-79785019D01*
X139435293Y-79707503D01*
X139462712Y-79619811D01*
X139463515Y-79507966D01*
X139433090Y-79407419D01*
X139432360Y-79406064D01*
X139359455Y-79323405D01*
X139244016Y-79259785D01*
X139091209Y-79216670D01*
X138906204Y-79195526D01*
X138694170Y-79197820D01*
X138503782Y-79220530D01*
X138351889Y-79263608D01*
X138242721Y-79328050D01*
X138173911Y-79415267D01*
X138143091Y-79526672D01*
X138009450Y-79526672D01*
X138034294Y-79387060D01*
X138102276Y-79266197D01*
X138213463Y-79170434D01*
X138369401Y-79097794D01*
X138488452Y-79069689D01*
X138643326Y-79053232D01*
X138814209Y-79049378D01*
X138984708Y-79057885D01*
X139138434Y-79078508D01*
X139258995Y-79111005D01*
X139340416Y-79148728D01*
X139466796Y-79239708D01*
X139554973Y-79352059D01*
X139598944Y-79479276D01*
X139601339Y-79507966D01*
X139604793Y-79549349D01*
G37*
G36*
X166334370Y-79139579D02*
G01*
X166512526Y-79139579D01*
X166560032Y-79139695D01*
X166633829Y-79142170D01*
X166672809Y-79150939D01*
X166688063Y-79169964D01*
X166690682Y-79203206D01*
X166690358Y-79220172D01*
X166683427Y-79246529D01*
X166658873Y-79260450D01*
X166605603Y-79265898D01*
X166512526Y-79266833D01*
X166334370Y-79266833D01*
X166334370Y-79377121D01*
X166333792Y-79405491D01*
X166327504Y-79470771D01*
X166316523Y-79505255D01*
X166304520Y-79512380D01*
X166259258Y-79515631D01*
X166247777Y-79511024D01*
X166224107Y-79471290D01*
X166212083Y-79387496D01*
X166204326Y-79266833D01*
X165656990Y-79266833D01*
X165109654Y-79266833D01*
X165117553Y-79171992D01*
X165118741Y-79159202D01*
X165124016Y-79130556D01*
X165130108Y-79117254D01*
X165279430Y-79117254D01*
X165290158Y-79123725D01*
X165344704Y-79130187D01*
X165438558Y-79135194D01*
X165565486Y-79138430D01*
X165719257Y-79139579D01*
X165802779Y-79139420D01*
X165955229Y-79137781D01*
X166065070Y-79134040D01*
X166138015Y-79127798D01*
X166179776Y-79118654D01*
X166196067Y-79106209D01*
X166200010Y-79077496D01*
X166202848Y-79006172D01*
X166203458Y-78905710D01*
X166201631Y-78787935D01*
X166194390Y-78503031D01*
X165748999Y-78798980D01*
X165709068Y-78825538D01*
X165578196Y-78912944D01*
X165463135Y-78990334D01*
X165370546Y-79053192D01*
X165307090Y-79097004D01*
X165279430Y-79117254D01*
X165130108Y-79117254D01*
X165136601Y-79103075D01*
X165161492Y-79072545D01*
X165203683Y-79034749D01*
X165268172Y-78985473D01*
X165359953Y-78920500D01*
X165484024Y-78835615D01*
X165645378Y-78726602D01*
X165775937Y-78639226D01*
X165933496Y-78536685D01*
X166057273Y-78460988D01*
X166151540Y-78410168D01*
X166220567Y-78382258D01*
X166268626Y-78375290D01*
X166299987Y-78387297D01*
X166318921Y-78416310D01*
X166320125Y-78420479D01*
X166325700Y-78468827D01*
X166330225Y-78555089D01*
X166333260Y-78668444D01*
X166334370Y-78798073D01*
X166334370Y-78905710D01*
X166334370Y-79139579D01*
G37*
G36*
X139585472Y-78170041D02*
G01*
X139585285Y-78176482D01*
X139568924Y-78235290D01*
X139522873Y-78311253D01*
X139442512Y-78412193D01*
X139415325Y-78443636D01*
X139352326Y-78513218D01*
X139304382Y-78561552D01*
X139280197Y-78579659D01*
X139264734Y-78573641D01*
X139229622Y-78542040D01*
X139221132Y-78528800D01*
X139220874Y-78497989D01*
X139247275Y-78452882D01*
X139305337Y-78382972D01*
X139412273Y-78261523D01*
X138716257Y-78248797D01*
X138020241Y-78236072D01*
X138020241Y-78172445D01*
X138020241Y-78108817D01*
X138802857Y-78102087D01*
X139585472Y-78095356D01*
X139585472Y-78170041D01*
G37*
G36*
X165245713Y-77557996D02*
G01*
X165252706Y-77961584D01*
X165965332Y-77649805D01*
X166071840Y-77603221D01*
X166251016Y-77525116D01*
X166390973Y-77464898D01*
X166496638Y-77420875D01*
X166572935Y-77391354D01*
X166624791Y-77374641D01*
X166657131Y-77369044D01*
X166674880Y-77372871D01*
X166682965Y-77384428D01*
X166686309Y-77402023D01*
X166686374Y-77448263D01*
X166672011Y-77488671D01*
X166667610Y-77491665D01*
X166625317Y-77513177D01*
X166544201Y-77551219D01*
X166430237Y-77603089D01*
X166289403Y-77666085D01*
X166127676Y-77737504D01*
X165951033Y-77814644D01*
X165896064Y-77838421D01*
X165720556Y-77912995D01*
X165559596Y-77979413D01*
X165419576Y-78035167D01*
X165306889Y-78077753D01*
X165227926Y-78104663D01*
X165189079Y-78113391D01*
X165125452Y-78108817D01*
X165118528Y-77631613D01*
X165111603Y-77154408D01*
X165175162Y-77154408D01*
X165238720Y-77154408D01*
X165245713Y-77557996D01*
G37*
G36*
X139593846Y-77027531D02*
G01*
X139534706Y-77156135D01*
X139433705Y-77264717D01*
X139293663Y-77346574D01*
X139234607Y-77366498D01*
X139132486Y-77391238D01*
X139026428Y-77408859D01*
X138821711Y-77420297D01*
X138596013Y-77406250D01*
X138389919Y-77366458D01*
X138268353Y-77317458D01*
X138148709Y-77230179D01*
X138062979Y-77118995D01*
X138019397Y-76992219D01*
X138014912Y-76955006D01*
X138016963Y-76916776D01*
X138140297Y-76916776D01*
X138169426Y-77022771D01*
X138245684Y-77121048D01*
X138267409Y-77139385D01*
X138350709Y-77193172D01*
X138431774Y-77226672D01*
X138540253Y-77247943D01*
X138708733Y-77263854D01*
X138883105Y-77264032D01*
X139049567Y-77249250D01*
X139194322Y-77220279D01*
X139303570Y-77177893D01*
X139400775Y-77102173D01*
X139461310Y-77005256D01*
X139478534Y-76899540D01*
X139452883Y-76793526D01*
X139384792Y-76695713D01*
X139274697Y-76614603D01*
X139238844Y-76596621D01*
X139190939Y-76578561D01*
X139134652Y-76566831D01*
X139059354Y-76560100D01*
X138954419Y-76557037D01*
X138809219Y-76556312D01*
X138698631Y-76556668D01*
X138583923Y-76558972D01*
X138501707Y-76564587D01*
X138441356Y-76574843D01*
X138392244Y-76591072D01*
X138343742Y-76614603D01*
X138321187Y-76627346D01*
X138217627Y-76711577D01*
X138156847Y-76810549D01*
X138140297Y-76916776D01*
X138016963Y-76916776D01*
X138023298Y-76798696D01*
X138077610Y-76663415D01*
X138176520Y-76551499D01*
X138318702Y-76465284D01*
X138335166Y-76458101D01*
X138396468Y-76435013D01*
X138459755Y-76419716D01*
X138537251Y-76410617D01*
X138641181Y-76406120D01*
X138783769Y-76404633D01*
X138960637Y-76408544D01*
X139149082Y-76427939D01*
X139298175Y-76465414D01*
X139413249Y-76523039D01*
X139499633Y-76602884D01*
X139562659Y-76707017D01*
X139575272Y-76737059D01*
X139608308Y-76885605D01*
X139606888Y-76899540D01*
X139593846Y-77027531D01*
G37*
G36*
X166308919Y-76515906D02*
G01*
X166493438Y-76523384D01*
X166551686Y-76525932D01*
X166623651Y-76531797D01*
X166662433Y-76543183D01*
X166679423Y-76564674D01*
X166686010Y-76600851D01*
X166694063Y-76670841D01*
X166501491Y-76670841D01*
X166308919Y-76670841D01*
X166308919Y-76785370D01*
X166308676Y-76816261D01*
X166303157Y-76871819D01*
X166284555Y-76895152D01*
X166245292Y-76899899D01*
X166228130Y-76899462D01*
X166197264Y-76889528D01*
X166184302Y-76856044D01*
X166181664Y-76785370D01*
X166181664Y-76670841D01*
X165647195Y-76670841D01*
X165112726Y-76670841D01*
X165112726Y-76574177D01*
X165112726Y-76518136D01*
X165252954Y-76518136D01*
X165717309Y-76518136D01*
X166181664Y-76518136D01*
X166181664Y-76209798D01*
X166181664Y-75901460D01*
X166111674Y-75946947D01*
X166073510Y-75972042D01*
X165998670Y-76021596D01*
X165897216Y-76088957D01*
X165777361Y-76168672D01*
X165647319Y-76255285D01*
X165252954Y-76518136D01*
X165112726Y-76518136D01*
X165112726Y-76477513D01*
X165630052Y-76128786D01*
X165643378Y-76119808D01*
X165816001Y-76004726D01*
X165952374Y-75916633D01*
X166057136Y-75852825D01*
X166134926Y-75810596D01*
X166190383Y-75787243D01*
X166228148Y-75780060D01*
X166308919Y-75780060D01*
X166308919Y-76147983D01*
X166308919Y-76209798D01*
X166308919Y-76515906D01*
G37*
G36*
X138635793Y-75350912D02*
G01*
X138737122Y-75418356D01*
X138804993Y-75508338D01*
X138854332Y-75605654D01*
X138893087Y-75525635D01*
X138898425Y-75515016D01*
X138981025Y-75408232D01*
X139093957Y-75339590D01*
X139229195Y-75314142D01*
X139286096Y-75316239D01*
X139394162Y-75345409D01*
X139480287Y-75413352D01*
X139553658Y-75526071D01*
X139584562Y-75607520D01*
X139608875Y-75751978D01*
X139608466Y-75913162D01*
X139582451Y-76074200D01*
X139580953Y-76080096D01*
X139558880Y-76148250D01*
X139532202Y-76179671D01*
X139490405Y-76187274D01*
X139458883Y-76185395D01*
X139437055Y-76167403D01*
X139443343Y-76117284D01*
X139467389Y-75984639D01*
X139477943Y-75838584D01*
X139470560Y-75711453D01*
X139445188Y-75617584D01*
X139443207Y-75613478D01*
X139375056Y-75521603D01*
X139287697Y-75470093D01*
X139191524Y-75458204D01*
X139096929Y-75485189D01*
X139014304Y-75550305D01*
X138954044Y-75652805D01*
X138941897Y-75695852D01*
X138925377Y-75779718D01*
X138911673Y-75875501D01*
X138900372Y-75959925D01*
X138886946Y-76009087D01*
X138866135Y-76030122D01*
X138832171Y-76034569D01*
X138798399Y-76031045D01*
X138780003Y-76012468D01*
X138772484Y-75966894D01*
X138771043Y-75882378D01*
X138765730Y-75779327D01*
X138732570Y-75635854D01*
X138669426Y-75532582D01*
X138576766Y-75470151D01*
X138455056Y-75449198D01*
X138383318Y-75463066D01*
X138290542Y-75516004D01*
X138210919Y-75597528D01*
X138158613Y-75695855D01*
X138151028Y-75726759D01*
X138141791Y-75824585D01*
X138143112Y-75946712D01*
X138154407Y-76075582D01*
X138175096Y-76193637D01*
X138181691Y-76228830D01*
X138172119Y-76257533D01*
X138128033Y-76263627D01*
X138124713Y-76263604D01*
X138084195Y-76254867D01*
X138058125Y-76221489D01*
X138035988Y-76150553D01*
X138010318Y-76006716D01*
X138008026Y-75834177D01*
X138036179Y-75677578D01*
X138091052Y-75541886D01*
X138168919Y-75432069D01*
X138266053Y-75353096D01*
X138378727Y-75309933D01*
X138503216Y-75307549D01*
X138635793Y-75350912D01*
G37*
G36*
X166688385Y-75114774D02*
G01*
X166651626Y-75260840D01*
X166571146Y-75382061D01*
X166448372Y-75476755D01*
X166284726Y-75543237D01*
X166272483Y-75546405D01*
X166170934Y-75561457D01*
X166027467Y-75569146D01*
X165849392Y-75569038D01*
X165767919Y-75567070D01*
X165654021Y-75562352D01*
X165571002Y-75554198D01*
X165505995Y-75540355D01*
X165446133Y-75518571D01*
X165378550Y-75486592D01*
X165322050Y-75455192D01*
X165200300Y-75355068D01*
X165123632Y-75234463D01*
X165093571Y-75096474D01*
X165097102Y-75066722D01*
X165230805Y-75066722D01*
X165250401Y-75179954D01*
X165316299Y-75278691D01*
X165426048Y-75355808D01*
X165507472Y-75386013D01*
X165645962Y-75413501D01*
X165806551Y-75427011D01*
X165974986Y-75426708D01*
X166137010Y-75412761D01*
X166278369Y-75385335D01*
X166384807Y-75344597D01*
X166475129Y-75277640D01*
X166541685Y-75183763D01*
X166565454Y-75081678D01*
X166548001Y-74979133D01*
X166490892Y-74883878D01*
X166395691Y-74803661D01*
X166263962Y-74746232D01*
X166231726Y-74737966D01*
X166104245Y-74718695D01*
X165954693Y-74711000D01*
X165797523Y-74714245D01*
X165647193Y-74727791D01*
X165518158Y-74751001D01*
X165424872Y-74783238D01*
X165423585Y-74783906D01*
X165315674Y-74858877D01*
X165252956Y-74950897D01*
X165230805Y-75066722D01*
X165097102Y-75066722D01*
X165111643Y-74944204D01*
X165164743Y-74820624D01*
X165259848Y-74714824D01*
X165398462Y-74631793D01*
X165447294Y-74611047D01*
X165502545Y-74593169D01*
X165564825Y-74581557D01*
X165645102Y-74574893D01*
X165754340Y-74571860D01*
X165903504Y-74571142D01*
X165970057Y-74571185D01*
X166097529Y-74572175D01*
X166189633Y-74575713D01*
X166257315Y-74583406D01*
X166311521Y-74596862D01*
X166363196Y-74617689D01*
X166423288Y-74647495D01*
X166488084Y-74685412D01*
X166600569Y-74787588D01*
X166668137Y-74913639D01*
X166690682Y-75063402D01*
X166689865Y-75081678D01*
X166688385Y-75114774D01*
G37*
G36*
X139604767Y-74562291D02*
G01*
X139593189Y-74643964D01*
X139539584Y-74775446D01*
X139443525Y-74880861D01*
X139304123Y-74961043D01*
X139120492Y-75016827D01*
X139109884Y-75018926D01*
X139004442Y-75030189D01*
X138869563Y-75033098D01*
X138721281Y-75028476D01*
X138575627Y-75017145D01*
X138448633Y-74999927D01*
X138356332Y-74977643D01*
X138225346Y-74911742D01*
X138115769Y-74810650D01*
X138044240Y-74686993D01*
X138013752Y-74548767D01*
X138020021Y-74481764D01*
X138149151Y-74481764D01*
X138155430Y-74597214D01*
X138203441Y-74700694D01*
X138290919Y-74780817D01*
X138324289Y-74798407D01*
X138414993Y-74834227D01*
X138511424Y-74861050D01*
X138593562Y-74873654D01*
X138712795Y-74883704D01*
X138829560Y-74886490D01*
X138924411Y-74883270D01*
X139118324Y-74861357D01*
X139268221Y-74818494D01*
X139376255Y-74753569D01*
X139444580Y-74665470D01*
X139475348Y-74553087D01*
X139476566Y-74538104D01*
X139460869Y-74417080D01*
X139400003Y-74317318D01*
X139296931Y-74243952D01*
X139295302Y-74243183D01*
X139162025Y-74196526D01*
X139007693Y-74168354D01*
X138842366Y-74157795D01*
X138676105Y-74163979D01*
X138518973Y-74186033D01*
X138381029Y-74223086D01*
X138272335Y-74274268D01*
X138202952Y-74338705D01*
X138186870Y-74365729D01*
X138149151Y-74481764D01*
X138020021Y-74481764D01*
X138027300Y-74403970D01*
X138087877Y-74260596D01*
X138091724Y-74254479D01*
X138173306Y-74171043D01*
X138295073Y-74102555D01*
X138448465Y-74051222D01*
X138624927Y-74019248D01*
X138815900Y-74008840D01*
X139012827Y-74022203D01*
X139120719Y-74040118D01*
X139305029Y-74094436D01*
X139445141Y-74173404D01*
X139541503Y-74277430D01*
X139594562Y-74406923D01*
X139603178Y-74538104D01*
X139604767Y-74562291D01*
G37*
G36*
X166585358Y-73337433D02*
G01*
X166631485Y-73358050D01*
X166662742Y-73416924D01*
X166670868Y-73445427D01*
X166685702Y-73549695D01*
X166689388Y-73675089D01*
X166681904Y-73800661D01*
X166663230Y-73905459D01*
X166651335Y-73940440D01*
X166584123Y-74054249D01*
X166486103Y-74151644D01*
X166372546Y-74216294D01*
X166297838Y-74235678D01*
X166162699Y-74243054D01*
X166027882Y-74223022D01*
X165915776Y-74177485D01*
X165901908Y-74168096D01*
X165830892Y-74098138D01*
X165773092Y-74008418D01*
X165746798Y-73947358D01*
X165730085Y-73881100D01*
X165725012Y-73800771D01*
X165729079Y-73688174D01*
X165740936Y-73483343D01*
X165611350Y-73498915D01*
X165577118Y-73502621D01*
X165464430Y-73511182D01*
X165361633Y-73514708D01*
X165241502Y-73514930D01*
X165234379Y-73839429D01*
X165231089Y-73972058D01*
X165226982Y-74063386D01*
X165220450Y-74120618D01*
X165209863Y-74152187D01*
X165193587Y-74166523D01*
X165169991Y-74172060D01*
X165112726Y-74180193D01*
X165112726Y-73771209D01*
X165112726Y-73362224D01*
X165496727Y-73362224D01*
X165880728Y-73362224D01*
X165862474Y-73470269D01*
X165848470Y-73581868D01*
X165848358Y-73748646D01*
X165875528Y-73888633D01*
X165928470Y-73995582D01*
X166005676Y-74063245D01*
X166067892Y-74085575D01*
X166180208Y-74098899D01*
X166295034Y-74089000D01*
X166388248Y-74056317D01*
X166439792Y-74017288D01*
X166511477Y-73916164D01*
X166551077Y-73782335D01*
X166556201Y-73621983D01*
X166547955Y-73534664D01*
X166536404Y-73448785D01*
X166524973Y-73394038D01*
X166519021Y-73372513D01*
X166525393Y-73343357D01*
X166570695Y-73336773D01*
X166585358Y-73337433D01*
G37*
G36*
X138833471Y-73082301D02*
G01*
X139021803Y-73083069D01*
X139192936Y-73084734D01*
X139340129Y-73087162D01*
X139456642Y-73090223D01*
X139535734Y-73093784D01*
X139570665Y-73097713D01*
X139578649Y-73101216D01*
X139607381Y-73135719D01*
X139598563Y-73193647D01*
X139551271Y-73277546D01*
X139464580Y-73389963D01*
X139433686Y-73426058D01*
X139367994Y-73497270D01*
X139315569Y-73546711D01*
X139285625Y-73565351D01*
X139248158Y-73553726D01*
X139239695Y-73512746D01*
X139267114Y-73446931D01*
X139329361Y-73361196D01*
X139435796Y-73234970D01*
X138734382Y-73234970D01*
X138032967Y-73234970D01*
X138032967Y-73158617D01*
X138032967Y-73082264D01*
X138781687Y-73082264D01*
X138833471Y-73082301D01*
G37*
G36*
X166690123Y-72517638D02*
G01*
X166684547Y-72598667D01*
X166640439Y-72747381D01*
X166553122Y-72869477D01*
X166423448Y-72963531D01*
X166397522Y-72974713D01*
X166298388Y-72996612D01*
X166166340Y-73004893D01*
X166118843Y-73004678D01*
X166026267Y-72998380D01*
X165959207Y-72980777D01*
X165899711Y-72948041D01*
X165831908Y-72894041D01*
X165739176Y-72776047D01*
X165688974Y-72641489D01*
X165683798Y-72528294D01*
X165815563Y-72528294D01*
X165835844Y-72656281D01*
X165898347Y-72757100D01*
X166005317Y-72834078D01*
X166100236Y-72868318D01*
X166226860Y-72875564D01*
X166345588Y-72843809D01*
X166446673Y-72777852D01*
X166520364Y-72682491D01*
X166556912Y-72562527D01*
X166559618Y-72486305D01*
X166531592Y-72362396D01*
X166462375Y-72266602D01*
X166354439Y-72201719D01*
X166210256Y-72170542D01*
X166113068Y-72171112D01*
X165987921Y-72205900D01*
X165894394Y-72279045D01*
X165835827Y-72387520D01*
X165815563Y-72528294D01*
X165683798Y-72528294D01*
X165682471Y-72499272D01*
X165720835Y-72358299D01*
X165805232Y-72227476D01*
X165813552Y-72217896D01*
X165848117Y-72172011D01*
X165851928Y-72146500D01*
X165820546Y-72140125D01*
X165749532Y-72151649D01*
X165634447Y-72179833D01*
X165474565Y-72238789D01*
X165350604Y-72326550D01*
X165268241Y-72443040D01*
X165226299Y-72589947D01*
X165223604Y-72768956D01*
X165228832Y-72833016D01*
X165232089Y-72902587D01*
X165226622Y-72938910D01*
X165209855Y-72952785D01*
X165179210Y-72955010D01*
X165162240Y-72954051D01*
X165123901Y-72933373D01*
X165103182Y-72875476D01*
X165093280Y-72815425D01*
X165089926Y-72627393D01*
X165127834Y-72453506D01*
X165203873Y-72300733D01*
X165314910Y-72176039D01*
X165457816Y-72086393D01*
X165603050Y-72039435D01*
X165778775Y-72009824D01*
X165965426Y-71999935D01*
X166144192Y-72011814D01*
X166195949Y-72019892D01*
X166378734Y-72067381D01*
X166517952Y-72139424D01*
X166615194Y-72237497D01*
X166672054Y-72363077D01*
X166686460Y-72486305D01*
X166690123Y-72517638D01*
G37*
G36*
X139610504Y-71855915D02*
G01*
X139610480Y-71859323D01*
X139585246Y-72000580D01*
X139515160Y-72123011D01*
X139403761Y-72223406D01*
X139254587Y-72298554D01*
X139071176Y-72345244D01*
X138936309Y-72357305D01*
X138778187Y-72356875D01*
X138616493Y-72345011D01*
X138469202Y-72323041D01*
X138354290Y-72292293D01*
X138283324Y-72260720D01*
X138155923Y-72169315D01*
X138067656Y-72051299D01*
X138022183Y-71912566D01*
X138022831Y-71811039D01*
X138151763Y-71811039D01*
X138163229Y-71925722D01*
X138217652Y-72028151D01*
X138309934Y-72110371D01*
X138434976Y-72164427D01*
X138533620Y-72183057D01*
X138668650Y-72196904D01*
X138815598Y-72203815D01*
X138954551Y-72202881D01*
X139065595Y-72193194D01*
X139166324Y-72172160D01*
X139309947Y-72116434D01*
X139410057Y-72037665D01*
X139465557Y-71936866D01*
X139475348Y-71815049D01*
X139473981Y-71803319D01*
X139439607Y-71693701D01*
X139367117Y-71608302D01*
X139254234Y-71545819D01*
X139098682Y-71504946D01*
X138898184Y-71484381D01*
X138668732Y-71484823D01*
X138477898Y-71511025D01*
X138330330Y-71563120D01*
X138226263Y-71641027D01*
X138165931Y-71744660D01*
X138151763Y-71811039D01*
X138022831Y-71811039D01*
X138023163Y-71759008D01*
X138024312Y-71752145D01*
X138072295Y-71615712D01*
X138162861Y-71504682D01*
X138294013Y-71420012D01*
X138463755Y-71362658D01*
X138670090Y-71333577D01*
X138911023Y-71333724D01*
X139103879Y-71354834D01*
X139289300Y-71402589D01*
X139431711Y-71475857D01*
X139532075Y-71575355D01*
X139591352Y-71701802D01*
X139605425Y-71815049D01*
X139610504Y-71855915D01*
G37*
G36*
X166572979Y-70766302D02*
G01*
X166617266Y-70774576D01*
X166644410Y-70806112D01*
X166667084Y-70874398D01*
X166678549Y-70937786D01*
X166686205Y-71043342D01*
X166684411Y-71151252D01*
X166679002Y-71205556D01*
X166637008Y-71373270D01*
X166559559Y-71505029D01*
X166447146Y-71600185D01*
X166300259Y-71658093D01*
X166248692Y-71669723D01*
X166184877Y-71678167D01*
X166124143Y-71673083D01*
X166040529Y-71654068D01*
X165958143Y-71620721D01*
X165856686Y-71544893D01*
X165777532Y-71446445D01*
X165734780Y-71339869D01*
X165728350Y-71282456D01*
X165725326Y-71184758D01*
X165728374Y-71080885D01*
X165739062Y-70913024D01*
X165610413Y-70928485D01*
X165571646Y-70932568D01*
X165455426Y-70940793D01*
X165344881Y-70944167D01*
X165207998Y-70944388D01*
X165226296Y-71275250D01*
X165244595Y-71606112D01*
X165182574Y-71606112D01*
X165120553Y-71606112D01*
X165103128Y-71219973D01*
X165103076Y-71218804D01*
X165097023Y-71062815D01*
X165095271Y-70950889D01*
X165098070Y-70876393D01*
X165105664Y-70832690D01*
X165118303Y-70813149D01*
X165125654Y-70810448D01*
X165177175Y-70803327D01*
X165265941Y-70797532D01*
X165381833Y-70793601D01*
X165514731Y-70792073D01*
X165878560Y-70791683D01*
X165858467Y-70887124D01*
X165851297Y-70927256D01*
X165841123Y-71052784D01*
X165845272Y-71180862D01*
X165862551Y-71294055D01*
X165891772Y-71374929D01*
X165919633Y-71414536D01*
X166008458Y-71487118D01*
X166116411Y-71523585D01*
X166232460Y-71524804D01*
X166345572Y-71491642D01*
X166444712Y-71424967D01*
X166518849Y-71325645D01*
X166546817Y-71240787D01*
X166560974Y-71115234D01*
X166554538Y-70981837D01*
X166527133Y-70861673D01*
X166493073Y-70766232D01*
X166565446Y-70766232D01*
X166572979Y-70766302D01*
G37*
G36*
X139050097Y-70324653D02*
G01*
X139032439Y-70444565D01*
X138986239Y-70541670D01*
X138903653Y-70634851D01*
X138809222Y-70723911D01*
X138970659Y-70707038D01*
X139117482Y-70682169D01*
X139280067Y-70621999D01*
X139402330Y-70530873D01*
X139484623Y-70408390D01*
X139527296Y-70254152D01*
X139530700Y-70067757D01*
X139527500Y-70021865D01*
X139530028Y-69973854D01*
X139549023Y-69955044D01*
X139591651Y-69951803D01*
X139612289Y-69952071D01*
X139640782Y-69958436D01*
X139655504Y-69981949D01*
X139661002Y-70033862D01*
X139661825Y-70125426D01*
X139657619Y-70213140D01*
X139642319Y-70328925D01*
X139619673Y-70422756D01*
X139590783Y-70490073D01*
X139500393Y-70619912D01*
X139379526Y-70727312D01*
X139241885Y-70798639D01*
X139134210Y-70822959D01*
X138988008Y-70836021D01*
X138824125Y-70836701D01*
X138658682Y-70825541D01*
X138507802Y-70803084D01*
X138387608Y-70769873D01*
X138243516Y-70696170D01*
X138136066Y-70596218D01*
X138072888Y-70472106D01*
X138053131Y-70322698D01*
X138054781Y-70303256D01*
X138172862Y-70303256D01*
X138193344Y-70416095D01*
X138252217Y-70519000D01*
X138350026Y-70601515D01*
X138455794Y-70646697D01*
X138584675Y-70663031D01*
X138706247Y-70640618D01*
X138809728Y-70581736D01*
X138884337Y-70488662D01*
X138913975Y-70402069D01*
X138924034Y-70287562D01*
X138908632Y-70177495D01*
X138868573Y-70092131D01*
X138864163Y-70086658D01*
X138768232Y-70007648D01*
X138646553Y-69962580D01*
X138513163Y-69954503D01*
X138382099Y-69986467D01*
X138336308Y-70009689D01*
X138244889Y-70089598D01*
X138190225Y-70190939D01*
X138172862Y-70303256D01*
X138054781Y-70303256D01*
X138063611Y-70199249D01*
X138104507Y-70074634D01*
X138180929Y-69968619D01*
X138233704Y-69919328D01*
X138366945Y-69841450D01*
X138519479Y-69810505D01*
X138691897Y-69826327D01*
X138733062Y-69836567D01*
X138870569Y-69898341D01*
X138970103Y-69993764D01*
X139030601Y-70121495D01*
X139051003Y-70280191D01*
X139050853Y-70287562D01*
X139050097Y-70324653D01*
G37*
G36*
X165532171Y-69756321D02*
G01*
X165549925Y-69794122D01*
X165563608Y-69873349D01*
X165567751Y-69898109D01*
X165585311Y-69954695D01*
X165606007Y-69977328D01*
X165637243Y-69974737D01*
X165711155Y-69967099D01*
X165818901Y-69955339D01*
X165951957Y-69940389D01*
X166101802Y-69923177D01*
X166127889Y-69920160D01*
X166289817Y-69902099D01*
X166408930Y-69890537D01*
X166491934Y-69885210D01*
X166545533Y-69885855D01*
X166576434Y-69892211D01*
X166591342Y-69904015D01*
X166607522Y-69937204D01*
X166610379Y-69983933D01*
X166582516Y-70004164D01*
X166549358Y-70007441D01*
X166473827Y-70015934D01*
X166364697Y-70028639D01*
X166230523Y-70044560D01*
X166079861Y-70062699D01*
X165609019Y-70119774D01*
X165616144Y-70252122D01*
X165618728Y-70315860D01*
X165614381Y-70362500D01*
X165596275Y-70381107D01*
X165558879Y-70384469D01*
X165537694Y-70383537D01*
X165502835Y-70366039D01*
X165494142Y-70314479D01*
X165490579Y-70258430D01*
X165478492Y-70187391D01*
X165476951Y-70181844D01*
X165460274Y-70149227D01*
X165425947Y-70138862D01*
X165357948Y-70145131D01*
X165233161Y-70167593D01*
X165131763Y-70201751D01*
X165071172Y-70248902D01*
X165046100Y-70313436D01*
X165051257Y-70399746D01*
X165052809Y-70408097D01*
X165059568Y-70463215D01*
X165046901Y-70483459D01*
X165007804Y-70482105D01*
X164986442Y-70477771D01*
X164960119Y-70459622D01*
X164946563Y-70417182D01*
X164939506Y-70337147D01*
X164943991Y-70238381D01*
X164977810Y-70152605D01*
X165046816Y-70089756D01*
X165155905Y-70045591D01*
X165309971Y-70015866D01*
X165443588Y-69997929D01*
X165443588Y-69884989D01*
X165443876Y-69865012D01*
X165454805Y-69790156D01*
X165482862Y-69756979D01*
X165503812Y-69750528D01*
X165532171Y-69756321D01*
G37*
G36*
X166293415Y-68402442D02*
G01*
X166325445Y-68420386D01*
X166352836Y-68464381D01*
X166385670Y-68545641D01*
X166407569Y-68613626D01*
X166434886Y-68770605D01*
X166433878Y-68925609D01*
X166405336Y-69064700D01*
X166350050Y-69173941D01*
X166345849Y-69179366D01*
X166234336Y-69281145D01*
X166092390Y-69343998D01*
X165924556Y-69365874D01*
X165787296Y-69346913D01*
X165665599Y-69285150D01*
X165571534Y-69182891D01*
X165507293Y-69042571D01*
X165475067Y-68866623D01*
X165464656Y-68775356D01*
X165449970Y-68724255D01*
X165429999Y-68714244D01*
X165420482Y-68717212D01*
X165366648Y-68730368D01*
X165281648Y-68748962D01*
X165179082Y-68769973D01*
X165134203Y-68779223D01*
X165045222Y-68799897D01*
X164983819Y-68817535D01*
X164961242Y-68829084D01*
X164961270Y-68829380D01*
X164966710Y-68860814D01*
X164979955Y-68931560D01*
X164999067Y-69031396D01*
X165022109Y-69150100D01*
X165023051Y-69154937D01*
X165044927Y-69273425D01*
X165061115Y-69373094D01*
X165070081Y-69443600D01*
X165070287Y-69474599D01*
X165061342Y-69481963D01*
X165022829Y-69492125D01*
X164980167Y-69492672D01*
X164960021Y-69481851D01*
X164959136Y-69475909D01*
X164950249Y-69430271D01*
X164933334Y-69347752D01*
X164910275Y-69237482D01*
X164882957Y-69108585D01*
X164871751Y-69055353D01*
X164846762Y-68930989D01*
X164827681Y-68827741D01*
X164816208Y-68755135D01*
X164814044Y-68722699D01*
X164831260Y-68714267D01*
X164889203Y-68696622D01*
X164977683Y-68673291D01*
X165086021Y-68646743D01*
X165203536Y-68619445D01*
X165319547Y-68593869D01*
X165423375Y-68572482D01*
X165504337Y-68557754D01*
X165551754Y-68552154D01*
X165557328Y-68557066D01*
X165567011Y-68597436D01*
X165570843Y-68665280D01*
X165574569Y-68751146D01*
X165597061Y-68895509D01*
X165636388Y-69020596D01*
X165688473Y-69110968D01*
X165759151Y-69173340D01*
X165870033Y-69219053D01*
X165991211Y-69224305D01*
X166110962Y-69189044D01*
X166217564Y-69113221D01*
X166239614Y-69090568D01*
X166270889Y-69050306D01*
X166287804Y-69004936D01*
X166294698Y-68939199D01*
X166295913Y-68837837D01*
X166295657Y-68802184D01*
X166290251Y-68700924D01*
X166273854Y-68616612D01*
X166241256Y-68529136D01*
X166187248Y-68418386D01*
X166186936Y-68417677D01*
X166203655Y-68404673D01*
X166254067Y-68399298D01*
X166293415Y-68402442D01*
G37*
G36*
X139271908Y-68859970D02*
G01*
X139249250Y-68995561D01*
X139186795Y-69124224D01*
X139083911Y-69236887D01*
X138988504Y-69315531D01*
X139178821Y-69314972D01*
X139211801Y-69314541D01*
X139360760Y-69300861D01*
X139473897Y-69266840D01*
X139477495Y-69265186D01*
X139597308Y-69182383D01*
X139687189Y-69062499D01*
X139743721Y-68911793D01*
X139763486Y-68736523D01*
X139764031Y-68704300D01*
X139773013Y-68648012D01*
X139799230Y-68630664D01*
X139850625Y-68643805D01*
X139855688Y-68646138D01*
X139882409Y-68685150D01*
X139890883Y-68766440D01*
X139890602Y-68786948D01*
X139863027Y-68968112D01*
X139794196Y-69132067D01*
X139689551Y-69271359D01*
X139554535Y-69378535D01*
X139394590Y-69446141D01*
X139355549Y-69453529D01*
X139247485Y-69459942D01*
X139113786Y-69455942D01*
X138970361Y-69442761D01*
X138833121Y-69421629D01*
X138717975Y-69393778D01*
X138619332Y-69358800D01*
X138459436Y-69275461D01*
X138346053Y-69172822D01*
X138278515Y-69050177D01*
X138256152Y-68906819D01*
X138257854Y-68890320D01*
X138382338Y-68890320D01*
X138391634Y-68963409D01*
X138445916Y-69072342D01*
X138549578Y-69172329D01*
X138552923Y-69174759D01*
X138640910Y-69213427D01*
X138764338Y-69233653D01*
X138787490Y-69235168D01*
X138871810Y-69235390D01*
X138929938Y-69221201D01*
X138981522Y-69188515D01*
X139039971Y-69131803D01*
X139108584Y-69011484D01*
X139133711Y-68868508D01*
X139133744Y-68856876D01*
X139112337Y-68737794D01*
X139048938Y-68645491D01*
X138940853Y-68575881D01*
X138800533Y-68534114D01*
X138669392Y-68535475D01*
X138554724Y-68575874D01*
X138463806Y-68651213D01*
X138403918Y-68757394D01*
X138382338Y-68890320D01*
X138257854Y-68890320D01*
X138272183Y-68751432D01*
X138323607Y-68624517D01*
X138414708Y-68516876D01*
X138424008Y-68508654D01*
X138558910Y-68423293D01*
X138708476Y-68385102D01*
X138867183Y-68394659D01*
X139029509Y-68452540D01*
X139107381Y-68502334D01*
X139200344Y-68604285D01*
X139255396Y-68726521D01*
X139271525Y-68856876D01*
X139271908Y-68859970D01*
G37*
G36*
X166110050Y-67642875D02*
G01*
X166061116Y-67768281D01*
X165975770Y-67878628D01*
X165852780Y-67965624D01*
X165704772Y-68022826D01*
X165553512Y-68038787D01*
X165414941Y-68006277D01*
X165290881Y-67925427D01*
X165264375Y-67899815D01*
X165174872Y-67774618D01*
X165129260Y-67634388D01*
X165129308Y-67554816D01*
X165246794Y-67554816D01*
X165274756Y-67669326D01*
X165329002Y-67771004D01*
X165401977Y-67841438D01*
X165474373Y-67873827D01*
X165593057Y-67888860D01*
X165713302Y-67867582D01*
X165824788Y-67815384D01*
X165917198Y-67737658D01*
X165980211Y-67639795D01*
X166003508Y-67527185D01*
X166000264Y-67476255D01*
X165961590Y-67354966D01*
X165884314Y-67260687D01*
X165774839Y-67199566D01*
X165639569Y-67177750D01*
X165624436Y-67177960D01*
X165486941Y-67202102D01*
X165373146Y-67262212D01*
X165290970Y-67352437D01*
X165248330Y-67466925D01*
X165246794Y-67554816D01*
X165129308Y-67554816D01*
X165129348Y-67488333D01*
X165176946Y-67345662D01*
X165179695Y-67340334D01*
X165202528Y-67289313D01*
X165207549Y-67263994D01*
X165185460Y-67263724D01*
X165130935Y-67285018D01*
X165057827Y-67323444D01*
X164978518Y-67371853D01*
X164905390Y-67423094D01*
X164850825Y-67470015D01*
X164828675Y-67494007D01*
X164746818Y-67620033D01*
X164712006Y-67759152D01*
X164723924Y-67914192D01*
X164782259Y-68087980D01*
X164809825Y-68157250D01*
X164816960Y-68201922D01*
X164801518Y-68225264D01*
X164800848Y-68225687D01*
X164747448Y-68244563D01*
X164704811Y-68221112D01*
X164665244Y-68151152D01*
X164635389Y-68071330D01*
X164597432Y-67911907D01*
X164585908Y-67757464D01*
X164602930Y-67625826D01*
X164641263Y-67530100D01*
X164735278Y-67396081D01*
X164866906Y-67277956D01*
X165028254Y-67183925D01*
X165138814Y-67139138D01*
X165297605Y-67089769D01*
X165456677Y-67054620D01*
X165600926Y-67036863D01*
X165715250Y-67039669D01*
X165851654Y-67080231D01*
X165966303Y-67156532D01*
X166050699Y-67259240D01*
X166103610Y-67380062D01*
X166123804Y-67510704D01*
X166122089Y-67527185D01*
X166110050Y-67642875D01*
G37*
G36*
X138767806Y-67125021D02*
G01*
X138792958Y-67140009D01*
X138807653Y-67166417D01*
X138785840Y-67210364D01*
X138760686Y-67257980D01*
X138724336Y-67365870D01*
X138704518Y-67480393D01*
X138706599Y-67576741D01*
X138729129Y-67642104D01*
X138793637Y-67740118D01*
X138884054Y-67828968D01*
X138987157Y-67893717D01*
X139099255Y-67929007D01*
X139232310Y-67941302D01*
X139358055Y-67926147D01*
X139458476Y-67883918D01*
X139486844Y-67863665D01*
X139572580Y-67781638D01*
X139628471Y-67681206D01*
X139664073Y-67546693D01*
X139676391Y-67479575D01*
X139689567Y-67418419D01*
X139702165Y-67390650D01*
X139719593Y-67386478D01*
X139747260Y-67396112D01*
X139761054Y-67404016D01*
X139785569Y-67455530D01*
X139781819Y-67548118D01*
X139749810Y-67682412D01*
X139745154Y-67697339D01*
X139675023Y-67842445D01*
X139571766Y-67962927D01*
X139445710Y-68046422D01*
X139436218Y-68050596D01*
X139295342Y-68086695D01*
X139142205Y-68086274D01*
X138988809Y-68053112D01*
X138847158Y-67990987D01*
X138729254Y-67903680D01*
X138647101Y-67794969D01*
X138610922Y-67715721D01*
X138579818Y-67598537D01*
X138581747Y-67478831D01*
X138615380Y-67337443D01*
X138618931Y-67325980D01*
X138654150Y-67217413D01*
X138681518Y-67150183D01*
X138706162Y-67117141D01*
X138733215Y-67111137D01*
X138767806Y-67125021D01*
G37*
G36*
X139522238Y-65966179D02*
G01*
X139654268Y-66012325D01*
X139772491Y-66088024D01*
X139864596Y-66184773D01*
X139918271Y-66294069D01*
X139929572Y-66371531D01*
X139920614Y-66504292D01*
X139884693Y-66639828D01*
X139825988Y-66757162D01*
X139764168Y-66848258D01*
X139833888Y-66875724D01*
X139908542Y-66903911D01*
X140000245Y-66936626D01*
X140093747Y-66968597D01*
X140176635Y-66995672D01*
X140236497Y-67013701D01*
X140260918Y-67018532D01*
X140261222Y-67018023D01*
X140273121Y-66988790D01*
X140298759Y-66922046D01*
X140334601Y-66827079D01*
X140377114Y-66713176D01*
X140381647Y-66701028D01*
X140425514Y-66589198D01*
X140464979Y-66498109D01*
X140495873Y-66436852D01*
X140514031Y-66414518D01*
X140528303Y-66416764D01*
X140574287Y-66436710D01*
X140582551Y-66443701D01*
X140587787Y-66457220D01*
X140586490Y-66481408D01*
X140576972Y-66521523D01*
X140557546Y-66582826D01*
X140526526Y-66670575D01*
X140482223Y-66790028D01*
X140422951Y-66946445D01*
X140347022Y-67145084D01*
X140325383Y-67201592D01*
X140012692Y-67090071D01*
X139979518Y-67078239D01*
X139841193Y-67028803D01*
X139742685Y-66993037D01*
X139677235Y-66968047D01*
X139638090Y-66950942D01*
X139618493Y-66938826D01*
X139611690Y-66928806D01*
X139610923Y-66917989D01*
X139611119Y-66915512D01*
X139627561Y-66876135D01*
X139662360Y-66820590D01*
X139721398Y-66718746D01*
X139767835Y-66587533D01*
X139786831Y-66457466D01*
X139776744Y-66341258D01*
X139735930Y-66251621D01*
X139714705Y-66227065D01*
X139610622Y-66150398D01*
X139487689Y-66112161D01*
X139359527Y-66114844D01*
X139239754Y-66160936D01*
X139238481Y-66161730D01*
X139164875Y-66231437D01*
X139097807Y-66337209D01*
X139044813Y-66464471D01*
X139013431Y-66598647D01*
X139007215Y-66636957D01*
X138985910Y-66699170D01*
X138952025Y-66717227D01*
X138900147Y-66695769D01*
X138888503Y-66686482D01*
X138876971Y-66659558D01*
X138879830Y-66609891D01*
X138896827Y-66524365D01*
X138915116Y-66453265D01*
X138968233Y-66306870D01*
X139034334Y-66181006D01*
X139106096Y-66090844D01*
X139117864Y-66080419D01*
X139213903Y-66018227D01*
X139325815Y-65973297D01*
X139428749Y-65956012D01*
X139522238Y-65966179D01*
G37*
G36*
X165514572Y-65766832D02*
G01*
X165551138Y-65836622D01*
X164965229Y-66420959D01*
X164897132Y-66488602D01*
X164752579Y-66630259D01*
X164623761Y-66753834D01*
X164514644Y-66855661D01*
X164429195Y-66932075D01*
X164371382Y-66979409D01*
X164345171Y-66993996D01*
X164344250Y-66993587D01*
X164322506Y-66964158D01*
X164287155Y-66896970D01*
X164242068Y-66801317D01*
X164191116Y-66686490D01*
X164138171Y-66561781D01*
X164087103Y-66436481D01*
X164041784Y-66319881D01*
X164006085Y-66221274D01*
X163983878Y-66149952D01*
X163979033Y-66115205D01*
X163991749Y-66098878D01*
X164036627Y-66083471D01*
X164054411Y-66090557D01*
X164081543Y-66123245D01*
X164116116Y-66187590D01*
X164161020Y-66289135D01*
X164219146Y-66433421D01*
X164240967Y-66488748D01*
X164288586Y-66607290D01*
X164329058Y-66705086D01*
X164358656Y-66773220D01*
X164373651Y-66802781D01*
X164379010Y-66801442D01*
X164414421Y-66773742D01*
X164478569Y-66715324D01*
X164567052Y-66630451D01*
X164675467Y-66523384D01*
X164799414Y-66398386D01*
X164934490Y-66259719D01*
X165478005Y-65697042D01*
X165514572Y-65766832D01*
G37*
G36*
X140655858Y-65405825D02*
G01*
X140638924Y-65438347D01*
X140572192Y-65525889D01*
X140475014Y-65595703D01*
X140352107Y-65665898D01*
X140643238Y-65810815D01*
X140645515Y-65811948D01*
X140767963Y-65873700D01*
X140851072Y-65918921D01*
X140901280Y-65953038D01*
X140925031Y-65981475D01*
X140928764Y-66009656D01*
X140918921Y-66043008D01*
X140910047Y-66063333D01*
X140895668Y-66083266D01*
X140884539Y-66078379D01*
X140833335Y-66053901D01*
X140745512Y-66011191D01*
X140626457Y-65952891D01*
X140481557Y-65881640D01*
X140316201Y-65800080D01*
X140135776Y-65710851D01*
X140040497Y-65663643D01*
X139854123Y-65570944D01*
X139707131Y-65496927D01*
X139595126Y-65439005D01*
X139513713Y-65394591D01*
X139458496Y-65361095D01*
X139425079Y-65335931D01*
X139409067Y-65316510D01*
X139406064Y-65300245D01*
X139411675Y-65284548D01*
X139430805Y-65248847D01*
X139446574Y-65222422D01*
X139447454Y-65221854D01*
X139475931Y-65228925D01*
X139528619Y-65253035D01*
X139603751Y-65291887D01*
X139564162Y-65181795D01*
X139544137Y-65117065D01*
X139538471Y-65047182D01*
X139541738Y-65032134D01*
X139665133Y-65032134D01*
X139673729Y-65142117D01*
X139721380Y-65252046D01*
X139804356Y-65354975D01*
X139918923Y-65443957D01*
X140061353Y-65512048D01*
X140075200Y-65516718D01*
X140181683Y-65539580D01*
X140289401Y-65544782D01*
X140374450Y-65530887D01*
X140382601Y-65527735D01*
X140471193Y-65466685D01*
X140536969Y-65373731D01*
X140571852Y-65264581D01*
X140567765Y-65154942D01*
X140543739Y-65097782D01*
X140477223Y-65008636D01*
X140385086Y-64924620D01*
X140280445Y-64859238D01*
X140248563Y-64844399D01*
X140085848Y-64789601D01*
X139943477Y-64778965D01*
X139823280Y-64812388D01*
X139727088Y-64889771D01*
X139699323Y-64929044D01*
X139665133Y-65032134D01*
X139541738Y-65032134D01*
X139555701Y-64967810D01*
X139589636Y-64881282D01*
X139674355Y-64761713D01*
X139788063Y-64680017D01*
X139925362Y-64638401D01*
X140080857Y-64639072D01*
X140249150Y-64684237D01*
X140417734Y-64764553D01*
X140560936Y-64868156D01*
X140657182Y-64985561D01*
X140705639Y-65115292D01*
X140705475Y-65255872D01*
X140702593Y-65264581D01*
X140655858Y-65405825D01*
G37*
G36*
X164753170Y-64614426D02*
G01*
X164901593Y-64660532D01*
X164998487Y-64727019D01*
X165102030Y-64849616D01*
X165196144Y-65021555D01*
X165211107Y-65055725D01*
X165235808Y-65131440D01*
X165231886Y-65177367D01*
X165199508Y-65202570D01*
X165178753Y-65208486D01*
X165130778Y-65198240D01*
X165112726Y-65149888D01*
X165107029Y-65123691D01*
X165082031Y-65060577D01*
X165043889Y-64983818D01*
X164969615Y-64880765D01*
X164859645Y-64799372D01*
X164729840Y-64762308D01*
X164584978Y-64770801D01*
X164429838Y-64826078D01*
X164336104Y-64880432D01*
X164234667Y-64972887D01*
X164176738Y-65083551D01*
X164158318Y-65218201D01*
X164158348Y-65227260D01*
X164165430Y-65322956D01*
X164190424Y-65403632D01*
X164241262Y-65495839D01*
X164277815Y-65559912D01*
X164304911Y-65620392D01*
X164309750Y-65652661D01*
X164290845Y-65670265D01*
X164243008Y-65670085D01*
X164189452Y-65631430D01*
X164177524Y-65617270D01*
X164120553Y-65525627D01*
X164069616Y-65409977D01*
X164033039Y-65291777D01*
X164019145Y-65192485D01*
X164035126Y-65070079D01*
X164093667Y-64931432D01*
X164187487Y-64811341D01*
X164308467Y-64714701D01*
X164448488Y-64646405D01*
X164599428Y-64611348D01*
X164753170Y-64614426D01*
G37*
G36*
X164501423Y-63937023D02*
G01*
X164472978Y-64077596D01*
X164400727Y-64204295D01*
X164286988Y-64311020D01*
X164134078Y-64391671D01*
X164103709Y-64402439D01*
X163965003Y-64427081D01*
X163837559Y-64404953D01*
X163717232Y-64334683D01*
X163599871Y-64214897D01*
X163559849Y-64160804D01*
X163535281Y-64107684D01*
X163524511Y-64041327D01*
X163522173Y-63942947D01*
X163522174Y-63937930D01*
X163521871Y-63910909D01*
X163619686Y-63910909D01*
X163643081Y-64020028D01*
X163695380Y-64127193D01*
X163768583Y-64212720D01*
X163778243Y-64220443D01*
X163875631Y-64265689D01*
X163985858Y-64271916D01*
X164098782Y-64244345D01*
X164204264Y-64188200D01*
X164292163Y-64108705D01*
X164352338Y-64011081D01*
X164374650Y-63900553D01*
X164367368Y-63832050D01*
X164322049Y-63718407D01*
X164243692Y-63624811D01*
X164142136Y-63561505D01*
X164027217Y-63538735D01*
X163977382Y-63542832D01*
X163856614Y-63581406D01*
X163748834Y-63652621D01*
X163666646Y-63746665D01*
X163622655Y-63853724D01*
X163619686Y-63910909D01*
X163521871Y-63910909D01*
X163521207Y-63851744D01*
X163518726Y-63790523D01*
X163515241Y-63767234D01*
X163487808Y-63783123D01*
X163437530Y-63828254D01*
X163375857Y-63891452D01*
X163313264Y-63961457D01*
X163260225Y-64027009D01*
X163227215Y-64076850D01*
X163214039Y-64105222D01*
X163181378Y-64245677D01*
X163194849Y-64394644D01*
X163252978Y-64545008D01*
X163354289Y-64689656D01*
X163381929Y-64721691D01*
X163412594Y-64764184D01*
X163413849Y-64788771D01*
X163389451Y-64808110D01*
X163358930Y-64824597D01*
X163324376Y-64830893D01*
X163290216Y-64809141D01*
X163240398Y-64753457D01*
X163172614Y-64661456D01*
X163091996Y-64496304D01*
X163054377Y-64325194D01*
X163061156Y-64156466D01*
X163113731Y-63998462D01*
X163118789Y-63988734D01*
X163213046Y-63854548D01*
X163344857Y-63725195D01*
X163501951Y-63608708D01*
X163672059Y-63513119D01*
X163842911Y-63446462D01*
X164002237Y-63416769D01*
X164126291Y-63419619D01*
X164239914Y-63453110D01*
X164333677Y-63524894D01*
X164419189Y-63641220D01*
X164483746Y-63788677D01*
X164497077Y-63900553D01*
X164501423Y-63937023D01*
G37*
G36*
X140806155Y-63433268D02*
G01*
X140942843Y-63483488D01*
X141061114Y-63561072D01*
X141146039Y-63660408D01*
X141169552Y-63709059D01*
X141196357Y-63840787D01*
X141181703Y-63983413D01*
X141127479Y-64126677D01*
X141035573Y-64260322D01*
X141008002Y-64294492D01*
X140976983Y-64346371D01*
X140975125Y-64375420D01*
X140983814Y-64381935D01*
X141030247Y-64412361D01*
X141104210Y-64458425D01*
X141194316Y-64512984D01*
X141390636Y-64630345D01*
X141563355Y-64351843D01*
X141573484Y-64335587D01*
X141639718Y-64233115D01*
X141697629Y-64149721D01*
X141741289Y-64093611D01*
X141764770Y-64072992D01*
X141780384Y-64076214D01*
X141819709Y-64104459D01*
X141822953Y-64110881D01*
X141818732Y-64146499D01*
X141791457Y-64209718D01*
X141738912Y-64305118D01*
X141658885Y-64437280D01*
X141639116Y-64469026D01*
X141570388Y-64578400D01*
X141510972Y-64671482D01*
X141466662Y-64739256D01*
X141443254Y-64772706D01*
X141440272Y-64775773D01*
X141418542Y-64782078D01*
X141379893Y-64772202D01*
X141317900Y-64743233D01*
X141226137Y-64692261D01*
X141098177Y-64616373D01*
X141049780Y-64587033D01*
X140944047Y-64521599D01*
X140858975Y-64467081D01*
X140802277Y-64428486D01*
X140781664Y-64410823D01*
X140788160Y-64397236D01*
X140819155Y-64352761D01*
X140867088Y-64291599D01*
X140894518Y-64257081D01*
X140994955Y-64103550D01*
X141048697Y-63964600D01*
X141055438Y-63841376D01*
X141014875Y-63735023D01*
X140975023Y-63681608D01*
X140889370Y-63609330D01*
X140773645Y-63562613D01*
X140735110Y-63553864D01*
X140620687Y-63556297D01*
X140512378Y-63605600D01*
X140405126Y-63703711D01*
X140352356Y-63770200D01*
X140309241Y-63844509D01*
X140271485Y-63938504D01*
X140231847Y-64067380D01*
X140229716Y-64073122D01*
X140203868Y-64087127D01*
X140167146Y-64070812D01*
X140134405Y-64034631D01*
X140120500Y-63989034D01*
X140120510Y-63988222D01*
X140141275Y-63893754D01*
X140194754Y-63783583D01*
X140271420Y-63670146D01*
X140361746Y-63565878D01*
X140456204Y-63483216D01*
X140545266Y-63434595D01*
X140665977Y-63416023D01*
X140806155Y-63433268D01*
G37*
G36*
X141446745Y-62114723D02*
G01*
X141474732Y-62133007D01*
X141494290Y-62157309D01*
X141491006Y-62164476D01*
X141463645Y-62205809D01*
X141413036Y-62276367D01*
X141344619Y-62368651D01*
X141263828Y-62475162D01*
X141033367Y-62775874D01*
X141282916Y-62756173D01*
X141302221Y-62754673D01*
X141552004Y-62739882D01*
X141773448Y-62735505D01*
X141961151Y-62741384D01*
X142109708Y-62757363D01*
X142213715Y-62783284D01*
X142270325Y-62808818D01*
X142381015Y-62890129D01*
X142450713Y-62992591D01*
X142479595Y-63110020D01*
X142467835Y-63236233D01*
X142415607Y-63365046D01*
X142323088Y-63490277D01*
X142190452Y-63605741D01*
X142160971Y-63626629D01*
X142097915Y-63668909D01*
X142059617Y-63686176D01*
X142033853Y-63682098D01*
X142008398Y-63660340D01*
X142001864Y-63653662D01*
X141983183Y-63626555D01*
X141989849Y-63600748D01*
X142027938Y-63567038D01*
X142103524Y-63516221D01*
X142151625Y-63482812D01*
X142259941Y-63379778D01*
X142318176Y-63269755D01*
X142326654Y-63152215D01*
X142309329Y-63075501D01*
X142269363Y-62999490D01*
X142204737Y-62941426D01*
X142111270Y-62900118D01*
X141984783Y-62874378D01*
X141821095Y-62863015D01*
X141616027Y-62864840D01*
X141365398Y-62878664D01*
X141223364Y-62888793D01*
X141064953Y-62898246D01*
X140953005Y-62898214D01*
X140884951Y-62884436D01*
X140858222Y-62852648D01*
X140870249Y-62798589D01*
X140918463Y-62717997D01*
X141000296Y-62606609D01*
X141113179Y-62460163D01*
X141156444Y-62404198D01*
X141248533Y-62286793D01*
X141316871Y-62203543D01*
X141366161Y-62149578D01*
X141401103Y-62120032D01*
X141426398Y-62110036D01*
X141446745Y-62114723D01*
G37*
G36*
X163656571Y-62723915D02*
G01*
X163654739Y-62736985D01*
X163652942Y-62787923D01*
X163671533Y-62793863D01*
X163716808Y-62758411D01*
X163724034Y-62752046D01*
X163763933Y-62730870D01*
X163801528Y-62748802D01*
X163822342Y-62770940D01*
X163838694Y-62809579D01*
X163832367Y-62820258D01*
X163791344Y-62859659D01*
X163717218Y-62920756D01*
X163615844Y-62999074D01*
X163493075Y-63090138D01*
X163354765Y-63189473D01*
X163206769Y-63292605D01*
X163140492Y-63336255D01*
X163076069Y-63369367D01*
X163019727Y-63381334D01*
X162953584Y-63378202D01*
X162927703Y-63374044D01*
X162812690Y-63325300D01*
X162704141Y-63230285D01*
X162606657Y-63092785D01*
X162599334Y-63079862D01*
X162544853Y-62963242D01*
X162529761Y-62878742D01*
X162554042Y-62826272D01*
X162586103Y-62809643D01*
X162627034Y-62821272D01*
X162644583Y-62871592D01*
X162652282Y-62913967D01*
X162688786Y-62997842D01*
X162745249Y-63087568D01*
X162810445Y-63166189D01*
X162873146Y-63216751D01*
X162886295Y-63223717D01*
X162943784Y-63248304D01*
X162991810Y-63248112D01*
X163057924Y-63224263D01*
X163112754Y-63197498D01*
X163160868Y-63152261D01*
X163162160Y-63097119D01*
X163119083Y-63024041D01*
X163045421Y-62913224D01*
X162982481Y-62790795D01*
X162940505Y-62677730D01*
X163081607Y-62677730D01*
X163127238Y-62811153D01*
X163136656Y-62829700D01*
X163187535Y-62916805D01*
X163239667Y-62990982D01*
X163301512Y-63067334D01*
X163415645Y-62948601D01*
X163459224Y-62899270D01*
X163533010Y-62778146D01*
X163556878Y-62660895D01*
X163530717Y-62548941D01*
X163454420Y-62443705D01*
X163415554Y-62409847D01*
X163327035Y-62369634D01*
X163238645Y-62380293D01*
X163151049Y-62441829D01*
X163131639Y-62463305D01*
X163083099Y-62561403D01*
X163081607Y-62677730D01*
X162940505Y-62677730D01*
X162939718Y-62675611D01*
X162923949Y-62583075D01*
X162924519Y-62565002D01*
X162955292Y-62446803D01*
X163026501Y-62342076D01*
X163129107Y-62264840D01*
X163133219Y-62262754D01*
X163233507Y-62223359D01*
X163317924Y-62219939D01*
X163405002Y-62251605D01*
X163519325Y-62335866D01*
X163604744Y-62451340D01*
X163652658Y-62584753D01*
X163654799Y-62660895D01*
X163656571Y-62723915D01*
G37*
G36*
X162659196Y-61908566D02*
G01*
X162731251Y-61983776D01*
X162738386Y-61991427D01*
X162781099Y-62052637D01*
X162788074Y-62098681D01*
X162787413Y-62100362D01*
X162754455Y-62134902D01*
X162702645Y-62122527D01*
X162632547Y-62063364D01*
X162560680Y-61988351D01*
X162179966Y-62343323D01*
X162152749Y-62368622D01*
X162038171Y-62473391D01*
X161936172Y-62563960D01*
X161852830Y-62635113D01*
X161794223Y-62681631D01*
X161766431Y-62698296D01*
X161766124Y-62698293D01*
X161730134Y-62678430D01*
X161689755Y-62631365D01*
X161684555Y-62623236D01*
X161673004Y-62600624D01*
X161666645Y-62573228D01*
X161666423Y-62534659D01*
X161669616Y-62508527D01*
X161784377Y-62508527D01*
X161787746Y-62507451D01*
X161819318Y-62483067D01*
X161877837Y-62432379D01*
X161956143Y-62362066D01*
X162047077Y-62278805D01*
X162143477Y-62189275D01*
X162238185Y-62100153D01*
X162324040Y-62018118D01*
X162393882Y-61949846D01*
X162440550Y-61902016D01*
X162456886Y-61881306D01*
X162439157Y-61857903D01*
X162393455Y-61805211D01*
X162326727Y-61731080D01*
X162245913Y-61643339D01*
X162038718Y-61420659D01*
X161908044Y-61961271D01*
X161891425Y-62030316D01*
X161855517Y-62181676D01*
X161825233Y-62312369D01*
X161802198Y-62415204D01*
X161788038Y-62482987D01*
X161784377Y-62508527D01*
X161669616Y-62508527D01*
X161673281Y-62478525D01*
X161688164Y-62398438D01*
X161712019Y-62288007D01*
X161745789Y-62140842D01*
X161790419Y-61950553D01*
X161793283Y-61938381D01*
X161844009Y-61722706D01*
X161885672Y-61553330D01*
X161921695Y-61427392D01*
X161955500Y-61342033D01*
X161990509Y-61294392D01*
X162030145Y-61281610D01*
X162077830Y-61300826D01*
X162136985Y-61349181D01*
X162211035Y-61423816D01*
X162303400Y-61521869D01*
X162560907Y-61794789D01*
X162693116Y-61671391D01*
X162730268Y-61636909D01*
X162786009Y-61588594D01*
X162821380Y-61568405D01*
X162847498Y-61571587D01*
X162875480Y-61593384D01*
X162893088Y-61610230D01*
X162905379Y-61632878D01*
X162895840Y-61660847D01*
X162859757Y-61704367D01*
X162792416Y-61773670D01*
X162686117Y-61881306D01*
X162659196Y-61908566D01*
G37*
G36*
X143466734Y-62158919D02*
G01*
X143405033Y-62225000D01*
X143397775Y-62232628D01*
X143352316Y-62274150D01*
X143322856Y-62291082D01*
X143307394Y-62289112D01*
X143247322Y-62279729D01*
X143149137Y-62263681D01*
X143019987Y-62242153D01*
X142867019Y-62216331D01*
X142697383Y-62187398D01*
X142598934Y-62170388D01*
X142420027Y-62138344D01*
X142282944Y-62111674D01*
X142181846Y-62088999D01*
X142110894Y-62068940D01*
X142064249Y-62050117D01*
X142036072Y-62031150D01*
X141979759Y-61978585D01*
X141981207Y-61977028D01*
X142158395Y-61977028D01*
X142647134Y-62060096D01*
X142655587Y-62061533D01*
X142810799Y-62087982D01*
X142951787Y-62112122D01*
X143069560Y-62132407D01*
X143155128Y-62147287D01*
X143199500Y-62155214D01*
X143204850Y-62155853D01*
X143212376Y-62145839D01*
X143191222Y-62112762D01*
X143139046Y-62053934D01*
X143053507Y-61966667D01*
X142932266Y-61848271D01*
X142833451Y-61753674D01*
X142738059Y-61663786D01*
X142660789Y-61592527D01*
X142607756Y-61545527D01*
X142585070Y-61528417D01*
X142585053Y-61528416D01*
X142562470Y-61545878D01*
X142513191Y-61593899D01*
X142444471Y-61665148D01*
X142363565Y-61752291D01*
X142158395Y-61977028D01*
X141981207Y-61977028D01*
X142234275Y-61704887D01*
X142488790Y-61431189D01*
X142355287Y-61303836D01*
X142286916Y-61236134D01*
X142251062Y-61191689D01*
X142242523Y-61161388D01*
X142255642Y-61135686D01*
X142268118Y-61121693D01*
X142300755Y-61100416D01*
X142338803Y-61106643D01*
X142391698Y-61143916D01*
X142468874Y-61215781D01*
X142592602Y-61336673D01*
X142662484Y-61253958D01*
X142680407Y-61233336D01*
X142734575Y-61183981D01*
X142776008Y-61175479D01*
X142813935Y-61204838D01*
X142823330Y-61224244D01*
X142812559Y-61264438D01*
X142766511Y-61325730D01*
X142691205Y-61413026D01*
X143078970Y-61785972D01*
X143453134Y-62145839D01*
X143466734Y-62158919D01*
G37*
G36*
X143537699Y-60181242D02*
G01*
X143647995Y-60204621D01*
X143744130Y-60259493D01*
X143842679Y-60353723D01*
X143850981Y-60363088D01*
X143936261Y-60491930D01*
X143974653Y-60625884D01*
X143964377Y-60759016D01*
X143937506Y-60827015D01*
X143867232Y-60935422D01*
X143774230Y-61034866D01*
X143673027Y-61107949D01*
X143652030Y-61119657D01*
X143601482Y-61152135D01*
X143581264Y-61172426D01*
X143588013Y-61183814D01*
X143622701Y-61226506D01*
X143680221Y-61291843D01*
X143753057Y-61371135D01*
X143924851Y-61554785D01*
X144169873Y-61338469D01*
X144266614Y-61253629D01*
X144338038Y-61193734D01*
X144385642Y-61159582D01*
X144416623Y-61146939D01*
X144438179Y-61151569D01*
X144457507Y-61169240D01*
X144465488Y-61178691D01*
X144474526Y-61198206D01*
X144468963Y-61221862D01*
X144443985Y-61255453D01*
X144394778Y-61304768D01*
X144316529Y-61375602D01*
X144204424Y-61473744D01*
X144147025Y-61523384D01*
X144050400Y-61605349D01*
X143970909Y-61670722D01*
X143915555Y-61713796D01*
X143891339Y-61728866D01*
X143869930Y-61712225D01*
X143822218Y-61664515D01*
X143756356Y-61594252D01*
X143679898Y-61509973D01*
X143600400Y-61420217D01*
X143525417Y-61333520D01*
X143462504Y-61258419D01*
X143419216Y-61203452D01*
X143403107Y-61177157D01*
X143420433Y-61153960D01*
X143470134Y-61111945D01*
X143540865Y-61061532D01*
X143647557Y-60982020D01*
X143757336Y-60866587D01*
X143816459Y-60749424D01*
X143824848Y-60630707D01*
X143782426Y-60510610D01*
X143778616Y-60503955D01*
X143694519Y-60398519D01*
X143590946Y-60330211D01*
X143478129Y-60305911D01*
X143376202Y-60320730D01*
X143242922Y-60382381D01*
X143112692Y-60488994D01*
X142990217Y-60637375D01*
X142958916Y-60678361D01*
X142936674Y-60682907D01*
X142907502Y-60650997D01*
X142889482Y-60627412D01*
X142874282Y-60596463D01*
X142880579Y-60564511D01*
X142912428Y-60519164D01*
X142973880Y-60448026D01*
X143027164Y-60391744D01*
X143171819Y-60275942D01*
X143322996Y-60203857D01*
X143474361Y-60178896D01*
X143537699Y-60181242D01*
G37*
G36*
X161685626Y-60401820D02*
G01*
X161715993Y-60443638D01*
X161723800Y-60481766D01*
X161721899Y-60484996D01*
X161694888Y-60519379D01*
X161639581Y-60585518D01*
X161560254Y-60678430D01*
X161461179Y-60793134D01*
X161346629Y-60924648D01*
X161220878Y-61067993D01*
X161184830Y-61108852D01*
X161060736Y-61248057D01*
X160947747Y-61372629D01*
X160850315Y-61477806D01*
X160772893Y-61558828D01*
X160719933Y-61610932D01*
X160695888Y-61629358D01*
X160672320Y-61624792D01*
X160636740Y-61590449D01*
X160608315Y-61517349D01*
X160584098Y-61399427D01*
X160567114Y-61286275D01*
X160557936Y-61191566D01*
X160561223Y-61132978D01*
X160577535Y-61103192D01*
X160607432Y-61094889D01*
X160640347Y-61104218D01*
X160669134Y-61152154D01*
X160671422Y-61163747D01*
X160685195Y-61233312D01*
X160701433Y-61315091D01*
X160722446Y-61420763D01*
X161177570Y-60901514D01*
X161182503Y-60895886D01*
X161302710Y-60759568D01*
X161412136Y-60636937D01*
X161506263Y-60532942D01*
X161580571Y-60452532D01*
X161630542Y-60400656D01*
X161651658Y-60382264D01*
X161685626Y-60401820D01*
G37*
G36*
X160192539Y-59265227D02*
G01*
X160266107Y-59300095D01*
X160303808Y-59319674D01*
X160471252Y-59430416D01*
X160592157Y-59556257D01*
X160665471Y-59695836D01*
X160690143Y-59847795D01*
X160690136Y-59850232D01*
X160668535Y-59987300D01*
X160610677Y-60112939D01*
X160524663Y-60219290D01*
X160418592Y-60298494D01*
X160300566Y-60342692D01*
X160178684Y-60344024D01*
X160102461Y-60324007D01*
X159952705Y-60254034D01*
X159823837Y-60154189D01*
X159803517Y-60134347D01*
X159757369Y-60093224D01*
X159732263Y-60076853D01*
X159722953Y-60084906D01*
X159689585Y-60126804D01*
X159639326Y-60196425D01*
X159578910Y-60284639D01*
X159439797Y-60492425D01*
X159705720Y-60681172D01*
X159720874Y-60691958D01*
X159818816Y-60763195D01*
X159898489Y-60823727D01*
X159952048Y-60867444D01*
X159971644Y-60888236D01*
X159967714Y-60901084D01*
X159940785Y-60937412D01*
X159923015Y-60951976D01*
X159892965Y-60961590D01*
X159892297Y-60961322D01*
X159850966Y-60937968D01*
X159782608Y-60892619D01*
X159695815Y-60831673D01*
X159599176Y-60761528D01*
X159501282Y-60688585D01*
X159410724Y-60619241D01*
X159336091Y-60559895D01*
X159285975Y-60516946D01*
X159268966Y-60496793D01*
X159280642Y-60473197D01*
X159317895Y-60412720D01*
X159372755Y-60330839D01*
X159438634Y-60236638D01*
X159508946Y-60139198D01*
X159577102Y-60047602D01*
X159636517Y-59970932D01*
X159680601Y-59918269D01*
X159702769Y-59898697D01*
X159712350Y-59901083D01*
X159754993Y-59929086D01*
X159807814Y-59978471D01*
X159929248Y-60088511D01*
X160059608Y-60166115D01*
X160185521Y-60201062D01*
X160301804Y-60191968D01*
X160403271Y-60137449D01*
X160407739Y-60133648D01*
X160500113Y-60026661D01*
X160546597Y-59909601D01*
X160549281Y-59788917D01*
X160510257Y-59671057D01*
X160431616Y-59562471D01*
X160315447Y-59469608D01*
X160163842Y-59398916D01*
X160097550Y-59374127D01*
X160057182Y-59348051D01*
X160057683Y-59319161D01*
X160094313Y-59279300D01*
X160117803Y-59260662D01*
X160148263Y-59252707D01*
X160192539Y-59265227D01*
G37*
G36*
X144650769Y-59293681D02*
G01*
X144724418Y-59308350D01*
X144852112Y-59368473D01*
X144964493Y-59463011D01*
X145050297Y-59581410D01*
X145098266Y-59713115D01*
X145102832Y-59798552D01*
X145071724Y-59927056D01*
X145000847Y-60049826D01*
X144896227Y-60157368D01*
X144763886Y-60240184D01*
X144736765Y-60252984D01*
X144680154Y-60280820D01*
X144652983Y-60295944D01*
X144652860Y-60297297D01*
X144668588Y-60325863D01*
X144706691Y-60383464D01*
X144760278Y-60460348D01*
X144822458Y-60546765D01*
X144886340Y-60632964D01*
X144945033Y-60709194D01*
X144945601Y-60709404D01*
X144971811Y-60695937D01*
X145030343Y-60658604D01*
X145113131Y-60602710D01*
X145212106Y-60533562D01*
X145212838Y-60533043D01*
X145334151Y-60449731D01*
X145420931Y-60396735D01*
X145477596Y-60371649D01*
X145508567Y-60372063D01*
X145526120Y-60385909D01*
X145548325Y-60420441D01*
X145543683Y-60428790D01*
X145506532Y-60464055D01*
X145438202Y-60519566D01*
X145345836Y-60589638D01*
X145236574Y-60668587D01*
X145178481Y-60709534D01*
X145075699Y-60781428D01*
X144992254Y-60839072D01*
X144935529Y-60877383D01*
X144912909Y-60891282D01*
X144911611Y-60890709D01*
X144888512Y-60865235D01*
X144843849Y-60808437D01*
X144784107Y-60729245D01*
X144715769Y-60636590D01*
X144645317Y-60539405D01*
X144579236Y-60446619D01*
X144524008Y-60367164D01*
X144486116Y-60309971D01*
X144472045Y-60283971D01*
X144486677Y-60266514D01*
X144536434Y-60233009D01*
X144609264Y-60193848D01*
X144662452Y-60164062D01*
X144765099Y-60091352D01*
X144851047Y-60013274D01*
X144862112Y-60001154D01*
X144919953Y-59929125D01*
X144948172Y-59868462D01*
X144955612Y-59801226D01*
X144933227Y-59689857D01*
X144868539Y-59577743D01*
X144769212Y-59481097D01*
X144748712Y-59467458D01*
X144643775Y-59432503D01*
X144523835Y-59438442D01*
X144397321Y-59482603D01*
X144272660Y-59562311D01*
X144158280Y-59674894D01*
X144068820Y-59782592D01*
X144036945Y-59712636D01*
X144023123Y-59677040D01*
X144023465Y-59641306D01*
X144048749Y-59600738D01*
X144104941Y-59540210D01*
X144164631Y-59487520D01*
X144262773Y-59417509D01*
X144363444Y-59359528D01*
X144411326Y-59336646D01*
X144496195Y-59303553D01*
X144568943Y-59290851D01*
X144650769Y-59293681D01*
G37*
G36*
X146344615Y-59132771D02*
G01*
X146293485Y-59263432D01*
X146195856Y-59376913D01*
X146195502Y-59377216D01*
X146064649Y-59464654D01*
X145931802Y-59502872D01*
X145791546Y-59493430D01*
X145760984Y-59486915D01*
X145701877Y-59476814D01*
X145675038Y-59476198D01*
X145681030Y-59491456D01*
X145710717Y-59537163D01*
X145757691Y-59601317D01*
X145855734Y-59708200D01*
X145992735Y-59800843D01*
X146140101Y-59844976D01*
X146293901Y-59840221D01*
X146450202Y-59786202D01*
X146605070Y-59682540D01*
X146683369Y-59616656D01*
X146712038Y-59670225D01*
X146727681Y-59716830D01*
X146709157Y-59761811D01*
X146696402Y-59775300D01*
X146627939Y-59827204D01*
X146532985Y-59882299D01*
X146428579Y-59931398D01*
X146331759Y-59965313D01*
X146195017Y-59983990D01*
X146034537Y-59961791D01*
X145879847Y-59894206D01*
X145734749Y-59784225D01*
X145603051Y-59634835D01*
X145488557Y-59449024D01*
X145395071Y-59229781D01*
X145353328Y-59070025D01*
X145348366Y-58933691D01*
X145480645Y-58933691D01*
X145484454Y-59055221D01*
X145529582Y-59178061D01*
X145617136Y-59293664D01*
X145632010Y-59308335D01*
X145693752Y-59360149D01*
X145750598Y-59383566D01*
X145824311Y-59388554D01*
X145864937Y-59385876D01*
X145982228Y-59356519D01*
X146088054Y-59302055D01*
X146162942Y-59231517D01*
X146187880Y-59176649D01*
X146201054Y-59075088D01*
X146189090Y-58962109D01*
X146152515Y-58856602D01*
X146140966Y-58835057D01*
X146054593Y-58722929D01*
X145949355Y-58656129D01*
X145829314Y-58636370D01*
X145698530Y-58665361D01*
X145592557Y-58728749D01*
X145517048Y-58822018D01*
X145480645Y-58933691D01*
X145348366Y-58933691D01*
X145347502Y-58909955D01*
X145386529Y-58773578D01*
X145470555Y-58660427D01*
X145599722Y-58570039D01*
X145601976Y-58568870D01*
X145752158Y-58517398D01*
X145901892Y-58513844D01*
X146043160Y-58555844D01*
X146167942Y-58641037D01*
X146268222Y-58767058D01*
X146305128Y-58838914D01*
X146348684Y-58989681D01*
X146346255Y-59075088D01*
X146344615Y-59132771D01*
G37*
G36*
X159356066Y-58734585D02*
G01*
X159410018Y-58753770D01*
X159497790Y-58794308D01*
X159586915Y-58843577D01*
X159665411Y-58894261D01*
X159721295Y-58939042D01*
X159742586Y-58970604D01*
X159739723Y-58985241D01*
X159713869Y-59026452D01*
X159686230Y-59035252D01*
X159636606Y-59017040D01*
X159557777Y-58967550D01*
X159475660Y-58914676D01*
X159386207Y-58872494D01*
X159302059Y-58856849D01*
X159205627Y-58862497D01*
X159193618Y-58864347D01*
X159071561Y-58909424D01*
X158959051Y-58996354D01*
X158866993Y-59116944D01*
X158829047Y-59190900D01*
X158786003Y-59338105D01*
X158792101Y-59473150D01*
X158846803Y-59594480D01*
X158949572Y-59700541D01*
X159099868Y-59789778D01*
X159150579Y-59814033D01*
X159200434Y-59844080D01*
X159216586Y-59869738D01*
X159207571Y-59899719D01*
X159200287Y-59911679D01*
X159175546Y-59930808D01*
X159135768Y-59929404D01*
X159071309Y-59905763D01*
X158972524Y-59858179D01*
X158907433Y-59820777D01*
X158780037Y-59710498D01*
X158694188Y-59576116D01*
X158652185Y-59424289D01*
X158656327Y-59261674D01*
X158708913Y-59094926D01*
X158718872Y-59074305D01*
X158813900Y-58928606D01*
X158932187Y-58817857D01*
X159066679Y-58745985D01*
X159210323Y-58716919D01*
X159356066Y-58734585D01*
G37*
G36*
X158494813Y-58527352D02*
G01*
X158481576Y-58676557D01*
X158429675Y-58824588D01*
X158380122Y-58910675D01*
X158295708Y-59002802D01*
X158189733Y-59056449D01*
X158051184Y-59079018D01*
X157932947Y-59076281D01*
X157796358Y-59037724D01*
X157686324Y-58956961D01*
X157598980Y-58831879D01*
X157528908Y-58697745D01*
X157500513Y-58770115D01*
X157483709Y-58829026D01*
X157466739Y-58930637D01*
X157456272Y-59043427D01*
X157454044Y-59147158D01*
X157461789Y-59221592D01*
X157481380Y-59270088D01*
X157545560Y-59358350D01*
X157637100Y-59445138D01*
X157742605Y-59520090D01*
X157848682Y-59572844D01*
X157941935Y-59593038D01*
X157944238Y-59593121D01*
X157977107Y-59615386D01*
X157987552Y-59660314D01*
X157969507Y-59703573D01*
X157963501Y-59708448D01*
X157908541Y-59717454D01*
X157822715Y-59697131D01*
X157713315Y-59649876D01*
X157587635Y-59578086D01*
X157453730Y-59467235D01*
X157361977Y-59330577D01*
X157314439Y-59170539D01*
X157311298Y-58988359D01*
X157352734Y-58785275D01*
X157423474Y-58602465D01*
X157633206Y-58602465D01*
X157657768Y-58721315D01*
X157724605Y-58825286D01*
X157831756Y-58905085D01*
X157906878Y-58936056D01*
X158032497Y-58952255D01*
X158145588Y-58920138D01*
X158242704Y-58841036D01*
X158320398Y-58716283D01*
X158358271Y-58604140D01*
X158360624Y-58487054D01*
X158317473Y-58377773D01*
X158265669Y-58308743D01*
X158164703Y-58231301D01*
X158050698Y-58197447D01*
X157932281Y-58207435D01*
X157818078Y-58261522D01*
X157716716Y-58359964D01*
X157652881Y-58478032D01*
X157633206Y-58602465D01*
X157423474Y-58602465D01*
X157438929Y-58562525D01*
X157495057Y-58449911D01*
X157576387Y-58317299D01*
X157662583Y-58216539D01*
X157761924Y-58136721D01*
X157784079Y-58122816D01*
X157916027Y-58073507D01*
X158058526Y-58070415D01*
X158204263Y-58112751D01*
X158345928Y-58199726D01*
X158410996Y-58267959D01*
X158470811Y-58387608D01*
X158487892Y-58487054D01*
X158494813Y-58527352D01*
G37*
G36*
X147630179Y-58526967D02*
G01*
X147571028Y-58651209D01*
X147478596Y-58754855D01*
X147363639Y-58830938D01*
X147236327Y-58874461D01*
X147106831Y-58880427D01*
X146985322Y-58843837D01*
X146981817Y-58842024D01*
X146934743Y-58821251D01*
X146915332Y-58819557D01*
X146918875Y-58838656D01*
X146948069Y-58900629D01*
X146998885Y-58978837D01*
X147061785Y-59059383D01*
X147127234Y-59128369D01*
X147171646Y-59165654D01*
X147306270Y-59239128D01*
X147450513Y-59262934D01*
X147602917Y-59236996D01*
X147762028Y-59161239D01*
X147775134Y-59153157D01*
X147846841Y-59113384D01*
X147889252Y-59101536D01*
X147911866Y-59114658D01*
X147913713Y-59117626D01*
X147923594Y-59176761D01*
X147883521Y-59236476D01*
X147794375Y-59295940D01*
X147657039Y-59354324D01*
X147599191Y-59371047D01*
X147453695Y-59387996D01*
X147306444Y-59376553D01*
X147179950Y-59337511D01*
X147176943Y-59336041D01*
X147052139Y-59251319D01*
X146935798Y-59129569D01*
X146832330Y-58980693D01*
X146746149Y-58814596D01*
X146681665Y-58641181D01*
X146643290Y-58470350D01*
X146635437Y-58312007D01*
X146635852Y-58309926D01*
X146768201Y-58309926D01*
X146768578Y-58427984D01*
X146807884Y-58546553D01*
X146889249Y-58656960D01*
X146914218Y-58681364D01*
X146972696Y-58728087D01*
X147030284Y-58748751D01*
X147109979Y-58753406D01*
X147135831Y-58752791D01*
X147271834Y-58726650D01*
X147381469Y-58665255D01*
X147456124Y-58573092D01*
X147457703Y-58569986D01*
X147493716Y-58468915D01*
X147492166Y-58370346D01*
X147452863Y-58256061D01*
X147436633Y-58222950D01*
X147352826Y-58108357D01*
X147247013Y-58038775D01*
X147120750Y-58015330D01*
X147093420Y-58016207D01*
X146969363Y-58045518D01*
X146871722Y-58110022D01*
X146803625Y-58201048D01*
X146768201Y-58309926D01*
X146635852Y-58309926D01*
X146662518Y-58176055D01*
X146700216Y-58103630D01*
X146791809Y-58006178D01*
X146911996Y-57935005D01*
X147049376Y-57894441D01*
X147192552Y-57888816D01*
X147330124Y-57922461D01*
X147379238Y-57948199D01*
X147477898Y-58033456D01*
X147559000Y-58147417D01*
X147615867Y-58276626D01*
X147641820Y-58407628D01*
X147635842Y-58468915D01*
X147630179Y-58526967D01*
G37*
G36*
X157111347Y-58131262D02*
G01*
X157053507Y-58303123D01*
X156980403Y-58518074D01*
X156940487Y-58635268D01*
X156879328Y-58815224D01*
X156824948Y-58975720D01*
X156779281Y-59111015D01*
X156744265Y-59215368D01*
X156721836Y-59283036D01*
X156713929Y-59308278D01*
X156703885Y-59309596D01*
X156665077Y-59301322D01*
X156619206Y-59287062D01*
X156590399Y-59273592D01*
X156590304Y-59270297D01*
X156599494Y-59232065D01*
X156620400Y-59159719D01*
X156649662Y-59063944D01*
X156683924Y-58955430D01*
X156719826Y-58844862D01*
X156754010Y-58742928D01*
X156783118Y-58660315D01*
X156783554Y-58651324D01*
X156756534Y-58647796D01*
X156687897Y-58667380D01*
X156609605Y-58686491D01*
X156469126Y-58685041D01*
X156336854Y-58642494D01*
X156222568Y-58564438D01*
X156136046Y-58456460D01*
X156087068Y-58324144D01*
X156082516Y-58217228D01*
X156084684Y-58204411D01*
X156243296Y-58204411D01*
X156249946Y-58338046D01*
X156297895Y-58443731D01*
X156387898Y-58523696D01*
X156414422Y-58538603D01*
X156532109Y-58574329D01*
X156645941Y-58559692D01*
X156752719Y-58494944D01*
X156834810Y-58406939D01*
X156919418Y-58255023D01*
X156961069Y-58079373D01*
X156964868Y-58008883D01*
X156946715Y-57867532D01*
X156893513Y-57756198D01*
X156807940Y-57679256D01*
X156692675Y-57641082D01*
X156682580Y-57639907D01*
X156568553Y-57652633D01*
X156465402Y-57711708D01*
X156376457Y-57813415D01*
X156305052Y-57954038D01*
X156254517Y-58129859D01*
X156243296Y-58204411D01*
X156084684Y-58204411D01*
X156106376Y-58076147D01*
X156155330Y-57927988D01*
X156223379Y-57787242D01*
X156304520Y-57668402D01*
X156392752Y-57585960D01*
X156425313Y-57566555D01*
X156553883Y-57522973D01*
X156688377Y-57520343D01*
X156817017Y-57555903D01*
X156928027Y-57626894D01*
X157009626Y-57730554D01*
X157065558Y-57836324D01*
X157092027Y-57760396D01*
X157095835Y-57749594D01*
X157119254Y-57698838D01*
X157147963Y-57688352D01*
X157198409Y-57710408D01*
X157202707Y-57712898D01*
X157213758Y-57723748D01*
X157219033Y-57742534D01*
X157217179Y-57774276D01*
X157206839Y-57823998D01*
X157186657Y-57896722D01*
X157155278Y-57997469D01*
X157151530Y-58008883D01*
X157111347Y-58131262D01*
G37*
G36*
X155113426Y-57104488D02*
G01*
X155242276Y-57123757D01*
X155404138Y-57166776D01*
X155552268Y-57243840D01*
X155659546Y-57349424D01*
X155724785Y-57482309D01*
X155746795Y-57641275D01*
X155740633Y-57730746D01*
X155698395Y-57874720D01*
X155620129Y-57987530D01*
X155510569Y-58066300D01*
X155374448Y-58108156D01*
X155216500Y-58110223D01*
X155041459Y-58069626D01*
X154908769Y-58023780D01*
X154880175Y-58165898D01*
X154869310Y-58219476D01*
X154847803Y-58323749D01*
X154829776Y-58409129D01*
X154825123Y-58432003D01*
X154816180Y-58491181D01*
X154816991Y-58519261D01*
X154837444Y-58526300D01*
X154898715Y-58542467D01*
X154990338Y-58564717D01*
X155101883Y-58590444D01*
X155214360Y-58615826D01*
X155321540Y-58640792D01*
X155391860Y-58659473D01*
X155432520Y-58674745D01*
X155450718Y-58689481D01*
X155453654Y-58706555D01*
X155448527Y-58728841D01*
X155434089Y-58757540D01*
X155397402Y-58778857D01*
X155361536Y-58773587D01*
X155288770Y-58759373D01*
X155189957Y-58738639D01*
X155075933Y-58713812D01*
X154957535Y-58687317D01*
X154845603Y-58661579D01*
X154750973Y-58639023D01*
X154684484Y-58622075D01*
X154656973Y-58613160D01*
X154656597Y-58612487D01*
X154658635Y-58581015D01*
X154669349Y-58511824D01*
X154686560Y-58415746D01*
X154708089Y-58303611D01*
X154731757Y-58186249D01*
X154755385Y-58074490D01*
X154776795Y-57979167D01*
X154793807Y-57911108D01*
X154804242Y-57881144D01*
X154817225Y-57877494D01*
X154866799Y-57886561D01*
X154936219Y-57912224D01*
X154965129Y-57924417D01*
X155116841Y-57969635D01*
X155260040Y-57983018D01*
X155386219Y-57965535D01*
X155486872Y-57918156D01*
X155553494Y-57841851D01*
X155604149Y-57704202D01*
X155608046Y-57572478D01*
X155562615Y-57452719D01*
X155468003Y-57345770D01*
X155459320Y-57338855D01*
X155367241Y-57289370D01*
X155248676Y-57252730D01*
X155124856Y-57233996D01*
X155017008Y-57238231D01*
X155005730Y-57240323D01*
X154953335Y-57246133D01*
X154934957Y-57230260D01*
X154936893Y-57183311D01*
X154944181Y-57151093D01*
X154971837Y-57116701D01*
X155025766Y-57101651D01*
X155113426Y-57104488D01*
G37*
G36*
X149644908Y-57140326D02*
G01*
X149717231Y-57149761D01*
X149774495Y-57170093D01*
X149833599Y-57204993D01*
X149935652Y-57299869D01*
X150006542Y-57433440D01*
X150040741Y-57601625D01*
X150041891Y-57616798D01*
X150034900Y-57753434D01*
X149990336Y-57864653D01*
X149903372Y-57963157D01*
X149840192Y-58009786D01*
X149693413Y-58070849D01*
X149517686Y-58091541D01*
X149486017Y-58092314D01*
X149427521Y-58103060D01*
X149409520Y-58128247D01*
X149413312Y-58159524D01*
X149426609Y-58228206D01*
X149446274Y-58317022D01*
X149468948Y-58411980D01*
X149491267Y-58499090D01*
X149509871Y-58564362D01*
X149521395Y-58593805D01*
X149524852Y-58594737D01*
X149565327Y-58591379D01*
X149642334Y-58579323D01*
X149745706Y-58560487D01*
X149865274Y-58536785D01*
X149990868Y-58510134D01*
X150112320Y-58482451D01*
X150155070Y-58483523D01*
X150180334Y-58524015D01*
X150185489Y-58546937D01*
X150183196Y-58566878D01*
X150165796Y-58583809D01*
X150126384Y-58600589D01*
X150058055Y-58620078D01*
X149953902Y-58645137D01*
X149807021Y-58678625D01*
X149803450Y-58679434D01*
X149680949Y-58705973D01*
X149573557Y-58727095D01*
X149492745Y-58740679D01*
X149449983Y-58744607D01*
X149441199Y-58742917D01*
X149421003Y-58727958D01*
X149401251Y-58691908D01*
X149379304Y-58627567D01*
X149352523Y-58527737D01*
X149318271Y-58385218D01*
X149306754Y-58335236D01*
X149280002Y-58212591D01*
X149260028Y-58111211D01*
X149248602Y-58040488D01*
X149247496Y-58009818D01*
X149261429Y-58002447D01*
X149314903Y-57993350D01*
X149391934Y-57989737D01*
X149556795Y-57975985D01*
X149695878Y-57930902D01*
X149811307Y-57851341D01*
X149829172Y-57834673D01*
X149877247Y-57779889D01*
X149898251Y-57723588D01*
X149902876Y-57641237D01*
X149890424Y-57531257D01*
X149839993Y-57413051D01*
X149756339Y-57325527D01*
X149645410Y-57271310D01*
X149513152Y-57253023D01*
X149365511Y-57273293D01*
X149208433Y-57334742D01*
X149151368Y-57362500D01*
X149098748Y-57383251D01*
X149078311Y-57384202D01*
X149075416Y-57363769D01*
X149063654Y-57313033D01*
X149060722Y-57297186D01*
X149069602Y-57266538D01*
X149107870Y-57236867D01*
X149184893Y-57199392D01*
X149200666Y-57192530D01*
X149294607Y-57160186D01*
X149395813Y-57143352D01*
X149525803Y-57138163D01*
X149540626Y-57138119D01*
X149644908Y-57140326D01*
G37*
G36*
X148609245Y-57381582D02*
G01*
X148620542Y-57425638D01*
X148620542Y-57425738D01*
X148606882Y-57454216D01*
X148560132Y-57476729D01*
X148471420Y-57497555D01*
X148403813Y-57512465D01*
X148284181Y-57556375D01*
X148198424Y-57620795D01*
X148135509Y-57712793D01*
X148092932Y-57845575D01*
X148090156Y-57996840D01*
X148128173Y-58148895D01*
X148205433Y-58288954D01*
X148230563Y-58319894D01*
X148337234Y-58404589D01*
X148464416Y-58444231D01*
X148608460Y-58438190D01*
X148765714Y-58385833D01*
X148776211Y-58380948D01*
X148846579Y-58349447D01*
X148884771Y-58338662D01*
X148903277Y-58347763D01*
X148914584Y-58375918D01*
X148917182Y-58384696D01*
X148919807Y-58423922D01*
X148897598Y-58455420D01*
X148842475Y-58486279D01*
X148746363Y-58523591D01*
X148688032Y-58542404D01*
X148512391Y-58570966D01*
X148352084Y-58553375D01*
X148210580Y-58490377D01*
X148091346Y-58382718D01*
X148033692Y-58300546D01*
X147966743Y-58149074D01*
X147936416Y-57988685D01*
X147943014Y-57830124D01*
X147986841Y-57684130D01*
X148068200Y-57561447D01*
X148128716Y-57508714D01*
X148262985Y-57435113D01*
X148434815Y-57380264D01*
X148496757Y-57367446D01*
X148570440Y-57362784D01*
X148609245Y-57381582D01*
G37*
G36*
X154371461Y-57418703D02*
G01*
X154345875Y-57588237D01*
X154344890Y-57591733D01*
X154282238Y-57725973D01*
X154183500Y-57827261D01*
X154054636Y-57891233D01*
X153901604Y-57913527D01*
X153796200Y-57904365D01*
X153660359Y-57855538D01*
X153552109Y-57764282D01*
X153536682Y-57746489D01*
X153493133Y-57702201D01*
X153466902Y-57684469D01*
X153466878Y-57684469D01*
X153459964Y-57707670D01*
X153459151Y-57768299D01*
X153464615Y-57853259D01*
X153475760Y-57938548D01*
X153523569Y-58106771D01*
X153603176Y-58235557D01*
X153715840Y-58326086D01*
X153862822Y-58379539D01*
X154045382Y-58397094D01*
X154127895Y-58398475D01*
X154172846Y-58406094D01*
X154190945Y-58425120D01*
X154194290Y-58460721D01*
X154191149Y-58495683D01*
X154173507Y-58515083D01*
X154129235Y-58522901D01*
X154046204Y-58524348D01*
X154022879Y-58524126D01*
X153824500Y-58500701D01*
X153657880Y-58438321D01*
X153521461Y-58336426D01*
X153437957Y-58235803D01*
X153375016Y-58109609D01*
X153339877Y-57957938D01*
X153328959Y-57770266D01*
X153332164Y-57651398D01*
X153359167Y-57428281D01*
X153372675Y-57381060D01*
X153514537Y-57381060D01*
X153520197Y-57505762D01*
X153570538Y-57620939D01*
X153665128Y-57718401D01*
X153679485Y-57727789D01*
X153763885Y-57761501D01*
X153868735Y-57780230D01*
X153957697Y-57782883D01*
X154019366Y-57769594D01*
X154073906Y-57735625D01*
X154144938Y-57663865D01*
X154201529Y-57549123D01*
X154219740Y-57404509D01*
X154216262Y-57336182D01*
X154182529Y-57206770D01*
X154113100Y-57113595D01*
X154008189Y-57056881D01*
X153868012Y-57036853D01*
X153804054Y-57037702D01*
X153744545Y-57048745D01*
X153695204Y-57079833D01*
X153634625Y-57140471D01*
X153553990Y-57255025D01*
X153514537Y-57381060D01*
X153372675Y-57381060D01*
X153412408Y-57242163D01*
X153490395Y-57094856D01*
X153591637Y-56988173D01*
X153714645Y-56923927D01*
X153857927Y-56903930D01*
X154019992Y-56929994D01*
X154064754Y-56945093D01*
X154196813Y-57020747D01*
X154293942Y-57128923D01*
X154353154Y-57263587D01*
X154369786Y-57404509D01*
X154371461Y-57418703D01*
G37*
G36*
X151002008Y-56900786D02*
G01*
X151155703Y-56937991D01*
X151284798Y-57009610D01*
X151383114Y-57113178D01*
X151444472Y-57246231D01*
X151455002Y-57288823D01*
X151468738Y-57449529D01*
X151438145Y-57588625D01*
X151366024Y-57702770D01*
X151255176Y-57788619D01*
X151108399Y-57842832D01*
X150928496Y-57862066D01*
X150838654Y-57863730D01*
X150786975Y-57869953D01*
X150766596Y-57883505D01*
X150767602Y-57907164D01*
X150767671Y-57907407D01*
X150776309Y-57954719D01*
X150786808Y-58035291D01*
X150796909Y-58131822D01*
X150797209Y-58135030D01*
X150808318Y-58228867D01*
X150821334Y-58303900D01*
X150833504Y-58344142D01*
X150851339Y-58357913D01*
X150892677Y-58364090D01*
X150965657Y-58360934D01*
X151079509Y-58348614D01*
X151193486Y-58335277D01*
X151319746Y-58323522D01*
X151406735Y-58320925D01*
X151460895Y-58327843D01*
X151488668Y-58344630D01*
X151496494Y-58371643D01*
X151495331Y-58401374D01*
X151490131Y-58425194D01*
X151473885Y-58427761D01*
X151416079Y-58435408D01*
X151326716Y-58446658D01*
X151216534Y-58460141D01*
X151142785Y-58468663D01*
X151017087Y-58481598D01*
X150906576Y-58491139D01*
X150828893Y-58495668D01*
X150806005Y-58496138D01*
X150741904Y-58492776D01*
X150710173Y-58476588D01*
X150696226Y-58441633D01*
X150695833Y-58439774D01*
X150685102Y-58377404D01*
X150672178Y-58285985D01*
X150658336Y-58176876D01*
X150644853Y-58061432D01*
X150633005Y-57951013D01*
X150624068Y-57856974D01*
X150619317Y-57790675D01*
X150620029Y-57763472D01*
X150624267Y-57761767D01*
X150666518Y-57756516D01*
X150742942Y-57752003D01*
X150840873Y-57749056D01*
X150992856Y-57736804D01*
X151136434Y-57697316D01*
X151238016Y-57630271D01*
X151298388Y-57535113D01*
X151318338Y-57411286D01*
X151315537Y-57358008D01*
X151279848Y-57227823D01*
X151207403Y-57126783D01*
X151103648Y-57057703D01*
X150974032Y-57023401D01*
X150824002Y-57026694D01*
X150659006Y-57070397D01*
X150588451Y-57096357D01*
X150548420Y-57105385D01*
X150530016Y-57095399D01*
X150519980Y-57065980D01*
X150513385Y-57020574D01*
X150528697Y-56988837D01*
X150575279Y-56962923D01*
X150662327Y-56934328D01*
X150829893Y-56900458D01*
X151002008Y-56900786D01*
G37*
G36*
X152743588Y-57330945D02*
G01*
X152743588Y-57864019D01*
X152743588Y-58397094D01*
X152642941Y-58397094D01*
X152542294Y-58397094D01*
X152197550Y-57873855D01*
X152142226Y-57789483D01*
X152033192Y-57619760D01*
X151951550Y-57486676D01*
X151895482Y-57387082D01*
X151867992Y-57328156D01*
X151980376Y-57328156D01*
X152166285Y-57614479D01*
X152189394Y-57650066D01*
X152302893Y-57824539D01*
X152392347Y-57960985D01*
X152460790Y-58063416D01*
X152511253Y-58135842D01*
X152546767Y-58182277D01*
X152570365Y-58206730D01*
X152585079Y-58213215D01*
X152593939Y-58205742D01*
X152599979Y-58188323D01*
X152602963Y-58169884D01*
X152608026Y-58101867D01*
X152612124Y-57998825D01*
X152614897Y-57871093D01*
X152615986Y-57729008D01*
X152616334Y-57328156D01*
X152298355Y-57328156D01*
X151980376Y-57328156D01*
X151867992Y-57328156D01*
X151863173Y-57317826D01*
X151852807Y-57275759D01*
X151852807Y-57200901D01*
X152234570Y-57200901D01*
X152616334Y-57200901D01*
X152616334Y-57008250D01*
X152616544Y-56945930D01*
X152619208Y-56873363D01*
X152627499Y-56835592D01*
X152644577Y-56822440D01*
X152673598Y-56823731D01*
X152681849Y-56825063D01*
X152708683Y-56835948D01*
X152724478Y-56863668D01*
X152733074Y-56919578D01*
X152738313Y-57015032D01*
X152745764Y-57198201D01*
X152865568Y-57205914D01*
X152873754Y-57206461D01*
X152944093Y-57215186D01*
X152977134Y-57232504D01*
X152985372Y-57264529D01*
X152985301Y-57268780D01*
X152975125Y-57298851D01*
X152939005Y-57314971D01*
X152864480Y-57323188D01*
X152787054Y-57328156D01*
X152743588Y-57330945D01*
G37*
%TD*%
M02*
